G04 EAGLE Gerber RS-274X export*
G75*
%MOMM*%
%FSLAX34Y34*%
%LPD*%
%INBottom Copper*%
%IPPOS*%
%AMOC8*
5,1,8,0,0,1.08239X$1,22.5*%
G01*
%ADD10P,2.749271X8X247.500000*%
%ADD11R,1.500000X1.300000*%
%ADD12R,1.879600X1.879600*%
%ADD13P,2.034460X8X22.500000*%
%ADD14P,2.089446X8X22.500000*%
%ADD15P,2.089446X8X292.500000*%
%ADD16C,0.708000*%
%ADD17R,0.600000X1.200000*%
%ADD18R,1.300000X1.500000*%
%ADD19R,2.900000X5.400000*%
%ADD20P,1.924489X8X202.500000*%
%ADD21C,1.270000*%
%ADD22C,1.016000*%
%ADD23P,0.760271X8X22.500000*%
%ADD24P,1.244749X8X22.500000*%
%ADD25P,0.543793X8X22.500000*%
%ADD26P,1.298868X8X22.500000*%
%ADD27C,0.508000*%
%ADD28C,0.406400*%
%ADD29C,0.502400*%
%ADD30C,0.609600*%

G36*
X532797Y5915D02*
X532797Y5915D01*
X532846Y5923D01*
X532886Y5921D01*
X576335Y10747D01*
X576384Y10760D01*
X576424Y10761D01*
X619277Y19408D01*
X619324Y19425D01*
X619364Y19430D01*
X661285Y31830D01*
X661331Y31851D01*
X661370Y31860D01*
X702031Y47917D01*
X702075Y47942D01*
X702113Y47954D01*
X741195Y67541D01*
X741237Y67570D01*
X741274Y67585D01*
X778472Y90551D01*
X778511Y90583D01*
X778546Y90601D01*
X813570Y116764D01*
X813605Y116800D01*
X813639Y116821D01*
X846213Y145977D01*
X846245Y146016D01*
X846277Y146040D01*
X876147Y177961D01*
X876176Y178002D01*
X876205Y178029D01*
X903137Y212465D01*
X903162Y212509D01*
X903189Y212538D01*
X926972Y249219D01*
X926993Y249265D01*
X927017Y249297D01*
X947465Y287937D01*
X947482Y287984D01*
X947503Y288018D01*
X964456Y328313D01*
X964469Y328362D01*
X964487Y328398D01*
X977812Y370034D01*
X977821Y370084D01*
X977836Y370121D01*
X987429Y412772D01*
X987433Y412822D01*
X987445Y412860D01*
X993231Y456192D01*
X993230Y456242D01*
X993239Y456281D01*
X995172Y499955D01*
X995167Y500005D01*
X995172Y500045D01*
X993239Y543719D01*
X993229Y543768D01*
X993231Y543808D01*
X987445Y587140D01*
X987431Y587189D01*
X987429Y587228D01*
X977836Y629879D01*
X977818Y629927D01*
X977812Y629966D01*
X964487Y671602D01*
X964465Y671648D01*
X964456Y671687D01*
X947503Y711982D01*
X947477Y712026D01*
X947465Y712063D01*
X927017Y750703D01*
X926987Y750744D01*
X926972Y750781D01*
X903189Y787462D01*
X903156Y787500D01*
X903137Y787535D01*
X876205Y821971D01*
X876169Y822006D01*
X876147Y822039D01*
X846277Y853960D01*
X846238Y853992D01*
X846213Y854023D01*
X813639Y883179D01*
X813597Y883207D01*
X813570Y883236D01*
X778546Y909399D01*
X778502Y909423D01*
X778472Y909449D01*
X741274Y932415D01*
X741227Y932435D01*
X741195Y932459D01*
X702113Y952046D01*
X702065Y952063D01*
X702031Y952083D01*
X661370Y968140D01*
X661321Y968152D01*
X661285Y968170D01*
X619364Y980570D01*
X619314Y980578D01*
X619277Y980592D01*
X576424Y989239D01*
X576374Y989242D01*
X576335Y989253D01*
X532886Y994079D01*
X532836Y994078D01*
X532796Y994085D01*
X489091Y995052D01*
X489040Y995046D01*
X489001Y995050D01*
X445381Y992151D01*
X445331Y992140D01*
X445291Y992141D01*
X402098Y985398D01*
X402050Y985383D01*
X402010Y985380D01*
X359582Y974846D01*
X359535Y974827D01*
X359495Y974820D01*
X318164Y960577D01*
X318119Y960554D01*
X318081Y960544D01*
X278170Y942704D01*
X278127Y942677D01*
X278090Y942664D01*
X239912Y921366D01*
X239872Y921336D01*
X239835Y921319D01*
X203689Y896731D01*
X203652Y896697D01*
X203617Y896677D01*
X169785Y868990D01*
X169751Y868953D01*
X169719Y868931D01*
X138466Y838362D01*
X138445Y838334D01*
X138418Y838312D01*
X138412Y838303D01*
X138405Y838297D01*
X109977Y805086D01*
X109949Y805043D01*
X109921Y805015D01*
X84539Y769422D01*
X84516Y769377D01*
X84490Y769346D01*
X62354Y731649D01*
X62334Y731602D01*
X62312Y731569D01*
X62179Y731290D01*
X61698Y730275D01*
X61217Y729260D01*
X59293Y725199D01*
X58812Y724184D01*
X58812Y724183D01*
X58331Y723168D01*
X56407Y719107D01*
X55926Y718092D01*
X55445Y717077D01*
X53521Y713016D01*
X53040Y712001D01*
X53040Y712000D01*
X52559Y710985D01*
X50634Y706924D01*
X50153Y705909D01*
X49672Y704894D01*
X47748Y700833D01*
X47267Y699818D01*
X47267Y699817D01*
X46786Y698802D01*
X44862Y694741D01*
X44381Y693726D01*
X43900Y692711D01*
X43593Y692063D01*
X43578Y692015D01*
X43558Y691980D01*
X28404Y650974D01*
X28394Y650925D01*
X28377Y650889D01*
X16907Y608704D01*
X16900Y608654D01*
X16887Y608616D01*
X9190Y565582D01*
X9189Y565546D01*
X9185Y565534D01*
X9184Y565517D01*
X9178Y565493D01*
X5314Y521948D01*
X5317Y521898D01*
X5310Y521858D01*
X5310Y478142D01*
X5317Y478092D01*
X5314Y478052D01*
X9178Y434507D01*
X9190Y434457D01*
X9190Y434418D01*
X16887Y391384D01*
X16903Y391336D01*
X16907Y391296D01*
X28377Y349111D01*
X28397Y349065D01*
X28404Y349026D01*
X43558Y308020D01*
X43582Y307975D01*
X43593Y307937D01*
X62312Y268431D01*
X62339Y268389D01*
X62354Y268351D01*
X84490Y230654D01*
X84522Y230614D01*
X84539Y230578D01*
X109921Y194985D01*
X109956Y194949D01*
X109977Y194914D01*
X138405Y161703D01*
X138443Y161670D01*
X138466Y161638D01*
X169719Y131069D01*
X169759Y131040D01*
X169785Y131010D01*
X203617Y103323D01*
X203660Y103297D01*
X203689Y103269D01*
X239835Y78681D01*
X239881Y78659D01*
X239912Y78634D01*
X278090Y57336D01*
X278137Y57318D01*
X278170Y57296D01*
X318081Y39456D01*
X318129Y39442D01*
X318164Y39423D01*
X359495Y25180D01*
X359545Y25170D01*
X359582Y25154D01*
X402010Y14620D01*
X402060Y14615D01*
X402098Y14602D01*
X445291Y7859D01*
X445342Y7859D01*
X445381Y7849D01*
X489001Y4950D01*
X489051Y4954D01*
X489091Y4948D01*
X532797Y5915D01*
G37*
%LPC*%
G36*
X465681Y135855D02*
X465681Y135855D01*
X462320Y137247D01*
X459605Y139963D01*
X357009Y242558D01*
X356940Y242610D01*
X356876Y242670D01*
X356826Y242696D01*
X356782Y242729D01*
X356701Y242760D01*
X356623Y242800D01*
X356575Y242808D01*
X356517Y242830D01*
X356369Y242842D01*
X356292Y242855D01*
X309181Y242855D01*
X305820Y244247D01*
X303247Y246820D01*
X301855Y250181D01*
X301855Y253819D01*
X303247Y257180D01*
X305820Y259753D01*
X309181Y261145D01*
X362319Y261145D01*
X365680Y259753D01*
X368395Y257037D01*
X446550Y178882D01*
X446574Y178865D01*
X446593Y178842D01*
X446687Y178780D01*
X446777Y178712D01*
X446805Y178701D01*
X446829Y178685D01*
X446937Y178651D01*
X447043Y178610D01*
X447072Y178608D01*
X447100Y178599D01*
X447214Y178596D01*
X447326Y178587D01*
X447355Y178593D01*
X447384Y178592D01*
X447494Y178620D01*
X447605Y178643D01*
X447631Y178656D01*
X447659Y178664D01*
X447757Y178721D01*
X447857Y178774D01*
X447879Y178794D01*
X447904Y178809D01*
X447981Y178891D01*
X448063Y178969D01*
X448078Y178995D01*
X448098Y179016D01*
X448150Y179117D01*
X448207Y179215D01*
X448214Y179243D01*
X448228Y179269D01*
X448241Y179347D01*
X448277Y179490D01*
X448275Y179553D01*
X448283Y179600D01*
X448283Y185282D01*
X451288Y188286D01*
X451340Y188356D01*
X451400Y188420D01*
X451426Y188469D01*
X451459Y188513D01*
X451490Y188595D01*
X451530Y188673D01*
X451538Y188721D01*
X451560Y188779D01*
X451572Y188927D01*
X451585Y189004D01*
X451585Y195491D01*
X451574Y195568D01*
X451573Y195646D01*
X451555Y195708D01*
X451545Y195773D01*
X451514Y195844D01*
X451491Y195918D01*
X451460Y195964D01*
X451429Y196032D01*
X451346Y196131D01*
X451302Y196195D01*
X202571Y454796D01*
X202563Y454802D01*
X202558Y454810D01*
X201137Y456231D01*
X201064Y456354D01*
X200343Y458195D01*
X200338Y458204D01*
X200336Y458213D01*
X199567Y460069D01*
X199547Y460211D01*
X199585Y462188D01*
X199584Y462199D01*
X199585Y462208D01*
X199585Y502072D01*
X201171Y505900D01*
X237500Y542229D01*
X241328Y543815D01*
X250472Y543815D01*
X250530Y543823D01*
X250588Y543821D01*
X250670Y543843D01*
X250754Y543855D01*
X250807Y543878D01*
X250863Y543893D01*
X250936Y543936D01*
X251013Y543971D01*
X251058Y544009D01*
X251108Y544038D01*
X251166Y544100D01*
X251230Y544154D01*
X251262Y544203D01*
X251302Y544246D01*
X251341Y544321D01*
X251369Y544364D01*
X253995Y546989D01*
X254061Y547019D01*
X254106Y547057D01*
X254156Y547086D01*
X254214Y547148D01*
X254278Y547202D01*
X254310Y547251D01*
X254350Y547294D01*
X254389Y547369D01*
X254436Y547439D01*
X254453Y547495D01*
X254480Y547547D01*
X254491Y547615D01*
X254521Y547710D01*
X254524Y547810D01*
X254535Y547878D01*
X254535Y718924D01*
X256121Y722752D01*
X273298Y739929D01*
X273350Y739999D01*
X273410Y740063D01*
X273436Y740112D01*
X273469Y740156D01*
X273500Y740238D01*
X273540Y740316D01*
X273548Y740364D01*
X273570Y740422D01*
X273582Y740570D01*
X273595Y740647D01*
X273595Y751373D01*
X275181Y755201D01*
X354409Y834429D01*
X358237Y836015D01*
X370196Y836015D01*
X370282Y836027D01*
X370370Y836030D01*
X370423Y836047D01*
X370477Y836055D01*
X370557Y836090D01*
X370640Y836117D01*
X370680Y836145D01*
X370737Y836171D01*
X370850Y836267D01*
X370914Y836312D01*
X373918Y839317D01*
X385282Y839317D01*
X388286Y836312D01*
X388356Y836260D01*
X388420Y836200D01*
X388469Y836174D01*
X388513Y836141D01*
X388595Y836110D01*
X388673Y836070D01*
X388721Y836062D01*
X388779Y836040D01*
X388927Y836028D01*
X389004Y836015D01*
X405866Y836015D01*
X405952Y836027D01*
X406040Y836030D01*
X406092Y836047D01*
X406147Y836055D01*
X406227Y836090D01*
X406310Y836117D01*
X406349Y836145D01*
X406406Y836171D01*
X406520Y836267D01*
X406583Y836312D01*
X418123Y847852D01*
X418141Y847876D01*
X418163Y847895D01*
X418226Y847989D01*
X418294Y848079D01*
X418305Y848107D01*
X418321Y848131D01*
X418355Y848239D01*
X418396Y848345D01*
X418398Y848374D01*
X418407Y848402D01*
X418410Y848516D01*
X418419Y848628D01*
X418413Y848657D01*
X418414Y848686D01*
X418386Y848796D01*
X418363Y848907D01*
X418350Y848933D01*
X418342Y848961D01*
X418284Y849059D01*
X418232Y849159D01*
X418212Y849181D01*
X418197Y849206D01*
X418115Y849283D01*
X418036Y849365D01*
X418011Y849380D01*
X417990Y849400D01*
X417889Y849452D01*
X417791Y849509D01*
X417763Y849516D01*
X417737Y849530D01*
X417659Y849543D01*
X417516Y849579D01*
X417453Y849577D01*
X417406Y849585D01*
X397428Y849585D01*
X393600Y851171D01*
X385483Y859288D01*
X385414Y859340D01*
X385350Y859400D01*
X385300Y859426D01*
X385256Y859459D01*
X385175Y859490D01*
X385097Y859530D01*
X385049Y859538D01*
X384991Y859560D01*
X384843Y859572D01*
X384766Y859585D01*
X384254Y859585D01*
X384168Y859573D01*
X384080Y859570D01*
X384028Y859553D01*
X383973Y859545D01*
X383893Y859510D01*
X383810Y859483D01*
X383770Y859455D01*
X383713Y859429D01*
X383600Y859333D01*
X383536Y859288D01*
X382684Y858435D01*
X366316Y858435D01*
X365718Y859034D01*
X365671Y859069D01*
X365631Y859111D01*
X365558Y859154D01*
X365491Y859205D01*
X365436Y859225D01*
X365386Y859255D01*
X365304Y859276D01*
X365225Y859306D01*
X365167Y859311D01*
X365110Y859325D01*
X365026Y859322D01*
X364942Y859329D01*
X364884Y859318D01*
X364826Y859316D01*
X364746Y859290D01*
X364663Y859274D01*
X364611Y859247D01*
X364555Y859229D01*
X364499Y859188D01*
X364411Y859143D01*
X364338Y859074D01*
X364282Y859034D01*
X363684Y858435D01*
X347316Y858435D01*
X344935Y860816D01*
X344935Y862888D01*
X344928Y862938D01*
X344929Y862950D01*
X344927Y862955D01*
X344929Y863004D01*
X344907Y863086D01*
X344895Y863170D01*
X344872Y863223D01*
X344857Y863279D01*
X344814Y863352D01*
X344779Y863429D01*
X344741Y863474D01*
X344712Y863524D01*
X344650Y863582D01*
X344596Y863646D01*
X344547Y863678D01*
X344504Y863718D01*
X344429Y863757D01*
X344359Y863804D01*
X344303Y863821D01*
X344251Y863848D01*
X344183Y863859D01*
X344088Y863889D01*
X343988Y863892D01*
X343920Y863903D01*
X343787Y863903D01*
X341546Y864831D01*
X339689Y866689D01*
X339584Y866793D01*
X339538Y866829D01*
X339497Y866871D01*
X339425Y866914D01*
X339357Y866964D01*
X339303Y866985D01*
X339252Y867015D01*
X339171Y867036D01*
X339092Y867066D01*
X339033Y867071D01*
X338977Y867085D01*
X338892Y867082D01*
X338808Y867089D01*
X338751Y867078D01*
X338692Y867076D01*
X338612Y867050D01*
X338530Y867033D01*
X338478Y867006D01*
X338422Y866988D01*
X338366Y866948D01*
X338277Y866902D01*
X338205Y866834D01*
X338149Y866794D01*
X329108Y857753D01*
X326639Y857753D01*
X326572Y857744D01*
X326503Y857744D01*
X326431Y857724D01*
X326358Y857713D01*
X326295Y857686D01*
X326230Y857667D01*
X326166Y857628D01*
X326098Y857597D01*
X326046Y857553D01*
X325988Y857517D01*
X325938Y857462D01*
X325881Y857414D01*
X325843Y857357D01*
X325798Y857306D01*
X325772Y857249D01*
X325724Y857177D01*
X325689Y857068D01*
X325658Y857001D01*
X325550Y856595D01*
X325215Y856015D01*
X321819Y852619D01*
X315437Y859000D01*
X315391Y859035D01*
X315350Y859078D01*
X315277Y859121D01*
X315210Y859171D01*
X315155Y859192D01*
X315105Y859222D01*
X315023Y859242D01*
X314944Y859272D01*
X314886Y859277D01*
X314829Y859292D01*
X314745Y859289D01*
X314661Y859296D01*
X314604Y859284D01*
X314545Y859283D01*
X314465Y859257D01*
X314382Y859240D01*
X314330Y859213D01*
X314275Y859195D01*
X314219Y859155D01*
X314130Y859109D01*
X314058Y859040D01*
X314001Y859000D01*
X313283Y858281D01*
X313281Y858282D01*
X314000Y859001D01*
X314035Y859048D01*
X314078Y859088D01*
X314121Y859161D01*
X314171Y859229D01*
X314192Y859283D01*
X314222Y859334D01*
X314242Y859415D01*
X314272Y859494D01*
X314277Y859553D01*
X314292Y859609D01*
X314289Y859694D01*
X314296Y859778D01*
X314284Y859835D01*
X314283Y859893D01*
X314257Y859974D01*
X314240Y860056D01*
X314213Y860108D01*
X314195Y860164D01*
X314155Y860220D01*
X314109Y860309D01*
X314040Y860381D01*
X314000Y860437D01*
X307619Y866819D01*
X311015Y870215D01*
X311595Y870550D01*
X312001Y870658D01*
X312064Y870685D01*
X312129Y870702D01*
X312194Y870740D01*
X312262Y870770D01*
X312315Y870813D01*
X312374Y870847D01*
X312425Y870902D01*
X312483Y870949D01*
X312522Y871005D01*
X312568Y871055D01*
X312602Y871121D01*
X312645Y871183D01*
X312667Y871247D01*
X312698Y871308D01*
X312708Y871370D01*
X312736Y871452D01*
X312741Y871566D01*
X312753Y871639D01*
X312753Y874108D01*
X324327Y885682D01*
X327694Y885682D01*
X329159Y884217D01*
X329206Y884182D01*
X329246Y884139D01*
X329319Y884097D01*
X329386Y884046D01*
X329441Y884025D01*
X329491Y883996D01*
X329573Y883975D01*
X329652Y883945D01*
X329710Y883940D01*
X329767Y883925D01*
X329851Y883928D01*
X329935Y883921D01*
X329992Y883933D01*
X330051Y883934D01*
X330131Y883960D01*
X330214Y883977D01*
X330266Y884004D01*
X330321Y884022D01*
X330378Y884062D01*
X330466Y884108D01*
X330539Y884177D01*
X330595Y884217D01*
X333138Y886760D01*
X333190Y886830D01*
X333250Y886894D01*
X333276Y886943D01*
X333309Y886987D01*
X333340Y887069D01*
X333380Y887147D01*
X333388Y887194D01*
X333410Y887253D01*
X333422Y887401D01*
X333435Y887478D01*
X333435Y899684D01*
X335816Y902065D01*
X345184Y902065D01*
X346410Y900838D01*
X346480Y900786D01*
X346544Y900726D01*
X346593Y900700D01*
X346638Y900667D01*
X346719Y900636D01*
X346797Y900596D01*
X346845Y900588D01*
X346903Y900566D01*
X347051Y900554D01*
X347128Y900541D01*
X348501Y900541D01*
X348501Y892484D01*
X348509Y892426D01*
X348507Y892368D01*
X348529Y892286D01*
X348541Y892203D01*
X348564Y892149D01*
X348579Y892093D01*
X348622Y892020D01*
X348657Y891943D01*
X348695Y891899D01*
X348724Y891848D01*
X348786Y891791D01*
X348840Y891726D01*
X348889Y891694D01*
X348932Y891654D01*
X349007Y891615D01*
X349077Y891569D01*
X349133Y891551D01*
X349185Y891524D01*
X349253Y891513D01*
X349348Y891483D01*
X349448Y891480D01*
X349516Y891469D01*
X350484Y891469D01*
X350542Y891477D01*
X350600Y891476D01*
X350682Y891497D01*
X350766Y891509D01*
X350819Y891533D01*
X350875Y891547D01*
X350948Y891591D01*
X351025Y891625D01*
X351070Y891663D01*
X351120Y891693D01*
X351178Y891754D01*
X351242Y891809D01*
X351274Y891857D01*
X351314Y891900D01*
X351353Y891975D01*
X351400Y892045D01*
X351417Y892101D01*
X351444Y892153D01*
X351455Y892221D01*
X351485Y892316D01*
X351488Y892416D01*
X351499Y892484D01*
X351499Y900541D01*
X352872Y900541D01*
X352958Y900553D01*
X353046Y900556D01*
X353098Y900573D01*
X353153Y900581D01*
X353233Y900616D01*
X353316Y900643D01*
X353356Y900671D01*
X353413Y900697D01*
X353526Y900793D01*
X353590Y900838D01*
X354816Y902065D01*
X364184Y902065D01*
X364354Y901894D01*
X364424Y901842D01*
X364488Y901782D01*
X364537Y901756D01*
X364581Y901723D01*
X364663Y901692D01*
X364741Y901652D01*
X364789Y901644D01*
X364847Y901622D01*
X364995Y901610D01*
X365072Y901597D01*
X372420Y901597D01*
X372478Y901605D01*
X372536Y901603D01*
X372618Y901625D01*
X372702Y901637D01*
X372755Y901660D01*
X372811Y901675D01*
X372884Y901718D01*
X372961Y901753D01*
X373006Y901791D01*
X373056Y901820D01*
X373114Y901882D01*
X373178Y901936D01*
X373210Y901985D01*
X373250Y902028D01*
X373289Y902103D01*
X373336Y902173D01*
X373353Y902229D01*
X373380Y902281D01*
X373391Y902349D01*
X373421Y902444D01*
X373424Y902544D01*
X373435Y902612D01*
X373435Y903684D01*
X374034Y904282D01*
X374069Y904329D01*
X374111Y904369D01*
X374154Y904442D01*
X374205Y904509D01*
X374225Y904564D01*
X374255Y904614D01*
X374276Y904696D01*
X374306Y904775D01*
X374311Y904833D01*
X374325Y904890D01*
X374322Y904974D01*
X374329Y905058D01*
X374318Y905116D01*
X374316Y905174D01*
X374290Y905254D01*
X374274Y905337D01*
X374247Y905389D01*
X374229Y905445D01*
X374189Y905501D01*
X374143Y905589D01*
X374074Y905662D01*
X374034Y905718D01*
X373435Y906316D01*
X373435Y907840D01*
X373427Y907898D01*
X373429Y907956D01*
X373407Y908038D01*
X373395Y908122D01*
X373372Y908175D01*
X373357Y908231D01*
X373314Y908304D01*
X373279Y908381D01*
X373241Y908426D01*
X373212Y908476D01*
X373150Y908534D01*
X373096Y908598D01*
X373047Y908630D01*
X373004Y908670D01*
X372929Y908709D01*
X372859Y908756D01*
X372803Y908773D01*
X372751Y908800D01*
X372683Y908811D01*
X372588Y908841D01*
X372488Y908844D01*
X372420Y908855D01*
X365524Y908855D01*
X365438Y908843D01*
X365350Y908840D01*
X365297Y908823D01*
X365243Y908815D01*
X365163Y908780D01*
X365080Y908753D01*
X365040Y908725D01*
X364983Y908699D01*
X364870Y908603D01*
X364806Y908558D01*
X364184Y907935D01*
X335816Y907935D01*
X333435Y910316D01*
X333435Y910888D01*
X333427Y910946D01*
X333429Y911004D01*
X333407Y911086D01*
X333395Y911170D01*
X333372Y911223D01*
X333357Y911279D01*
X333314Y911352D01*
X333279Y911429D01*
X333241Y911474D01*
X333212Y911524D01*
X333150Y911582D01*
X333096Y911646D01*
X333047Y911678D01*
X333004Y911718D01*
X332929Y911757D01*
X332859Y911804D01*
X332803Y911821D01*
X332751Y911848D01*
X332683Y911859D01*
X332588Y911889D01*
X332488Y911892D01*
X332420Y911903D01*
X331080Y911903D01*
X331022Y911895D01*
X330964Y911897D01*
X330882Y911875D01*
X330798Y911863D01*
X330745Y911840D01*
X330689Y911825D01*
X330616Y911782D01*
X330539Y911747D01*
X330494Y911709D01*
X330444Y911680D01*
X330386Y911618D01*
X330322Y911564D01*
X330290Y911515D01*
X330250Y911472D01*
X330211Y911397D01*
X330164Y911327D01*
X330147Y911271D01*
X330120Y911219D01*
X330109Y911151D01*
X330079Y911056D01*
X330076Y910956D01*
X330065Y910888D01*
X330065Y910816D01*
X327684Y908435D01*
X311316Y908435D01*
X310718Y909034D01*
X310671Y909069D01*
X310631Y909111D01*
X310558Y909154D01*
X310491Y909205D01*
X310436Y909225D01*
X310386Y909255D01*
X310304Y909276D01*
X310225Y909306D01*
X310167Y909311D01*
X310110Y909325D01*
X310026Y909322D01*
X309942Y909329D01*
X309884Y909318D01*
X309826Y909316D01*
X309746Y909290D01*
X309663Y909274D01*
X309611Y909247D01*
X309555Y909229D01*
X309499Y909189D01*
X309411Y909143D01*
X309338Y909074D01*
X309282Y909034D01*
X308684Y908435D01*
X292316Y908435D01*
X290194Y910558D01*
X290124Y910610D01*
X290060Y910670D01*
X290011Y910696D01*
X289966Y910729D01*
X289885Y910760D01*
X289807Y910800D01*
X289759Y910808D01*
X289701Y910830D01*
X289553Y910842D01*
X289476Y910855D01*
X285708Y910855D01*
X285622Y910843D01*
X285534Y910840D01*
X285482Y910823D01*
X285427Y910815D01*
X285347Y910780D01*
X285264Y910753D01*
X285225Y910725D01*
X285168Y910699D01*
X285054Y910603D01*
X284991Y910558D01*
X269942Y895509D01*
X269890Y895440D01*
X269830Y895376D01*
X269804Y895326D01*
X269771Y895282D01*
X269740Y895201D01*
X269700Y895123D01*
X269692Y895075D01*
X269670Y895017D01*
X269658Y894869D01*
X269645Y894792D01*
X269645Y884617D01*
X269657Y884530D01*
X269660Y884443D01*
X269677Y884390D01*
X269685Y884335D01*
X269720Y884256D01*
X269747Y884172D01*
X269775Y884133D01*
X269801Y884076D01*
X269897Y883963D01*
X269942Y883899D01*
X271075Y882766D01*
X271145Y882714D01*
X271209Y882654D01*
X271258Y882629D01*
X271302Y882595D01*
X271384Y882564D01*
X271462Y882524D01*
X271509Y882517D01*
X271568Y882494D01*
X271715Y882482D01*
X271793Y882469D01*
X282148Y882469D01*
X291969Y872648D01*
X291969Y858760D01*
X282148Y848940D01*
X268260Y848940D01*
X258440Y858760D01*
X258440Y869116D01*
X258427Y869202D01*
X258425Y869290D01*
X258408Y869343D01*
X258400Y869397D01*
X258364Y869477D01*
X258337Y869560D01*
X258309Y869600D01*
X258283Y869657D01*
X258188Y869770D01*
X258142Y869834D01*
X255463Y872513D01*
X252747Y875228D01*
X251355Y878590D01*
X251355Y900819D01*
X252747Y904180D01*
X273605Y925037D01*
X276320Y927753D01*
X279681Y929145D01*
X289476Y929145D01*
X289562Y929157D01*
X289650Y929160D01*
X289702Y929177D01*
X289757Y929185D01*
X289837Y929220D01*
X289920Y929247D01*
X289960Y929275D01*
X290017Y929301D01*
X290130Y929397D01*
X290194Y929442D01*
X291767Y931016D01*
X291786Y931040D01*
X291809Y931060D01*
X291851Y931127D01*
X291938Y931243D01*
X291961Y931303D01*
X291987Y931345D01*
X292747Y933180D01*
X312320Y952753D01*
X315681Y954145D01*
X339476Y954145D01*
X339562Y954157D01*
X339650Y954160D01*
X339702Y954177D01*
X339757Y954185D01*
X339837Y954220D01*
X339920Y954247D01*
X339960Y954275D01*
X340017Y954301D01*
X340130Y954397D01*
X340194Y954442D01*
X342316Y956565D01*
X358684Y956565D01*
X360430Y954819D01*
X360484Y954778D01*
X360532Y954729D01*
X360597Y954693D01*
X360657Y954648D01*
X360721Y954623D01*
X360780Y954590D01*
X360853Y954573D01*
X360923Y954547D01*
X360991Y954541D01*
X361057Y954525D01*
X361131Y954529D01*
X361206Y954523D01*
X361273Y954536D01*
X361341Y954540D01*
X361400Y954562D01*
X361485Y954579D01*
X361586Y954631D01*
X361655Y954657D01*
X362019Y954868D01*
X362666Y955041D01*
X367469Y955041D01*
X367469Y946016D01*
X367476Y945969D01*
X367475Y945968D01*
X367476Y945967D01*
X367477Y945958D01*
X367475Y945900D01*
X367497Y945818D01*
X367509Y945735D01*
X367533Y945681D01*
X367547Y945625D01*
X367590Y945552D01*
X367625Y945475D01*
X367663Y945431D01*
X367693Y945380D01*
X367754Y945323D01*
X367809Y945258D01*
X367857Y945226D01*
X367900Y945186D01*
X367975Y945147D01*
X368045Y945101D01*
X368101Y945083D01*
X368153Y945056D01*
X368221Y945045D01*
X368316Y945015D01*
X368416Y945012D01*
X368484Y945001D01*
X369501Y945001D01*
X369501Y944999D01*
X368484Y944999D01*
X368426Y944991D01*
X368368Y944992D01*
X368286Y944971D01*
X368203Y944959D01*
X368149Y944935D01*
X368093Y944921D01*
X368020Y944878D01*
X367943Y944843D01*
X367898Y944805D01*
X367848Y944775D01*
X367790Y944714D01*
X367726Y944659D01*
X367694Y944611D01*
X367654Y944568D01*
X367615Y944493D01*
X367569Y944423D01*
X367551Y944367D01*
X367524Y944315D01*
X367513Y944247D01*
X367483Y944152D01*
X367480Y944052D01*
X367469Y943984D01*
X367469Y934959D01*
X362666Y934959D01*
X362019Y935132D01*
X361655Y935343D01*
X361592Y935368D01*
X361533Y935403D01*
X361461Y935421D01*
X361392Y935449D01*
X361324Y935456D01*
X361258Y935473D01*
X361183Y935470D01*
X361109Y935478D01*
X361042Y935466D01*
X360974Y935464D01*
X360902Y935441D01*
X360829Y935427D01*
X360768Y935397D01*
X360703Y935376D01*
X360652Y935340D01*
X360574Y935301D01*
X360490Y935224D01*
X360430Y935181D01*
X358684Y933435D01*
X357112Y933435D01*
X357054Y933427D01*
X356996Y933429D01*
X356914Y933407D01*
X356830Y933395D01*
X356777Y933372D01*
X356721Y933357D01*
X356648Y933314D01*
X356571Y933279D01*
X356526Y933241D01*
X356476Y933212D01*
X356418Y933150D01*
X356354Y933096D01*
X356322Y933047D01*
X356282Y933004D01*
X356243Y932929D01*
X356196Y932859D01*
X356179Y932803D01*
X356152Y932751D01*
X356141Y932683D01*
X356111Y932588D01*
X356108Y932488D01*
X356097Y932420D01*
X356097Y929080D01*
X356105Y929022D01*
X356103Y928964D01*
X356125Y928882D01*
X356137Y928798D01*
X356160Y928745D01*
X356175Y928689D01*
X356218Y928616D01*
X356253Y928539D01*
X356291Y928494D01*
X356320Y928444D01*
X356382Y928386D01*
X356436Y928322D01*
X356485Y928290D01*
X356528Y928250D01*
X356603Y928211D01*
X356673Y928164D01*
X356729Y928147D01*
X356781Y928120D01*
X356849Y928109D01*
X356944Y928079D01*
X357044Y928076D01*
X357112Y928065D01*
X364184Y928065D01*
X364806Y927442D01*
X364876Y927390D01*
X364940Y927330D01*
X364989Y927304D01*
X365033Y927271D01*
X365115Y927240D01*
X365193Y927200D01*
X365241Y927192D01*
X365299Y927170D01*
X365447Y927158D01*
X365524Y927145D01*
X373570Y927145D01*
X373628Y927153D01*
X373686Y927151D01*
X373768Y927173D01*
X373852Y927185D01*
X373905Y927208D01*
X373961Y927223D01*
X374034Y927266D01*
X374111Y927301D01*
X374156Y927339D01*
X374206Y927368D01*
X374264Y927430D01*
X374328Y927484D01*
X374360Y927533D01*
X374400Y927576D01*
X374439Y927651D01*
X374486Y927721D01*
X374503Y927777D01*
X374530Y927829D01*
X374541Y927897D01*
X374571Y927992D01*
X374574Y928092D01*
X374585Y928160D01*
X374585Y932072D01*
X375200Y933555D01*
X375229Y933667D01*
X375263Y933776D01*
X375264Y933804D01*
X375271Y933831D01*
X375268Y933945D01*
X375271Y934060D01*
X375263Y934087D01*
X375263Y934115D01*
X375228Y934224D01*
X375199Y934335D01*
X375185Y934359D01*
X375176Y934386D01*
X375112Y934481D01*
X375053Y934580D01*
X375033Y934599D01*
X375018Y934622D01*
X374930Y934696D01*
X374846Y934774D01*
X374821Y934787D01*
X374800Y934805D01*
X374695Y934851D01*
X374593Y934904D01*
X374568Y934908D01*
X374540Y934920D01*
X374277Y934957D01*
X374262Y934959D01*
X371531Y934959D01*
X371531Y942969D01*
X378541Y942969D01*
X378541Y940720D01*
X378545Y940691D01*
X378542Y940662D01*
X378565Y940551D01*
X378581Y940439D01*
X378593Y940412D01*
X378598Y940383D01*
X378650Y940283D01*
X378697Y940180D01*
X378716Y940157D01*
X378729Y940131D01*
X378807Y940049D01*
X378880Y939963D01*
X378905Y939946D01*
X378925Y939925D01*
X379023Y939868D01*
X379117Y939805D01*
X379145Y939796D01*
X379170Y939781D01*
X379280Y939753D01*
X379388Y939719D01*
X379418Y939718D01*
X379446Y939711D01*
X379559Y939715D01*
X379672Y939712D01*
X379701Y939719D01*
X379730Y939720D01*
X379838Y939755D01*
X379947Y939784D01*
X379973Y939799D01*
X380001Y939808D01*
X380064Y939853D01*
X380192Y939929D01*
X380235Y939975D01*
X380274Y940003D01*
X409100Y968829D01*
X412928Y970415D01*
X492072Y970415D01*
X495900Y968829D01*
X536017Y928712D01*
X536086Y928660D01*
X536150Y928600D01*
X536200Y928574D01*
X536244Y928541D01*
X536325Y928510D01*
X536403Y928470D01*
X536451Y928462D01*
X536509Y928440D01*
X536657Y928428D01*
X536734Y928415D01*
X540420Y928415D01*
X540478Y928423D01*
X540536Y928421D01*
X540618Y928443D01*
X540702Y928455D01*
X540755Y928478D01*
X540811Y928493D01*
X540884Y928536D01*
X540961Y928571D01*
X541006Y928609D01*
X541056Y928638D01*
X541114Y928700D01*
X541178Y928754D01*
X541210Y928803D01*
X541250Y928846D01*
X541289Y928921D01*
X541336Y928991D01*
X541353Y929047D01*
X541380Y929099D01*
X541391Y929167D01*
X541421Y929262D01*
X541424Y929362D01*
X541435Y929430D01*
X541435Y946684D01*
X543816Y949065D01*
X576184Y949065D01*
X578565Y946684D01*
X578565Y889316D01*
X576184Y886935D01*
X543816Y886935D01*
X541435Y889316D01*
X541435Y906570D01*
X541427Y906628D01*
X541429Y906686D01*
X541407Y906768D01*
X541395Y906852D01*
X541372Y906905D01*
X541357Y906961D01*
X541314Y907034D01*
X541279Y907111D01*
X541241Y907156D01*
X541212Y907206D01*
X541150Y907264D01*
X541096Y907328D01*
X541047Y907360D01*
X541004Y907400D01*
X540929Y907439D01*
X540859Y907486D01*
X540803Y907503D01*
X540751Y907530D01*
X540683Y907541D01*
X540588Y907571D01*
X540488Y907574D01*
X540420Y907585D01*
X529928Y907585D01*
X526100Y909171D01*
X485983Y949288D01*
X485914Y949340D01*
X485850Y949400D01*
X485800Y949426D01*
X485756Y949459D01*
X485675Y949490D01*
X485597Y949530D01*
X485549Y949538D01*
X485491Y949560D01*
X485343Y949572D01*
X485266Y949585D01*
X481114Y949585D01*
X481085Y949581D01*
X481056Y949584D01*
X480945Y949561D01*
X480833Y949545D01*
X480806Y949533D01*
X480777Y949528D01*
X480676Y949475D01*
X480573Y949429D01*
X480551Y949410D01*
X480525Y949397D01*
X480443Y949319D01*
X480356Y949246D01*
X480340Y949221D01*
X480319Y949201D01*
X480262Y949103D01*
X480199Y949009D01*
X480190Y948981D01*
X480175Y948956D01*
X480147Y948846D01*
X480113Y948738D01*
X480112Y948708D01*
X480105Y948680D01*
X480108Y948567D01*
X480106Y948454D01*
X480113Y948425D01*
X480114Y948396D01*
X480149Y948288D01*
X480177Y948179D01*
X480192Y948153D01*
X480201Y948125D01*
X480247Y948061D01*
X480323Y947934D01*
X480368Y947891D01*
X480396Y947852D01*
X481565Y946684D01*
X481565Y889316D01*
X479184Y886935D01*
X446816Y886935D01*
X444435Y889316D01*
X444435Y907840D01*
X444427Y907898D01*
X444429Y907956D01*
X444407Y908038D01*
X444395Y908122D01*
X444372Y908175D01*
X444357Y908231D01*
X444314Y908304D01*
X444279Y908381D01*
X444241Y908426D01*
X444212Y908476D01*
X444150Y908534D01*
X444096Y908598D01*
X444047Y908630D01*
X444004Y908670D01*
X443929Y908709D01*
X443859Y908756D01*
X443803Y908773D01*
X443751Y908800D01*
X443683Y908811D01*
X443588Y908841D01*
X443488Y908844D01*
X443420Y908855D01*
X441708Y908855D01*
X441622Y908843D01*
X441534Y908840D01*
X441482Y908823D01*
X441427Y908815D01*
X441347Y908780D01*
X441264Y908753D01*
X441225Y908725D01*
X441168Y908699D01*
X441054Y908603D01*
X440991Y908558D01*
X440362Y907929D01*
X440310Y907860D01*
X440250Y907796D01*
X440224Y907746D01*
X440191Y907702D01*
X440160Y907621D01*
X440120Y907543D01*
X440112Y907495D01*
X440090Y907437D01*
X440078Y907289D01*
X440065Y907212D01*
X440065Y900768D01*
X440041Y900737D01*
X440010Y900655D01*
X439970Y900577D01*
X439962Y900529D01*
X439940Y900471D01*
X439928Y900323D01*
X439915Y900246D01*
X439915Y894754D01*
X439927Y894667D01*
X439930Y894580D01*
X439947Y894527D01*
X439955Y894473D01*
X439990Y894393D01*
X440017Y894310D01*
X440045Y894270D01*
X440065Y894227D01*
X440065Y887619D01*
X440069Y887588D01*
X440067Y887557D01*
X440084Y887480D01*
X440105Y887337D01*
X440131Y887278D01*
X440142Y887230D01*
X440415Y886572D01*
X440415Y842928D01*
X438829Y839100D01*
X416500Y816771D01*
X412672Y815185D01*
X389004Y815185D01*
X388918Y815173D01*
X388830Y815170D01*
X388777Y815153D01*
X388723Y815145D01*
X388643Y815110D01*
X388560Y815083D01*
X388520Y815055D01*
X388463Y815029D01*
X388350Y814933D01*
X388286Y814888D01*
X385939Y812540D01*
X385904Y812494D01*
X385861Y812453D01*
X385818Y812380D01*
X385768Y812313D01*
X385747Y812258D01*
X385717Y812208D01*
X385697Y812126D01*
X385667Y812047D01*
X385662Y811989D01*
X385647Y811932D01*
X385650Y811848D01*
X385643Y811764D01*
X385654Y811707D01*
X385656Y811648D01*
X385682Y811568D01*
X385699Y811485D01*
X385726Y811433D01*
X385744Y811378D01*
X385784Y811322D01*
X385830Y811233D01*
X385899Y811161D01*
X385939Y811105D01*
X391793Y805250D01*
X391793Y802231D01*
X380616Y802231D01*
X380558Y802223D01*
X380500Y802225D01*
X380418Y802203D01*
X380335Y802191D01*
X380281Y802167D01*
X380225Y802153D01*
X380152Y802110D01*
X380075Y802075D01*
X380031Y802037D01*
X379980Y802007D01*
X379923Y801946D01*
X379858Y801891D01*
X379826Y801843D01*
X379786Y801800D01*
X379747Y801725D01*
X379701Y801655D01*
X379683Y801599D01*
X379656Y801547D01*
X379645Y801479D01*
X379615Y801384D01*
X379612Y801284D01*
X379601Y801216D01*
X379601Y799184D01*
X379609Y799126D01*
X379608Y799068D01*
X379629Y798986D01*
X379641Y798903D01*
X379665Y798849D01*
X379679Y798793D01*
X379722Y798720D01*
X379757Y798643D01*
X379795Y798598D01*
X379825Y798548D01*
X379886Y798490D01*
X379941Y798426D01*
X379989Y798394D01*
X380032Y798354D01*
X380107Y798315D01*
X380177Y798269D01*
X380233Y798251D01*
X380285Y798224D01*
X380353Y798213D01*
X380448Y798183D01*
X380548Y798180D01*
X380616Y798169D01*
X391793Y798169D01*
X391793Y795150D01*
X385939Y789296D01*
X385904Y789249D01*
X385861Y789209D01*
X385818Y789136D01*
X385768Y789068D01*
X385747Y789014D01*
X385717Y788963D01*
X385697Y788882D01*
X385667Y788803D01*
X385662Y788744D01*
X385647Y788688D01*
X385650Y788603D01*
X385643Y788519D01*
X385654Y788462D01*
X385656Y788404D01*
X385682Y788323D01*
X385699Y788241D01*
X385726Y788189D01*
X385744Y788133D01*
X385784Y788077D01*
X385830Y787988D01*
X385899Y787916D01*
X385939Y787860D01*
X393317Y780482D01*
X393317Y769118D01*
X387016Y762818D01*
X386981Y762771D01*
X386939Y762731D01*
X386896Y762658D01*
X386845Y762591D01*
X386825Y762536D01*
X386795Y762486D01*
X386774Y762404D01*
X386744Y762325D01*
X386739Y762267D01*
X386725Y762210D01*
X386728Y762126D01*
X386721Y762042D01*
X386732Y761984D01*
X386734Y761926D01*
X386760Y761846D01*
X386776Y761763D01*
X386803Y761711D01*
X386821Y761655D01*
X386861Y761599D01*
X386907Y761511D01*
X386976Y761438D01*
X387016Y761382D01*
X393317Y755082D01*
X393317Y743718D01*
X385282Y735683D01*
X376934Y735683D01*
X376812Y735666D01*
X376688Y735653D01*
X376671Y735646D01*
X376653Y735643D01*
X376540Y735593D01*
X376425Y735546D01*
X376412Y735535D01*
X376393Y735527D01*
X376176Y735344D01*
X376172Y735337D01*
X376166Y735332D01*
X362152Y719126D01*
X362124Y719083D01*
X362090Y719046D01*
X362048Y718964D01*
X361998Y718887D01*
X361983Y718839D01*
X361960Y718793D01*
X361948Y718721D01*
X361916Y718615D01*
X361915Y718525D01*
X361905Y718462D01*
X361905Y671080D01*
X361913Y671022D01*
X361911Y670964D01*
X361933Y670882D01*
X361945Y670798D01*
X361968Y670745D01*
X361983Y670689D01*
X362026Y670616D01*
X362061Y670539D01*
X362099Y670494D01*
X362128Y670444D01*
X362190Y670386D01*
X362244Y670322D01*
X362293Y670290D01*
X362336Y670250D01*
X362411Y670211D01*
X362481Y670164D01*
X362537Y670147D01*
X362589Y670120D01*
X362657Y670109D01*
X362752Y670079D01*
X362852Y670076D01*
X362920Y670065D01*
X364484Y670065D01*
X366865Y667684D01*
X366865Y651316D01*
X366266Y650718D01*
X366231Y650671D01*
X366189Y650631D01*
X366146Y650558D01*
X366095Y650491D01*
X366075Y650436D01*
X366045Y650386D01*
X366024Y650304D01*
X365994Y650225D01*
X365989Y650167D01*
X365975Y650110D01*
X365978Y650026D01*
X365971Y649942D01*
X365982Y649884D01*
X365984Y649826D01*
X366010Y649746D01*
X366026Y649663D01*
X366053Y649611D01*
X366071Y649555D01*
X366112Y649499D01*
X366157Y649411D01*
X366226Y649338D01*
X366266Y649282D01*
X366865Y648684D01*
X366865Y648120D01*
X366873Y648062D01*
X366871Y648004D01*
X366893Y647922D01*
X366905Y647838D01*
X366928Y647785D01*
X366943Y647729D01*
X366986Y647656D01*
X367021Y647579D01*
X367059Y647534D01*
X367088Y647484D01*
X367150Y647426D01*
X367204Y647362D01*
X367253Y647330D01*
X367296Y647290D01*
X367371Y647251D01*
X367441Y647204D01*
X367497Y647187D01*
X367549Y647160D01*
X367617Y647149D01*
X367712Y647119D01*
X367812Y647116D01*
X367880Y647105D01*
X382120Y647105D01*
X382178Y647113D01*
X382236Y647111D01*
X382318Y647133D01*
X382402Y647145D01*
X382455Y647168D01*
X382511Y647183D01*
X382584Y647226D01*
X382661Y647261D01*
X382706Y647299D01*
X382756Y647328D01*
X382814Y647390D01*
X382878Y647444D01*
X382910Y647493D01*
X382950Y647536D01*
X382989Y647611D01*
X383036Y647681D01*
X383053Y647737D01*
X383080Y647789D01*
X383091Y647857D01*
X383121Y647952D01*
X383124Y648052D01*
X383135Y648120D01*
X383135Y648684D01*
X384881Y650430D01*
X384922Y650484D01*
X384971Y650532D01*
X385007Y650597D01*
X385052Y650657D01*
X385077Y650721D01*
X385110Y650780D01*
X385127Y650853D01*
X385153Y650923D01*
X385159Y650991D01*
X385175Y651057D01*
X385171Y651131D01*
X385177Y651206D01*
X385164Y651273D01*
X385160Y651341D01*
X385138Y651400D01*
X385121Y651485D01*
X385069Y651586D01*
X385043Y651655D01*
X384832Y652019D01*
X384659Y652666D01*
X384659Y657469D01*
X393684Y657469D01*
X393742Y657477D01*
X393800Y657475D01*
X393882Y657497D01*
X393965Y657509D01*
X394019Y657533D01*
X394075Y657547D01*
X394148Y657590D01*
X394225Y657625D01*
X394269Y657663D01*
X394320Y657693D01*
X394377Y657754D01*
X394442Y657809D01*
X394474Y657857D01*
X394514Y657900D01*
X394553Y657975D01*
X394599Y658045D01*
X394617Y658101D01*
X394644Y658153D01*
X394655Y658221D01*
X394685Y658316D01*
X394688Y658416D01*
X394699Y658484D01*
X394699Y659501D01*
X394701Y659501D01*
X394701Y658484D01*
X394709Y658426D01*
X394708Y658368D01*
X394729Y658286D01*
X394741Y658203D01*
X394765Y658149D01*
X394779Y658093D01*
X394822Y658020D01*
X394857Y657943D01*
X394895Y657898D01*
X394925Y657848D01*
X394986Y657790D01*
X395041Y657726D01*
X395089Y657694D01*
X395132Y657654D01*
X395207Y657615D01*
X395277Y657569D01*
X395333Y657551D01*
X395385Y657524D01*
X395453Y657513D01*
X395548Y657483D01*
X395648Y657480D01*
X395716Y657469D01*
X404741Y657469D01*
X404741Y652666D01*
X404568Y652019D01*
X404357Y651655D01*
X404332Y651592D01*
X404297Y651533D01*
X404279Y651461D01*
X404251Y651392D01*
X404244Y651324D01*
X404227Y651258D01*
X404230Y651183D01*
X404222Y651109D01*
X404234Y651042D01*
X404236Y650974D01*
X404259Y650902D01*
X404273Y650829D01*
X404303Y650768D01*
X404324Y650703D01*
X404360Y650652D01*
X404399Y650574D01*
X404476Y650490D01*
X404519Y650430D01*
X406265Y648684D01*
X406265Y631964D01*
X406269Y631935D01*
X406266Y631906D01*
X406289Y631795D01*
X406305Y631683D01*
X406317Y631656D01*
X406322Y631627D01*
X406375Y631526D01*
X406421Y631423D01*
X406440Y631401D01*
X406453Y631375D01*
X406531Y631293D01*
X406604Y631206D01*
X406629Y631190D01*
X406649Y631169D01*
X406747Y631111D01*
X406841Y631049D01*
X406869Y631040D01*
X406894Y631025D01*
X407004Y630997D01*
X407112Y630963D01*
X407142Y630962D01*
X407170Y630955D01*
X407283Y630958D01*
X407396Y630956D01*
X407425Y630963D01*
X407454Y630964D01*
X407562Y630999D01*
X407671Y631027D01*
X407697Y631042D01*
X407725Y631051D01*
X407789Y631097D01*
X407916Y631173D01*
X407959Y631218D01*
X407998Y631246D01*
X408316Y631565D01*
X591684Y631565D01*
X594065Y629184D01*
X594065Y562816D01*
X591684Y560435D01*
X408316Y560435D01*
X405935Y562816D01*
X405935Y629536D01*
X405931Y629565D01*
X405934Y629594D01*
X405911Y629705D01*
X405895Y629817D01*
X405883Y629844D01*
X405878Y629873D01*
X405825Y629974D01*
X405779Y630077D01*
X405760Y630099D01*
X405747Y630125D01*
X405669Y630207D01*
X405596Y630294D01*
X405571Y630310D01*
X405551Y630331D01*
X405453Y630389D01*
X405359Y630451D01*
X405331Y630460D01*
X405306Y630475D01*
X405196Y630503D01*
X405088Y630537D01*
X405058Y630538D01*
X405030Y630545D01*
X404917Y630542D01*
X404804Y630544D01*
X404775Y630537D01*
X404746Y630536D01*
X404638Y630501D01*
X404529Y630473D01*
X404503Y630458D01*
X404475Y630449D01*
X404411Y630403D01*
X404284Y630327D01*
X404241Y630282D01*
X404202Y630254D01*
X403884Y629935D01*
X385516Y629935D01*
X383135Y632316D01*
X383135Y632880D01*
X383127Y632938D01*
X383129Y632996D01*
X383107Y633078D01*
X383095Y633162D01*
X383072Y633215D01*
X383057Y633271D01*
X383014Y633344D01*
X382979Y633421D01*
X382941Y633466D01*
X382912Y633516D01*
X382850Y633574D01*
X382796Y633638D01*
X382747Y633670D01*
X382704Y633710D01*
X382629Y633749D01*
X382559Y633796D01*
X382503Y633813D01*
X382451Y633840D01*
X382383Y633851D01*
X382288Y633881D01*
X382188Y633884D01*
X382120Y633895D01*
X367880Y633895D01*
X367822Y633887D01*
X367764Y633889D01*
X367682Y633867D01*
X367598Y633855D01*
X367545Y633832D01*
X367489Y633817D01*
X367416Y633774D01*
X367339Y633739D01*
X367294Y633701D01*
X367244Y633672D01*
X367186Y633610D01*
X367122Y633556D01*
X367090Y633507D01*
X367050Y633464D01*
X367011Y633389D01*
X366964Y633319D01*
X366947Y633263D01*
X366920Y633211D01*
X366909Y633143D01*
X366879Y633048D01*
X366876Y632948D01*
X366865Y632880D01*
X366865Y632316D01*
X364484Y629935D01*
X362920Y629935D01*
X362862Y629927D01*
X362804Y629929D01*
X362722Y629907D01*
X362638Y629895D01*
X362585Y629872D01*
X362529Y629857D01*
X362456Y629814D01*
X362379Y629779D01*
X362334Y629741D01*
X362284Y629712D01*
X362226Y629650D01*
X362162Y629596D01*
X362130Y629547D01*
X362090Y629504D01*
X362051Y629429D01*
X362004Y629359D01*
X361987Y629303D01*
X361960Y629251D01*
X361949Y629183D01*
X361919Y629088D01*
X361916Y628988D01*
X361905Y628920D01*
X361905Y527856D01*
X361917Y527770D01*
X361920Y527682D01*
X361937Y527630D01*
X361945Y527575D01*
X361980Y527495D01*
X362007Y527412D01*
X362035Y527373D01*
X362061Y527315D01*
X362157Y527202D01*
X362202Y527138D01*
X365650Y523690D01*
X365694Y523616D01*
X365741Y523571D01*
X365770Y523531D01*
X366577Y522724D01*
X366577Y521583D01*
X366581Y521553D01*
X366579Y521522D01*
X366596Y521445D01*
X366605Y521385D01*
X366605Y518614D01*
X366583Y518530D01*
X366585Y518466D01*
X366577Y518417D01*
X366577Y517276D01*
X365770Y516469D01*
X365751Y516444D01*
X365728Y516424D01*
X365686Y516358D01*
X365650Y516309D01*
X363690Y514350D01*
X363616Y514306D01*
X363571Y514259D01*
X363531Y514230D01*
X362724Y513423D01*
X361583Y513423D01*
X361553Y513419D01*
X361522Y513421D01*
X361445Y513404D01*
X361385Y513395D01*
X358614Y513395D01*
X358530Y513417D01*
X358466Y513415D01*
X358417Y513423D01*
X357276Y513423D01*
X356469Y514230D01*
X356444Y514249D01*
X356424Y514272D01*
X356358Y514314D01*
X356309Y514350D01*
X349701Y520959D01*
X348695Y523386D01*
X348695Y628920D01*
X348687Y628978D01*
X348689Y629036D01*
X348667Y629118D01*
X348655Y629202D01*
X348632Y629255D01*
X348617Y629311D01*
X348574Y629384D01*
X348539Y629461D01*
X348501Y629506D01*
X348472Y629556D01*
X348410Y629614D01*
X348356Y629678D01*
X348307Y629710D01*
X348264Y629750D01*
X348189Y629789D01*
X348119Y629836D01*
X348063Y629853D01*
X348011Y629880D01*
X347943Y629891D01*
X347848Y629921D01*
X347748Y629924D01*
X347680Y629935D01*
X346116Y629935D01*
X343735Y632316D01*
X343735Y648684D01*
X344334Y649282D01*
X344369Y649329D01*
X344411Y649369D01*
X344454Y649442D01*
X344505Y649509D01*
X344525Y649564D01*
X344555Y649614D01*
X344576Y649696D01*
X344606Y649775D01*
X344611Y649833D01*
X344625Y649890D01*
X344622Y649974D01*
X344629Y650058D01*
X344618Y650116D01*
X344616Y650174D01*
X344590Y650254D01*
X344574Y650337D01*
X344547Y650389D01*
X344529Y650445D01*
X344489Y650501D01*
X344443Y650589D01*
X344374Y650662D01*
X344334Y650718D01*
X343735Y651316D01*
X343735Y667684D01*
X346116Y670065D01*
X347680Y670065D01*
X347738Y670073D01*
X347796Y670071D01*
X347878Y670093D01*
X347962Y670105D01*
X348015Y670128D01*
X348071Y670143D01*
X348144Y670186D01*
X348221Y670221D01*
X348266Y670259D01*
X348316Y670288D01*
X348374Y670350D01*
X348438Y670404D01*
X348470Y670453D01*
X348510Y670496D01*
X348549Y670571D01*
X348596Y670641D01*
X348613Y670697D01*
X348640Y670749D01*
X348651Y670817D01*
X348681Y670912D01*
X348684Y671012D01*
X348695Y671080D01*
X348695Y721024D01*
X348690Y721065D01*
X348693Y721098D01*
X348618Y722133D01*
X348644Y722211D01*
X348694Y722491D01*
X348692Y722513D01*
X348695Y722531D01*
X348695Y722614D01*
X349092Y723573D01*
X349103Y723612D01*
X349118Y723642D01*
X349445Y724626D01*
X349499Y724689D01*
X349653Y724928D01*
X349659Y724949D01*
X349669Y724965D01*
X349701Y725041D01*
X350435Y725775D01*
X350459Y725808D01*
X350485Y725829D01*
X365636Y743350D01*
X365664Y743392D01*
X365698Y743429D01*
X365740Y743511D01*
X365790Y743589D01*
X365805Y743637D01*
X365828Y743683D01*
X365840Y743755D01*
X365872Y743861D01*
X365873Y743950D01*
X365883Y744014D01*
X365883Y755082D01*
X372184Y761382D01*
X372219Y761429D01*
X372261Y761469D01*
X372304Y761542D01*
X372355Y761609D01*
X372375Y761664D01*
X372405Y761714D01*
X372426Y761796D01*
X372456Y761875D01*
X372461Y761933D01*
X372475Y761990D01*
X372472Y762074D01*
X372479Y762158D01*
X372468Y762216D01*
X372466Y762274D01*
X372440Y762354D01*
X372424Y762437D01*
X372397Y762489D01*
X372379Y762545D01*
X372339Y762601D01*
X372293Y762689D01*
X372224Y762762D01*
X372184Y762818D01*
X365883Y769118D01*
X365883Y780482D01*
X373261Y787860D01*
X373296Y787906D01*
X373339Y787947D01*
X373382Y788020D01*
X373432Y788087D01*
X373453Y788142D01*
X373483Y788192D01*
X373503Y788274D01*
X373533Y788353D01*
X373538Y788411D01*
X373553Y788468D01*
X373550Y788552D01*
X373557Y788636D01*
X373546Y788693D01*
X373544Y788752D01*
X373518Y788832D01*
X373501Y788915D01*
X373474Y788967D01*
X373456Y789022D01*
X373416Y789078D01*
X373370Y789167D01*
X373301Y789239D01*
X373261Y789296D01*
X367407Y795150D01*
X367407Y798169D01*
X378584Y798169D01*
X378642Y798177D01*
X378700Y798175D01*
X378782Y798197D01*
X378865Y798209D01*
X378919Y798233D01*
X378975Y798247D01*
X379048Y798290D01*
X379125Y798325D01*
X379169Y798363D01*
X379220Y798393D01*
X379277Y798454D01*
X379342Y798509D01*
X379374Y798557D01*
X379414Y798600D01*
X379453Y798675D01*
X379499Y798745D01*
X379517Y798801D01*
X379544Y798853D01*
X379555Y798921D01*
X379585Y799016D01*
X379588Y799116D01*
X379599Y799184D01*
X379599Y801216D01*
X379591Y801274D01*
X379592Y801332D01*
X379571Y801414D01*
X379559Y801497D01*
X379535Y801551D01*
X379521Y801607D01*
X379478Y801680D01*
X379443Y801757D01*
X379405Y801802D01*
X379375Y801852D01*
X379314Y801910D01*
X379259Y801974D01*
X379211Y802006D01*
X379168Y802046D01*
X379093Y802085D01*
X379023Y802131D01*
X378967Y802149D01*
X378915Y802176D01*
X378847Y802187D01*
X378752Y802217D01*
X378652Y802220D01*
X378584Y802231D01*
X367407Y802231D01*
X367407Y805250D01*
X373261Y811105D01*
X373296Y811151D01*
X373339Y811192D01*
X373382Y811264D01*
X373432Y811332D01*
X373453Y811386D01*
X373483Y811437D01*
X373503Y811518D01*
X373533Y811597D01*
X373538Y811656D01*
X373553Y811712D01*
X373550Y811797D01*
X373557Y811881D01*
X373546Y811938D01*
X373544Y811996D01*
X373518Y812077D01*
X373501Y812159D01*
X373474Y812211D01*
X373456Y812267D01*
X373416Y812323D01*
X373370Y812412D01*
X373301Y812484D01*
X373261Y812540D01*
X370914Y814888D01*
X370844Y814940D01*
X370780Y815000D01*
X370731Y815026D01*
X370687Y815059D01*
X370605Y815090D01*
X370527Y815130D01*
X370479Y815138D01*
X370421Y815160D01*
X370273Y815172D01*
X370196Y815185D01*
X365043Y815185D01*
X364956Y815173D01*
X364869Y815170D01*
X364816Y815153D01*
X364762Y815145D01*
X364682Y815110D01*
X364599Y815083D01*
X364559Y815055D01*
X364502Y815029D01*
X364389Y814933D01*
X364325Y814888D01*
X294722Y745285D01*
X294670Y745215D01*
X294610Y745151D01*
X294584Y745102D01*
X294551Y745058D01*
X294520Y744976D01*
X294480Y744898D01*
X294472Y744850D01*
X294450Y744792D01*
X294438Y744644D01*
X294425Y744567D01*
X294425Y733841D01*
X292839Y730013D01*
X275662Y712836D01*
X275610Y712766D01*
X275550Y712702D01*
X275524Y712653D01*
X275491Y712609D01*
X275460Y712527D01*
X275420Y712449D01*
X275412Y712402D01*
X275390Y712343D01*
X275378Y712195D01*
X275365Y712118D01*
X275365Y547878D01*
X275373Y547820D01*
X275371Y547762D01*
X275393Y547680D01*
X275405Y547596D01*
X275428Y547543D01*
X275443Y547487D01*
X275486Y547414D01*
X275521Y547337D01*
X275559Y547292D01*
X275588Y547242D01*
X275650Y547184D01*
X275704Y547120D01*
X275753Y547088D01*
X275796Y547048D01*
X275871Y547009D01*
X275914Y546981D01*
X278413Y544482D01*
X278413Y522318D01*
X276032Y519937D01*
X274503Y519937D01*
X274474Y519933D01*
X274445Y519936D01*
X274334Y519913D01*
X274221Y519897D01*
X274195Y519885D01*
X274166Y519880D01*
X274065Y519828D01*
X273962Y519781D01*
X273940Y519762D01*
X273914Y519749D01*
X273832Y519671D01*
X273745Y519598D01*
X273729Y519573D01*
X273707Y519553D01*
X273650Y519455D01*
X273587Y519361D01*
X273579Y519333D01*
X273564Y519308D01*
X273536Y519198D01*
X273502Y519090D01*
X273501Y519060D01*
X273494Y519032D01*
X273497Y518919D01*
X273494Y518806D01*
X273502Y518777D01*
X273503Y518748D01*
X273538Y518640D01*
X273566Y518531D01*
X273581Y518505D01*
X273590Y518477D01*
X273636Y518414D01*
X273711Y518286D01*
X273757Y518243D01*
X273785Y518204D01*
X278413Y513576D01*
X278413Y502424D01*
X270929Y494940D01*
X270894Y494893D01*
X270852Y494853D01*
X270809Y494781D01*
X270759Y494713D01*
X270738Y494658D01*
X270708Y494608D01*
X270687Y494526D01*
X270657Y494447D01*
X270652Y494389D01*
X270638Y494332D01*
X270641Y494248D01*
X270634Y494164D01*
X270645Y494107D01*
X270647Y494048D01*
X270673Y493968D01*
X270690Y493885D01*
X270717Y493833D01*
X270735Y493778D01*
X270775Y493722D01*
X270821Y493633D01*
X270889Y493561D01*
X270929Y493504D01*
X276889Y487545D01*
X276889Y484631D01*
X265966Y484631D01*
X265908Y484623D01*
X265850Y484625D01*
X265768Y484603D01*
X265685Y484591D01*
X265631Y484567D01*
X265575Y484553D01*
X265502Y484510D01*
X265425Y484475D01*
X265381Y484437D01*
X265330Y484407D01*
X265273Y484346D01*
X265208Y484291D01*
X265176Y484243D01*
X265136Y484200D01*
X265097Y484125D01*
X265051Y484055D01*
X265033Y483999D01*
X265006Y483947D01*
X264995Y483879D01*
X264965Y483784D01*
X264962Y483684D01*
X264951Y483616D01*
X264951Y482599D01*
X264949Y482599D01*
X264949Y483616D01*
X264941Y483674D01*
X264942Y483732D01*
X264921Y483814D01*
X264909Y483897D01*
X264885Y483951D01*
X264871Y484007D01*
X264828Y484080D01*
X264793Y484157D01*
X264755Y484202D01*
X264725Y484252D01*
X264664Y484310D01*
X264609Y484374D01*
X264561Y484406D01*
X264518Y484446D01*
X264443Y484485D01*
X264373Y484531D01*
X264317Y484549D01*
X264265Y484576D01*
X264197Y484587D01*
X264102Y484617D01*
X264002Y484620D01*
X263934Y484631D01*
X253011Y484631D01*
X253011Y487545D01*
X258971Y493504D01*
X259006Y493551D01*
X259048Y493591D01*
X259091Y493664D01*
X259141Y493732D01*
X259162Y493786D01*
X259192Y493837D01*
X259213Y493918D01*
X259243Y493997D01*
X259248Y494056D01*
X259262Y494112D01*
X259259Y494197D01*
X259266Y494281D01*
X259255Y494338D01*
X259253Y494396D01*
X259227Y494477D01*
X259210Y494559D01*
X259183Y494611D01*
X259165Y494667D01*
X259125Y494723D01*
X259079Y494812D01*
X259011Y494884D01*
X258971Y494940D01*
X251487Y502424D01*
X251487Y513576D01*
X256115Y518204D01*
X256133Y518228D01*
X256155Y518247D01*
X256218Y518341D01*
X256286Y518431D01*
X256296Y518459D01*
X256313Y518483D01*
X256347Y518591D01*
X256387Y518697D01*
X256390Y518726D01*
X256398Y518754D01*
X256401Y518868D01*
X256411Y518980D01*
X256405Y519009D01*
X256406Y519038D01*
X256377Y519148D01*
X256355Y519259D01*
X256341Y519285D01*
X256334Y519313D01*
X256276Y519411D01*
X256224Y519511D01*
X256204Y519533D01*
X256189Y519558D01*
X256106Y519635D01*
X256028Y519717D01*
X256003Y519732D01*
X255981Y519752D01*
X255880Y519804D01*
X255783Y519861D01*
X255754Y519868D01*
X255728Y519882D01*
X255651Y519895D01*
X255507Y519931D01*
X255445Y519929D01*
X255397Y519937D01*
X253868Y519937D01*
X251361Y522445D01*
X251331Y522511D01*
X251293Y522556D01*
X251264Y522606D01*
X251202Y522664D01*
X251148Y522728D01*
X251099Y522760D01*
X251056Y522800D01*
X250981Y522839D01*
X250911Y522886D01*
X250855Y522903D01*
X250803Y522930D01*
X250735Y522941D01*
X250640Y522971D01*
X250540Y522974D01*
X250472Y522985D01*
X248134Y522985D01*
X248048Y522973D01*
X247960Y522970D01*
X247908Y522953D01*
X247853Y522945D01*
X247773Y522910D01*
X247690Y522883D01*
X247651Y522855D01*
X247594Y522829D01*
X247480Y522733D01*
X247417Y522688D01*
X220712Y495983D01*
X220660Y495914D01*
X220600Y495850D01*
X220574Y495800D01*
X220541Y495756D01*
X220510Y495675D01*
X220470Y495597D01*
X220462Y495549D01*
X220440Y495491D01*
X220428Y495343D01*
X220415Y495266D01*
X220415Y466701D01*
X220426Y466624D01*
X220427Y466546D01*
X220445Y466484D01*
X220455Y466419D01*
X220486Y466348D01*
X220509Y466274D01*
X220540Y466228D01*
X220571Y466160D01*
X220654Y466061D01*
X220698Y465997D01*
X286140Y397958D01*
X286171Y397934D01*
X286197Y397904D01*
X286283Y397846D01*
X286364Y397783D01*
X286400Y397768D01*
X286433Y397746D01*
X286532Y397715D01*
X286628Y397676D01*
X286667Y397672D01*
X286704Y397661D01*
X286807Y397658D01*
X286911Y397647D01*
X286949Y397654D01*
X286988Y397653D01*
X287088Y397679D01*
X287190Y397698D01*
X287226Y397715D01*
X287263Y397725D01*
X287352Y397778D01*
X287445Y397824D01*
X287474Y397850D01*
X287508Y397870D01*
X287579Y397946D01*
X287655Y398016D01*
X287675Y398049D01*
X287702Y398078D01*
X287749Y398170D01*
X287804Y398258D01*
X287814Y398296D01*
X287832Y398331D01*
X287845Y398407D01*
X287879Y398532D01*
X287878Y398607D01*
X287887Y398662D01*
X287887Y506415D01*
X288970Y509029D01*
X290971Y511030D01*
X293585Y512113D01*
X296415Y512113D01*
X299029Y511030D01*
X301030Y509029D01*
X301310Y508354D01*
X301368Y508255D01*
X301421Y508153D01*
X301440Y508133D01*
X301454Y508109D01*
X301538Y508030D01*
X301617Y507947D01*
X301641Y507933D01*
X301661Y507914D01*
X301763Y507861D01*
X301862Y507803D01*
X301889Y507796D01*
X301914Y507784D01*
X302026Y507761D01*
X302137Y507733D01*
X302165Y507734D01*
X302192Y507729D01*
X302307Y507738D01*
X302422Y507742D01*
X302448Y507751D01*
X302476Y507753D01*
X302583Y507794D01*
X302692Y507830D01*
X302712Y507844D01*
X302741Y507855D01*
X302953Y508015D01*
X302965Y508024D01*
X305971Y511030D01*
X308585Y512113D01*
X311415Y512113D01*
X314029Y511030D01*
X316030Y509029D01*
X317113Y506415D01*
X317113Y503585D01*
X316030Y500971D01*
X312410Y497351D01*
X312358Y497281D01*
X312298Y497217D01*
X312272Y497168D01*
X312239Y497124D01*
X312208Y497042D01*
X312168Y496964D01*
X312160Y496917D01*
X312138Y496858D01*
X312126Y496711D01*
X312113Y496633D01*
X312113Y403367D01*
X312125Y403280D01*
X312128Y403193D01*
X312145Y403140D01*
X312153Y403085D01*
X312188Y403005D01*
X312215Y402922D01*
X312243Y402883D01*
X312269Y402826D01*
X312365Y402713D01*
X312410Y402649D01*
X377649Y337410D01*
X377719Y337358D01*
X377783Y337298D01*
X377832Y337272D01*
X377876Y337239D01*
X377958Y337208D01*
X378036Y337168D01*
X378083Y337160D01*
X378142Y337138D01*
X378289Y337126D01*
X378367Y337113D01*
X391679Y337113D01*
X391764Y337125D01*
X391850Y337127D01*
X391904Y337145D01*
X391960Y337153D01*
X392038Y337188D01*
X392120Y337214D01*
X392168Y337246D01*
X392219Y337269D01*
X392285Y337324D01*
X392356Y337372D01*
X392393Y337416D01*
X392436Y337452D01*
X392484Y337524D01*
X392539Y337590D01*
X392563Y337642D01*
X392594Y337689D01*
X392620Y337771D01*
X392655Y337850D01*
X392663Y337906D01*
X392680Y337960D01*
X392682Y338046D01*
X392694Y338131D01*
X392686Y338187D01*
X392687Y338244D01*
X392665Y338327D01*
X392653Y338413D01*
X392630Y338464D01*
X392615Y338519D01*
X392572Y338593D01*
X392536Y338672D01*
X392499Y338715D01*
X392470Y338764D01*
X392407Y338823D01*
X392352Y338888D01*
X392310Y338914D01*
X392263Y338958D01*
X392134Y339024D01*
X392067Y339066D01*
X391259Y339401D01*
X374401Y356259D01*
X373395Y358686D01*
X373395Y496314D01*
X374401Y498741D01*
X381310Y505650D01*
X381384Y505694D01*
X381429Y505741D01*
X381469Y505770D01*
X382276Y506577D01*
X383417Y506577D01*
X383447Y506581D01*
X383478Y506579D01*
X383555Y506596D01*
X383615Y506605D01*
X386386Y506605D01*
X386470Y506583D01*
X386534Y506585D01*
X386583Y506577D01*
X387724Y506577D01*
X388531Y505770D01*
X388556Y505751D01*
X388576Y505728D01*
X388642Y505686D01*
X388647Y505683D01*
X388681Y505651D01*
X388699Y505642D01*
X390650Y503690D01*
X390694Y503616D01*
X390741Y503571D01*
X390770Y503531D01*
X391577Y502724D01*
X391577Y501583D01*
X391581Y501553D01*
X391579Y501522D01*
X391596Y501445D01*
X391605Y501385D01*
X391605Y498614D01*
X391583Y498530D01*
X391585Y498466D01*
X391577Y498417D01*
X391577Y497276D01*
X390770Y496469D01*
X390751Y496444D01*
X390728Y496424D01*
X390686Y496358D01*
X390650Y496309D01*
X386902Y492562D01*
X386850Y492492D01*
X386790Y492428D01*
X386764Y492378D01*
X386731Y492334D01*
X386700Y492253D01*
X386660Y492175D01*
X386652Y492127D01*
X386630Y492069D01*
X386618Y491921D01*
X386605Y491844D01*
X386605Y363156D01*
X386617Y363070D01*
X386620Y362982D01*
X386637Y362930D01*
X386645Y362875D01*
X386680Y362795D01*
X386707Y362712D01*
X386735Y362673D01*
X386761Y362615D01*
X386857Y362502D01*
X386902Y362438D01*
X397438Y351902D01*
X397508Y351850D01*
X397572Y351790D01*
X397622Y351764D01*
X397666Y351731D01*
X397747Y351700D01*
X397825Y351660D01*
X397873Y351652D01*
X397931Y351630D01*
X398079Y351618D01*
X398156Y351605D01*
X606844Y351605D01*
X606930Y351617D01*
X607018Y351620D01*
X607070Y351637D01*
X607125Y351645D01*
X607205Y351680D01*
X607288Y351707D01*
X607327Y351735D01*
X607385Y351761D01*
X607498Y351857D01*
X607562Y351902D01*
X664939Y409279D01*
X667366Y410285D01*
X732226Y410285D01*
X732312Y410297D01*
X732400Y410300D01*
X732453Y410317D01*
X732507Y410325D01*
X732587Y410360D01*
X732670Y410387D01*
X732710Y410415D01*
X732767Y410441D01*
X732880Y410537D01*
X732944Y410582D01*
X739758Y417397D01*
X751122Y417397D01*
X759157Y409362D01*
X759157Y397998D01*
X751779Y390620D01*
X751744Y390574D01*
X751701Y390533D01*
X751658Y390460D01*
X751608Y390393D01*
X751587Y390338D01*
X751557Y390288D01*
X751537Y390206D01*
X751507Y390127D01*
X751502Y390069D01*
X751487Y390012D01*
X751490Y389928D01*
X751483Y389844D01*
X751494Y389787D01*
X751496Y389728D01*
X751522Y389648D01*
X751539Y389565D01*
X751566Y389513D01*
X751584Y389458D01*
X751624Y389402D01*
X751670Y389313D01*
X751739Y389241D01*
X751779Y389185D01*
X757633Y383330D01*
X757633Y380311D01*
X746456Y380311D01*
X746398Y380303D01*
X746340Y380305D01*
X746258Y380283D01*
X746175Y380271D01*
X746121Y380247D01*
X746065Y380233D01*
X745992Y380190D01*
X745915Y380155D01*
X745871Y380117D01*
X745820Y380087D01*
X745763Y380026D01*
X745698Y379971D01*
X745666Y379923D01*
X745626Y379880D01*
X745587Y379805D01*
X745541Y379735D01*
X745523Y379679D01*
X745496Y379627D01*
X745485Y379559D01*
X745455Y379464D01*
X745452Y379364D01*
X745441Y379296D01*
X745441Y377264D01*
X745449Y377206D01*
X745448Y377148D01*
X745469Y377066D01*
X745481Y376983D01*
X745505Y376929D01*
X745519Y376873D01*
X745562Y376800D01*
X745597Y376723D01*
X745635Y376678D01*
X745665Y376628D01*
X745726Y376570D01*
X745781Y376506D01*
X745829Y376474D01*
X745872Y376434D01*
X745947Y376395D01*
X746017Y376349D01*
X746073Y376331D01*
X746125Y376304D01*
X746193Y376293D01*
X746288Y376263D01*
X746388Y376260D01*
X746456Y376249D01*
X757633Y376249D01*
X757633Y373230D01*
X751779Y367375D01*
X751744Y367329D01*
X751701Y367288D01*
X751658Y367216D01*
X751608Y367148D01*
X751587Y367094D01*
X751557Y367043D01*
X751537Y366962D01*
X751507Y366883D01*
X751502Y366824D01*
X751487Y366768D01*
X751490Y366683D01*
X751483Y366599D01*
X751494Y366542D01*
X751496Y366484D01*
X751522Y366403D01*
X751539Y366321D01*
X751566Y366269D01*
X751584Y366213D01*
X751624Y366157D01*
X751670Y366068D01*
X751739Y365996D01*
X751779Y365940D01*
X759157Y358562D01*
X759157Y347198D01*
X751122Y339163D01*
X739758Y339163D01*
X731723Y347198D01*
X731723Y358562D01*
X739101Y365940D01*
X739136Y365986D01*
X739179Y366027D01*
X739222Y366100D01*
X739272Y366167D01*
X739293Y366222D01*
X739323Y366272D01*
X739343Y366354D01*
X739373Y366433D01*
X739378Y366491D01*
X739393Y366548D01*
X739390Y366632D01*
X739397Y366716D01*
X739386Y366773D01*
X739384Y366832D01*
X739358Y366912D01*
X739341Y366995D01*
X739314Y367047D01*
X739296Y367102D01*
X739256Y367158D01*
X739210Y367247D01*
X739141Y367319D01*
X739101Y367375D01*
X733247Y373230D01*
X733247Y376249D01*
X744424Y376249D01*
X744482Y376257D01*
X744540Y376255D01*
X744622Y376277D01*
X744705Y376289D01*
X744759Y376313D01*
X744815Y376327D01*
X744888Y376370D01*
X744965Y376405D01*
X745009Y376443D01*
X745060Y376473D01*
X745117Y376534D01*
X745182Y376589D01*
X745214Y376637D01*
X745254Y376680D01*
X745293Y376755D01*
X745339Y376825D01*
X745357Y376881D01*
X745384Y376933D01*
X745395Y377001D01*
X745425Y377096D01*
X745428Y377196D01*
X745439Y377264D01*
X745439Y379296D01*
X745431Y379354D01*
X745432Y379412D01*
X745411Y379494D01*
X745399Y379577D01*
X745375Y379631D01*
X745361Y379687D01*
X745318Y379760D01*
X745283Y379837D01*
X745245Y379882D01*
X745215Y379932D01*
X745154Y379990D01*
X745099Y380054D01*
X745051Y380086D01*
X745008Y380126D01*
X744933Y380165D01*
X744863Y380211D01*
X744807Y380229D01*
X744755Y380256D01*
X744687Y380267D01*
X744592Y380297D01*
X744492Y380300D01*
X744424Y380311D01*
X733247Y380311D01*
X733247Y383330D01*
X739101Y389185D01*
X739136Y389231D01*
X739179Y389271D01*
X739222Y389344D01*
X739272Y389412D01*
X739293Y389466D01*
X739323Y389517D01*
X739343Y389598D01*
X739373Y389677D01*
X739378Y389736D01*
X739393Y389792D01*
X739390Y389877D01*
X739397Y389961D01*
X739386Y390018D01*
X739384Y390076D01*
X739358Y390157D01*
X739341Y390239D01*
X739314Y390291D01*
X739296Y390347D01*
X739256Y390403D01*
X739210Y390492D01*
X739141Y390564D01*
X739101Y390620D01*
X732944Y396778D01*
X732874Y396830D01*
X732810Y396890D01*
X732761Y396916D01*
X732717Y396949D01*
X732635Y396980D01*
X732557Y397020D01*
X732509Y397028D01*
X732451Y397050D01*
X732303Y397062D01*
X732226Y397075D01*
X671836Y397075D01*
X671750Y397063D01*
X671662Y397060D01*
X671610Y397043D01*
X671555Y397035D01*
X671475Y397000D01*
X671392Y396973D01*
X671353Y396945D01*
X671295Y396919D01*
X671182Y396823D01*
X671118Y396778D01*
X613741Y339401D01*
X611314Y338395D01*
X588422Y338395D01*
X588337Y338383D01*
X588252Y338381D01*
X588197Y338363D01*
X588141Y338355D01*
X588063Y338320D01*
X587981Y338294D01*
X587933Y338262D01*
X587882Y338239D01*
X587816Y338184D01*
X587745Y338136D01*
X587708Y338092D01*
X587665Y338056D01*
X587617Y337984D01*
X587562Y337918D01*
X587539Y337866D01*
X587507Y337819D01*
X587481Y337737D01*
X587446Y337658D01*
X587438Y337602D01*
X587421Y337548D01*
X587419Y337462D01*
X587407Y337377D01*
X587415Y337321D01*
X587414Y337264D01*
X587436Y337181D01*
X587448Y337095D01*
X587471Y337044D01*
X587486Y336989D01*
X587530Y336915D01*
X587565Y336836D01*
X587602Y336793D01*
X587631Y336744D01*
X587694Y336685D01*
X587749Y336620D01*
X587791Y336594D01*
X587838Y336550D01*
X587967Y336484D01*
X588034Y336442D01*
X589029Y336030D01*
X666030Y259029D01*
X667113Y256415D01*
X667113Y253585D01*
X666030Y250971D01*
X664029Y248970D01*
X663354Y248690D01*
X663255Y248632D01*
X663153Y248579D01*
X663133Y248560D01*
X663109Y248546D01*
X663030Y248462D01*
X662947Y248383D01*
X662933Y248359D01*
X662914Y248339D01*
X662861Y248237D01*
X662803Y248138D01*
X662796Y248111D01*
X662784Y248086D01*
X662761Y247974D01*
X662733Y247863D01*
X662734Y247835D01*
X662729Y247808D01*
X662738Y247693D01*
X662742Y247578D01*
X662751Y247552D01*
X662753Y247524D01*
X662794Y247417D01*
X662830Y247308D01*
X662844Y247288D01*
X662855Y247259D01*
X663015Y247047D01*
X663024Y247035D01*
X667649Y242410D01*
X667719Y242358D01*
X667783Y242298D01*
X667832Y242272D01*
X667876Y242239D01*
X667958Y242208D01*
X668036Y242168D01*
X668083Y242160D01*
X668142Y242138D01*
X668289Y242126D01*
X668367Y242113D01*
X686633Y242113D01*
X686720Y242125D01*
X686807Y242128D01*
X686860Y242145D01*
X686915Y242153D01*
X686995Y242188D01*
X687078Y242215D01*
X687117Y242243D01*
X687174Y242269D01*
X687287Y242365D01*
X687351Y242410D01*
X702590Y257649D01*
X702642Y257719D01*
X702702Y257783D01*
X702728Y257832D01*
X702761Y257876D01*
X702792Y257958D01*
X702832Y258036D01*
X702840Y258083D01*
X702862Y258142D01*
X702874Y258289D01*
X702887Y258367D01*
X702887Y291415D01*
X703970Y294029D01*
X715971Y306030D01*
X718585Y307113D01*
X731415Y307113D01*
X734029Y306030D01*
X736030Y304029D01*
X737113Y301415D01*
X737113Y298585D01*
X736030Y295971D01*
X734029Y293970D01*
X731415Y292887D01*
X723367Y292887D01*
X723280Y292875D01*
X723193Y292872D01*
X723140Y292855D01*
X723085Y292847D01*
X723005Y292812D01*
X722922Y292785D01*
X722883Y292757D01*
X722826Y292731D01*
X722713Y292635D01*
X722649Y292590D01*
X717410Y287351D01*
X717358Y287281D01*
X717298Y287217D01*
X717272Y287168D01*
X717239Y287124D01*
X717208Y287042D01*
X717168Y286964D01*
X717160Y286917D01*
X717138Y286858D01*
X717126Y286711D01*
X717113Y286633D01*
X717113Y253585D01*
X716030Y250971D01*
X694029Y228970D01*
X691415Y227887D01*
X663585Y227887D01*
X660971Y228970D01*
X658827Y231114D01*
X595878Y294063D01*
X595854Y294081D01*
X595835Y294103D01*
X595741Y294166D01*
X595651Y294234D01*
X595623Y294245D01*
X595599Y294261D01*
X595491Y294295D01*
X595385Y294335D01*
X595356Y294338D01*
X595328Y294347D01*
X595214Y294350D01*
X595102Y294359D01*
X595073Y294353D01*
X595044Y294354D01*
X594934Y294325D01*
X594823Y294303D01*
X594797Y294289D01*
X594769Y294282D01*
X594671Y294224D01*
X594571Y294172D01*
X594549Y294152D01*
X594524Y294137D01*
X594447Y294054D01*
X594365Y293976D01*
X594350Y293951D01*
X594330Y293930D01*
X594278Y293829D01*
X594221Y293731D01*
X594214Y293703D01*
X594200Y293676D01*
X594187Y293599D01*
X594151Y293455D01*
X594153Y293393D01*
X594145Y293345D01*
X594145Y285681D01*
X592753Y282320D01*
X590037Y279605D01*
X519442Y209009D01*
X519390Y208940D01*
X519330Y208876D01*
X519304Y208826D01*
X519271Y208782D01*
X519240Y208701D01*
X519200Y208623D01*
X519192Y208575D01*
X519170Y208517D01*
X519158Y208369D01*
X519145Y208292D01*
X519145Y158181D01*
X517753Y154820D01*
X515037Y152105D01*
X500180Y137247D01*
X496819Y135855D01*
X465681Y135855D01*
G37*
%LPD*%
%LPC*%
G36*
X844634Y648545D02*
X844634Y648545D01*
X837045Y656134D01*
X837045Y666866D01*
X843661Y673482D01*
X843696Y673529D01*
X843739Y673569D01*
X843782Y673642D01*
X843832Y673709D01*
X843853Y673764D01*
X843883Y673814D01*
X843903Y673896D01*
X843933Y673975D01*
X843938Y674033D01*
X843953Y674090D01*
X843950Y674174D01*
X843957Y674258D01*
X843946Y674316D01*
X843944Y674374D01*
X843918Y674454D01*
X843901Y674537D01*
X843874Y674589D01*
X843856Y674645D01*
X843816Y674701D01*
X843770Y674789D01*
X843701Y674862D01*
X843661Y674918D01*
X837045Y681534D01*
X837045Y692266D01*
X843661Y698882D01*
X843696Y698929D01*
X843739Y698969D01*
X843782Y699042D01*
X843832Y699109D01*
X843853Y699164D01*
X843883Y699214D01*
X843903Y699296D01*
X843933Y699375D01*
X843938Y699433D01*
X843953Y699490D01*
X843950Y699574D01*
X843957Y699658D01*
X843946Y699716D01*
X843944Y699774D01*
X843918Y699854D01*
X843901Y699937D01*
X843874Y699989D01*
X843856Y700045D01*
X843816Y700101D01*
X843770Y700189D01*
X843701Y700262D01*
X843661Y700318D01*
X837045Y706934D01*
X837045Y717666D01*
X843661Y724282D01*
X843696Y724329D01*
X843739Y724369D01*
X843782Y724442D01*
X843832Y724509D01*
X843853Y724564D01*
X843883Y724614D01*
X843903Y724696D01*
X843933Y724775D01*
X843938Y724833D01*
X843953Y724890D01*
X843950Y724974D01*
X843957Y725058D01*
X843946Y725116D01*
X843944Y725174D01*
X843918Y725254D01*
X843901Y725337D01*
X843874Y725389D01*
X843856Y725445D01*
X843816Y725501D01*
X843770Y725589D01*
X843701Y725662D01*
X843661Y725718D01*
X837045Y732334D01*
X837045Y743066D01*
X843661Y749682D01*
X843696Y749729D01*
X843739Y749769D01*
X843782Y749842D01*
X843832Y749909D01*
X843853Y749964D01*
X843883Y750014D01*
X843903Y750096D01*
X843933Y750175D01*
X843938Y750233D01*
X843953Y750290D01*
X843950Y750374D01*
X843957Y750458D01*
X843946Y750516D01*
X843944Y750574D01*
X843918Y750654D01*
X843901Y750737D01*
X843874Y750789D01*
X843856Y750845D01*
X843816Y750901D01*
X843770Y750989D01*
X843701Y751062D01*
X843661Y751118D01*
X837045Y757734D01*
X837045Y768466D01*
X844739Y776160D01*
X844774Y776206D01*
X844817Y776247D01*
X844859Y776320D01*
X844910Y776387D01*
X844931Y776442D01*
X844960Y776492D01*
X844981Y776574D01*
X845011Y776653D01*
X845016Y776711D01*
X845030Y776768D01*
X845028Y776852D01*
X845035Y776936D01*
X845023Y776993D01*
X845021Y777052D01*
X844995Y777132D01*
X844979Y777215D01*
X844952Y777267D01*
X844934Y777322D01*
X844894Y777378D01*
X844848Y777467D01*
X844779Y777539D01*
X844739Y777595D01*
X838569Y783765D01*
X838569Y786469D01*
X848984Y786469D01*
X849042Y786477D01*
X849100Y786475D01*
X849182Y786497D01*
X849265Y786509D01*
X849319Y786533D01*
X849375Y786547D01*
X849448Y786590D01*
X849525Y786625D01*
X849569Y786663D01*
X849620Y786693D01*
X849677Y786754D01*
X849742Y786809D01*
X849774Y786857D01*
X849814Y786900D01*
X849853Y786975D01*
X849899Y787045D01*
X849917Y787101D01*
X849944Y787153D01*
X849955Y787221D01*
X849985Y787316D01*
X849988Y787416D01*
X849999Y787484D01*
X849999Y788501D01*
X850001Y788501D01*
X850001Y787484D01*
X850009Y787426D01*
X850008Y787368D01*
X850029Y787286D01*
X850041Y787203D01*
X850065Y787149D01*
X850079Y787093D01*
X850122Y787020D01*
X850157Y786943D01*
X850195Y786898D01*
X850225Y786848D01*
X850286Y786790D01*
X850341Y786726D01*
X850389Y786694D01*
X850432Y786654D01*
X850507Y786615D01*
X850577Y786569D01*
X850633Y786551D01*
X850685Y786524D01*
X850753Y786513D01*
X850848Y786483D01*
X850948Y786480D01*
X851016Y786469D01*
X861431Y786469D01*
X861431Y783765D01*
X855261Y777595D01*
X855226Y777549D01*
X855183Y777508D01*
X855141Y777436D01*
X855090Y777368D01*
X855069Y777314D01*
X855040Y777263D01*
X855019Y777182D01*
X854989Y777103D01*
X854984Y777044D01*
X854970Y776988D01*
X854972Y776903D01*
X854965Y776819D01*
X854977Y776762D01*
X854979Y776704D01*
X855005Y776623D01*
X855021Y776541D01*
X855048Y776489D01*
X855066Y776433D01*
X855106Y776377D01*
X855152Y776288D01*
X855221Y776216D01*
X855261Y776160D01*
X862955Y768466D01*
X862955Y757734D01*
X856339Y751118D01*
X856304Y751071D01*
X856261Y751031D01*
X856218Y750958D01*
X856168Y750891D01*
X856147Y750836D01*
X856117Y750786D01*
X856097Y750704D01*
X856067Y750625D01*
X856062Y750567D01*
X856047Y750510D01*
X856050Y750426D01*
X856043Y750342D01*
X856054Y750284D01*
X856056Y750226D01*
X856082Y750146D01*
X856099Y750063D01*
X856126Y750011D01*
X856144Y749955D01*
X856184Y749899D01*
X856230Y749811D01*
X856299Y749738D01*
X856339Y749682D01*
X862955Y743066D01*
X862955Y732334D01*
X856339Y725718D01*
X856304Y725671D01*
X856261Y725631D01*
X856218Y725558D01*
X856168Y725491D01*
X856147Y725436D01*
X856117Y725386D01*
X856097Y725304D01*
X856067Y725225D01*
X856062Y725167D01*
X856047Y725110D01*
X856050Y725026D01*
X856043Y724942D01*
X856054Y724884D01*
X856056Y724826D01*
X856082Y724746D01*
X856099Y724663D01*
X856126Y724611D01*
X856144Y724555D01*
X856184Y724499D01*
X856230Y724411D01*
X856299Y724338D01*
X856339Y724282D01*
X862955Y717666D01*
X862955Y706934D01*
X856339Y700318D01*
X856304Y700271D01*
X856261Y700231D01*
X856218Y700158D01*
X856168Y700091D01*
X856147Y700036D01*
X856117Y699986D01*
X856097Y699904D01*
X856067Y699825D01*
X856062Y699767D01*
X856047Y699710D01*
X856050Y699626D01*
X856043Y699542D01*
X856054Y699484D01*
X856056Y699426D01*
X856082Y699346D01*
X856099Y699263D01*
X856126Y699211D01*
X856144Y699155D01*
X856184Y699099D01*
X856230Y699011D01*
X856299Y698938D01*
X856339Y698882D01*
X862955Y692266D01*
X862955Y681534D01*
X856339Y674918D01*
X856304Y674871D01*
X856261Y674831D01*
X856218Y674758D01*
X856168Y674691D01*
X856147Y674636D01*
X856117Y674586D01*
X856097Y674504D01*
X856067Y674425D01*
X856062Y674367D01*
X856047Y674310D01*
X856050Y674226D01*
X856043Y674142D01*
X856054Y674084D01*
X856056Y674026D01*
X856082Y673946D01*
X856099Y673863D01*
X856126Y673811D01*
X856144Y673755D01*
X856184Y673699D01*
X856230Y673611D01*
X856299Y673538D01*
X856339Y673482D01*
X862955Y666866D01*
X862955Y656134D01*
X855366Y648545D01*
X844634Y648545D01*
G37*
%LPD*%
%LPC*%
G36*
X738318Y477783D02*
X738318Y477783D01*
X730283Y485818D01*
X730283Y497182D01*
X736584Y503482D01*
X736619Y503529D01*
X736661Y503569D01*
X736704Y503642D01*
X736755Y503709D01*
X736775Y503764D01*
X736805Y503814D01*
X736826Y503896D01*
X736856Y503975D01*
X736861Y504033D01*
X736875Y504090D01*
X736872Y504174D01*
X736879Y504258D01*
X736868Y504316D01*
X736866Y504374D01*
X736840Y504454D01*
X736824Y504537D01*
X736797Y504589D01*
X736779Y504645D01*
X736739Y504701D01*
X736693Y504789D01*
X736624Y504862D01*
X736584Y504918D01*
X730283Y511218D01*
X730283Y522582D01*
X737661Y529960D01*
X737696Y530006D01*
X737739Y530047D01*
X737782Y530120D01*
X737832Y530187D01*
X737853Y530242D01*
X737883Y530292D01*
X737903Y530374D01*
X737933Y530453D01*
X737938Y530511D01*
X737953Y530568D01*
X737950Y530652D01*
X737957Y530736D01*
X737946Y530793D01*
X737944Y530852D01*
X737918Y530932D01*
X737901Y531015D01*
X737874Y531067D01*
X737856Y531122D01*
X737816Y531178D01*
X737770Y531267D01*
X737701Y531339D01*
X737661Y531395D01*
X731807Y537250D01*
X731807Y540269D01*
X742984Y540269D01*
X743042Y540277D01*
X743100Y540275D01*
X743182Y540297D01*
X743265Y540309D01*
X743319Y540333D01*
X743375Y540347D01*
X743448Y540390D01*
X743525Y540425D01*
X743569Y540463D01*
X743620Y540493D01*
X743677Y540554D01*
X743742Y540609D01*
X743774Y540657D01*
X743814Y540700D01*
X743853Y540775D01*
X743899Y540845D01*
X743917Y540901D01*
X743944Y540953D01*
X743955Y541021D01*
X743985Y541116D01*
X743988Y541216D01*
X743999Y541284D01*
X743999Y543316D01*
X743991Y543374D01*
X743992Y543432D01*
X743971Y543514D01*
X743959Y543597D01*
X743935Y543651D01*
X743921Y543707D01*
X743878Y543780D01*
X743843Y543857D01*
X743805Y543902D01*
X743775Y543952D01*
X743714Y544010D01*
X743659Y544074D01*
X743611Y544106D01*
X743568Y544146D01*
X743493Y544185D01*
X743423Y544231D01*
X743367Y544249D01*
X743315Y544276D01*
X743247Y544287D01*
X743152Y544317D01*
X743052Y544320D01*
X742984Y544331D01*
X731807Y544331D01*
X731807Y547350D01*
X737661Y553204D01*
X737696Y553251D01*
X737739Y553291D01*
X737782Y553364D01*
X737832Y553432D01*
X737853Y553486D01*
X737883Y553537D01*
X737903Y553618D01*
X737933Y553697D01*
X737938Y553756D01*
X737953Y553812D01*
X737950Y553897D01*
X737957Y553981D01*
X737946Y554038D01*
X737944Y554096D01*
X737918Y554177D01*
X737901Y554259D01*
X737874Y554311D01*
X737856Y554367D01*
X737816Y554423D01*
X737770Y554512D01*
X737701Y554584D01*
X737661Y554640D01*
X730283Y562018D01*
X730283Y573382D01*
X738318Y581417D01*
X749682Y581417D01*
X757717Y573382D01*
X757717Y562018D01*
X750339Y554640D01*
X750304Y554594D01*
X750261Y554553D01*
X750218Y554480D01*
X750168Y554413D01*
X750147Y554358D01*
X750117Y554308D01*
X750097Y554226D01*
X750067Y554147D01*
X750062Y554089D01*
X750047Y554032D01*
X750050Y553948D01*
X750043Y553864D01*
X750054Y553807D01*
X750056Y553748D01*
X750082Y553668D01*
X750099Y553585D01*
X750126Y553533D01*
X750144Y553478D01*
X750184Y553422D01*
X750230Y553333D01*
X750299Y553261D01*
X750339Y553204D01*
X756193Y547350D01*
X756193Y544331D01*
X745016Y544331D01*
X744958Y544323D01*
X744900Y544325D01*
X744818Y544303D01*
X744735Y544291D01*
X744681Y544267D01*
X744625Y544253D01*
X744552Y544210D01*
X744475Y544175D01*
X744431Y544137D01*
X744380Y544107D01*
X744323Y544046D01*
X744258Y543991D01*
X744226Y543943D01*
X744186Y543900D01*
X744147Y543825D01*
X744101Y543755D01*
X744083Y543699D01*
X744056Y543647D01*
X744045Y543579D01*
X744015Y543484D01*
X744012Y543384D01*
X744001Y543316D01*
X744001Y541284D01*
X744009Y541226D01*
X744008Y541168D01*
X744029Y541086D01*
X744041Y541003D01*
X744065Y540949D01*
X744079Y540893D01*
X744122Y540820D01*
X744157Y540743D01*
X744195Y540698D01*
X744225Y540648D01*
X744286Y540590D01*
X744341Y540526D01*
X744389Y540494D01*
X744432Y540454D01*
X744507Y540415D01*
X744577Y540369D01*
X744633Y540351D01*
X744685Y540324D01*
X744753Y540313D01*
X744848Y540283D01*
X744948Y540280D01*
X745016Y540269D01*
X756193Y540269D01*
X756193Y537250D01*
X750339Y531395D01*
X750304Y531349D01*
X750261Y531308D01*
X750218Y531236D01*
X750168Y531168D01*
X750147Y531114D01*
X750117Y531063D01*
X750097Y530982D01*
X750067Y530903D01*
X750062Y530844D01*
X750047Y530788D01*
X750050Y530703D01*
X750043Y530619D01*
X750054Y530562D01*
X750056Y530504D01*
X750082Y530423D01*
X750099Y530341D01*
X750126Y530289D01*
X750144Y530233D01*
X750184Y530177D01*
X750230Y530088D01*
X750299Y530016D01*
X750339Y529960D01*
X757717Y522582D01*
X757717Y511218D01*
X751416Y504918D01*
X751381Y504871D01*
X751339Y504831D01*
X751296Y504758D01*
X751245Y504691D01*
X751225Y504636D01*
X751195Y504586D01*
X751174Y504504D01*
X751144Y504425D01*
X751139Y504367D01*
X751125Y504310D01*
X751128Y504226D01*
X751121Y504142D01*
X751132Y504084D01*
X751134Y504026D01*
X751160Y503946D01*
X751176Y503863D01*
X751203Y503811D01*
X751221Y503755D01*
X751261Y503699D01*
X751307Y503611D01*
X751376Y503538D01*
X751416Y503482D01*
X757717Y497182D01*
X757717Y485818D01*
X749682Y477783D01*
X738318Y477783D01*
G37*
%LPD*%
G36*
X418628Y870423D02*
X418628Y870423D01*
X418686Y870421D01*
X418768Y870443D01*
X418852Y870455D01*
X418905Y870478D01*
X418961Y870493D01*
X419034Y870536D01*
X419111Y870571D01*
X419156Y870609D01*
X419206Y870638D01*
X419264Y870700D01*
X419328Y870754D01*
X419360Y870803D01*
X419400Y870846D01*
X419439Y870921D01*
X419486Y870991D01*
X419503Y871047D01*
X419530Y871099D01*
X419541Y871167D01*
X419571Y871262D01*
X419574Y871362D01*
X419585Y871430D01*
X419585Y874300D01*
X419580Y874339D01*
X419582Y874378D01*
X419560Y874479D01*
X419545Y874582D01*
X419529Y874618D01*
X419521Y874656D01*
X419472Y874747D01*
X419429Y874841D01*
X419404Y874871D01*
X419385Y874905D01*
X419312Y874979D01*
X419246Y875058D01*
X419213Y875080D01*
X419186Y875108D01*
X419095Y875158D01*
X419009Y875216D01*
X418972Y875228D01*
X418938Y875247D01*
X418837Y875270D01*
X418738Y875302D01*
X418699Y875303D01*
X418661Y875312D01*
X418557Y875306D01*
X418454Y875309D01*
X418416Y875299D01*
X418377Y875297D01*
X418304Y875270D01*
X418179Y875237D01*
X418115Y875199D01*
X418062Y875180D01*
X417981Y875132D01*
X417334Y874959D01*
X412531Y874959D01*
X412531Y883984D01*
X412523Y884042D01*
X412524Y884100D01*
X412503Y884182D01*
X412491Y884265D01*
X412467Y884319D01*
X412453Y884375D01*
X412410Y884448D01*
X412375Y884525D01*
X412337Y884569D01*
X412307Y884620D01*
X412246Y884677D01*
X412191Y884742D01*
X412143Y884774D01*
X412100Y884814D01*
X412025Y884853D01*
X411955Y884899D01*
X411899Y884917D01*
X411847Y884944D01*
X411779Y884955D01*
X411684Y884985D01*
X411584Y884988D01*
X411516Y884999D01*
X410499Y884999D01*
X410499Y885001D01*
X411516Y885001D01*
X411574Y885009D01*
X411632Y885008D01*
X411714Y885029D01*
X411797Y885041D01*
X411851Y885065D01*
X411907Y885079D01*
X411980Y885122D01*
X412057Y885157D01*
X412101Y885195D01*
X412152Y885225D01*
X412209Y885286D01*
X412274Y885341D01*
X412306Y885389D01*
X412346Y885432D01*
X412385Y885507D01*
X412431Y885577D01*
X412449Y885633D01*
X412476Y885685D01*
X412487Y885753D01*
X412517Y885848D01*
X412520Y885948D01*
X412531Y886016D01*
X412531Y895041D01*
X417334Y895041D01*
X417807Y894914D01*
X417856Y894908D01*
X417902Y894893D01*
X417996Y894891D01*
X418089Y894880D01*
X418138Y894887D01*
X418186Y894886D01*
X418277Y894910D01*
X418370Y894925D01*
X418414Y894946D01*
X418461Y894958D01*
X418542Y895006D01*
X418627Y895046D01*
X418664Y895078D01*
X418706Y895103D01*
X418770Y895172D01*
X418841Y895234D01*
X418867Y895275D01*
X418900Y895311D01*
X418943Y895394D01*
X418994Y895473D01*
X419008Y895520D01*
X419030Y895564D01*
X419042Y895637D01*
X419074Y895746D01*
X419075Y895833D01*
X419085Y895895D01*
X419085Y899105D01*
X419078Y899154D01*
X419081Y899202D01*
X419059Y899294D01*
X419045Y899387D01*
X419025Y899431D01*
X419014Y899479D01*
X418968Y899560D01*
X418929Y899646D01*
X418898Y899683D01*
X418874Y899726D01*
X418806Y899792D01*
X418746Y899863D01*
X418705Y899890D01*
X418670Y899924D01*
X418587Y899969D01*
X418509Y900021D01*
X418462Y900036D01*
X418419Y900059D01*
X418327Y900078D01*
X418238Y900107D01*
X418189Y900108D01*
X418141Y900118D01*
X418067Y900111D01*
X417954Y900114D01*
X417870Y900092D01*
X417807Y900086D01*
X417334Y899959D01*
X412531Y899959D01*
X412531Y908984D01*
X412523Y909042D01*
X412524Y909100D01*
X412503Y909182D01*
X412491Y909265D01*
X412467Y909319D01*
X412453Y909375D01*
X412410Y909448D01*
X412375Y909525D01*
X412337Y909569D01*
X412307Y909620D01*
X412246Y909677D01*
X412191Y909742D01*
X412143Y909774D01*
X412100Y909814D01*
X412025Y909853D01*
X411955Y909899D01*
X411899Y909917D01*
X411847Y909944D01*
X411779Y909955D01*
X411684Y909985D01*
X411584Y909988D01*
X411516Y909999D01*
X410499Y909999D01*
X410499Y910001D01*
X411516Y910001D01*
X411574Y910009D01*
X411632Y910008D01*
X411714Y910029D01*
X411797Y910041D01*
X411851Y910065D01*
X411907Y910079D01*
X411980Y910122D01*
X412057Y910157D01*
X412101Y910195D01*
X412152Y910225D01*
X412209Y910286D01*
X412274Y910341D01*
X412306Y910389D01*
X412346Y910432D01*
X412385Y910507D01*
X412431Y910577D01*
X412449Y910633D01*
X412476Y910685D01*
X412487Y910753D01*
X412517Y910848D01*
X412520Y910948D01*
X412531Y911016D01*
X412531Y920041D01*
X417334Y920041D01*
X417981Y919868D01*
X418345Y919657D01*
X418408Y919632D01*
X418467Y919597D01*
X418539Y919579D01*
X418608Y919551D01*
X418676Y919544D01*
X418742Y919527D01*
X418817Y919530D01*
X418891Y919522D01*
X418958Y919534D01*
X419026Y919536D01*
X419098Y919559D01*
X419171Y919573D01*
X419232Y919603D01*
X419297Y919624D01*
X419348Y919660D01*
X419426Y919699D01*
X419510Y919776D01*
X419570Y919819D01*
X421316Y921565D01*
X427712Y921565D01*
X427798Y921577D01*
X427886Y921580D01*
X427938Y921597D01*
X427993Y921605D01*
X428073Y921640D01*
X428156Y921667D01*
X428195Y921695D01*
X428252Y921721D01*
X428366Y921817D01*
X428429Y921862D01*
X432320Y925753D01*
X435681Y927145D01*
X443420Y927145D01*
X443478Y927153D01*
X443536Y927151D01*
X443618Y927173D01*
X443702Y927185D01*
X443755Y927208D01*
X443811Y927223D01*
X443884Y927266D01*
X443961Y927301D01*
X444006Y927339D01*
X444056Y927368D01*
X444114Y927430D01*
X444178Y927484D01*
X444210Y927533D01*
X444250Y927576D01*
X444289Y927651D01*
X444336Y927721D01*
X444353Y927777D01*
X444380Y927829D01*
X444391Y927897D01*
X444421Y927992D01*
X444424Y928092D01*
X444435Y928160D01*
X444435Y946684D01*
X445604Y947852D01*
X445621Y947876D01*
X445644Y947895D01*
X445707Y947989D01*
X445775Y948079D01*
X445785Y948107D01*
X445801Y948131D01*
X445836Y948239D01*
X445876Y948345D01*
X445878Y948374D01*
X445887Y948402D01*
X445890Y948516D01*
X445899Y948628D01*
X445894Y948657D01*
X445894Y948686D01*
X445866Y948796D01*
X445844Y948907D01*
X445830Y948933D01*
X445823Y948961D01*
X445765Y949059D01*
X445713Y949159D01*
X445692Y949181D01*
X445677Y949206D01*
X445595Y949283D01*
X445517Y949365D01*
X445491Y949380D01*
X445470Y949400D01*
X445369Y949452D01*
X445271Y949509D01*
X445243Y949516D01*
X445217Y949530D01*
X445140Y949543D01*
X444996Y949579D01*
X444933Y949577D01*
X444886Y949585D01*
X419734Y949585D01*
X419648Y949573D01*
X419560Y949570D01*
X419508Y949553D01*
X419453Y949545D01*
X419373Y949510D01*
X419290Y949483D01*
X419251Y949455D01*
X419194Y949429D01*
X419080Y949333D01*
X419017Y949288D01*
X395712Y925983D01*
X395660Y925914D01*
X395600Y925850D01*
X395574Y925800D01*
X395541Y925756D01*
X395510Y925675D01*
X395470Y925597D01*
X395462Y925549D01*
X395440Y925491D01*
X395428Y925343D01*
X395415Y925266D01*
X395415Y924254D01*
X395427Y924168D01*
X395430Y924080D01*
X395447Y924027D01*
X395455Y923973D01*
X395490Y923893D01*
X395517Y923810D01*
X395545Y923770D01*
X395571Y923713D01*
X395667Y923600D01*
X395712Y923536D01*
X396565Y922684D01*
X396565Y906316D01*
X395966Y905718D01*
X395931Y905671D01*
X395889Y905631D01*
X395846Y905558D01*
X395795Y905491D01*
X395775Y905436D01*
X395745Y905386D01*
X395724Y905304D01*
X395694Y905225D01*
X395689Y905167D01*
X395675Y905110D01*
X395678Y905026D01*
X395671Y904942D01*
X395682Y904884D01*
X395684Y904826D01*
X395710Y904746D01*
X395726Y904663D01*
X395753Y904611D01*
X395771Y904555D01*
X395812Y904499D01*
X395857Y904411D01*
X395926Y904338D01*
X395966Y904282D01*
X396565Y903684D01*
X396565Y887316D01*
X394184Y884935D01*
X375816Y884935D01*
X373435Y887316D01*
X373435Y888388D01*
X373427Y888446D01*
X373429Y888504D01*
X373407Y888586D01*
X373395Y888670D01*
X373372Y888723D01*
X373357Y888779D01*
X373314Y888852D01*
X373279Y888929D01*
X373241Y888974D01*
X373212Y889024D01*
X373150Y889082D01*
X373096Y889146D01*
X373047Y889178D01*
X373004Y889218D01*
X372929Y889257D01*
X372859Y889304D01*
X372803Y889321D01*
X372751Y889348D01*
X372683Y889359D01*
X372588Y889389D01*
X372488Y889392D01*
X372420Y889403D01*
X367580Y889403D01*
X367522Y889395D01*
X367464Y889397D01*
X367382Y889375D01*
X367298Y889363D01*
X367245Y889340D01*
X367189Y889325D01*
X367116Y889282D01*
X367039Y889247D01*
X366994Y889209D01*
X366944Y889180D01*
X366886Y889118D01*
X366822Y889064D01*
X366790Y889015D01*
X366750Y888972D01*
X366711Y888897D01*
X366664Y888827D01*
X366647Y888771D01*
X366620Y888719D01*
X366609Y888651D01*
X366579Y888556D01*
X366576Y888456D01*
X366565Y888388D01*
X366565Y884316D01*
X365546Y883298D01*
X365529Y883274D01*
X365506Y883255D01*
X365443Y883161D01*
X365375Y883071D01*
X365365Y883043D01*
X365349Y883019D01*
X365314Y882911D01*
X365274Y882805D01*
X365272Y882776D01*
X365263Y882748D01*
X365260Y882634D01*
X365251Y882522D01*
X365256Y882493D01*
X365256Y882464D01*
X365284Y882354D01*
X365306Y882243D01*
X365320Y882217D01*
X365327Y882189D01*
X365385Y882091D01*
X365437Y881991D01*
X365458Y881969D01*
X365473Y881944D01*
X365555Y881867D01*
X365633Y881785D01*
X365659Y881770D01*
X365680Y881750D01*
X365781Y881698D01*
X365879Y881641D01*
X365907Y881634D01*
X365933Y881620D01*
X366010Y881607D01*
X366154Y881571D01*
X366217Y881573D01*
X366264Y881565D01*
X382684Y881565D01*
X383536Y880712D01*
X383606Y880660D01*
X383670Y880600D01*
X383719Y880574D01*
X383764Y880541D01*
X383845Y880510D01*
X383923Y880470D01*
X383971Y880462D01*
X384029Y880440D01*
X384177Y880428D01*
X384254Y880415D01*
X391572Y880415D01*
X395400Y878829D01*
X403517Y870712D01*
X403586Y870660D01*
X403650Y870600D01*
X403700Y870574D01*
X403744Y870541D01*
X403825Y870510D01*
X403903Y870470D01*
X403951Y870462D01*
X404009Y870440D01*
X404157Y870428D01*
X404234Y870415D01*
X418570Y870415D01*
X418628Y870423D01*
G37*
%LPC*%
G36*
X613585Y492887D02*
X613585Y492887D01*
X610971Y493970D01*
X608970Y495971D01*
X607887Y498585D01*
X607887Y501415D01*
X608970Y504029D01*
X610971Y506030D01*
X613585Y507113D01*
X626633Y507113D01*
X626720Y507125D01*
X626807Y507128D01*
X626860Y507145D01*
X626915Y507153D01*
X626995Y507188D01*
X627078Y507215D01*
X627117Y507243D01*
X627174Y507269D01*
X627287Y507365D01*
X627351Y507410D01*
X670971Y551030D01*
X673585Y552113D01*
X676415Y552113D01*
X679029Y551030D01*
X681030Y549029D01*
X682113Y546415D01*
X682113Y543585D01*
X681030Y540971D01*
X663905Y523846D01*
X663887Y523822D01*
X663865Y523803D01*
X663802Y523709D01*
X663734Y523619D01*
X663723Y523591D01*
X663707Y523567D01*
X663673Y523459D01*
X663633Y523353D01*
X663630Y523324D01*
X663621Y523296D01*
X663618Y523182D01*
X663609Y523070D01*
X663615Y523041D01*
X663614Y523012D01*
X663643Y522902D01*
X663665Y522791D01*
X663679Y522765D01*
X663686Y522737D01*
X663744Y522639D01*
X663796Y522539D01*
X663816Y522517D01*
X663831Y522492D01*
X663914Y522415D01*
X663992Y522333D01*
X664017Y522318D01*
X664038Y522298D01*
X664139Y522246D01*
X664237Y522189D01*
X664265Y522182D01*
X664292Y522168D01*
X664369Y522155D01*
X664513Y522119D01*
X664575Y522121D01*
X664623Y522113D01*
X666633Y522113D01*
X666720Y522125D01*
X666807Y522128D01*
X666860Y522145D01*
X666915Y522153D01*
X666995Y522188D01*
X667078Y522215D01*
X667117Y522243D01*
X667174Y522269D01*
X667287Y522365D01*
X667351Y522410D01*
X688471Y543530D01*
X691085Y544613D01*
X693915Y544613D01*
X696529Y543530D01*
X698530Y541529D01*
X699613Y538915D01*
X699613Y536085D01*
X698530Y533471D01*
X674029Y508970D01*
X671415Y507887D01*
X658585Y507887D01*
X655971Y508970D01*
X653970Y510971D01*
X653690Y511646D01*
X653632Y511745D01*
X653579Y511847D01*
X653560Y511867D01*
X653546Y511891D01*
X653462Y511970D01*
X653383Y512053D01*
X653359Y512067D01*
X653339Y512086D01*
X653237Y512139D01*
X653138Y512197D01*
X653111Y512204D01*
X653086Y512216D01*
X652974Y512239D01*
X652863Y512267D01*
X652835Y512266D01*
X652808Y512271D01*
X652693Y512262D01*
X652578Y512258D01*
X652552Y512249D01*
X652524Y512247D01*
X652417Y512206D01*
X652308Y512170D01*
X652288Y512156D01*
X652259Y512145D01*
X652047Y511985D01*
X652035Y511976D01*
X636173Y496114D01*
X634029Y493970D01*
X631415Y492887D01*
X613585Y492887D01*
G37*
%LPD*%
%LPC*%
G36*
X245711Y728435D02*
X245711Y728435D01*
X237784Y731718D01*
X231718Y737784D01*
X228435Y745711D01*
X228435Y754289D01*
X231718Y762216D01*
X237784Y768282D01*
X245711Y771565D01*
X254289Y771565D01*
X262216Y768282D01*
X268282Y762216D01*
X271565Y754289D01*
X271565Y745711D01*
X268282Y737784D01*
X262216Y731718D01*
X254289Y728435D01*
X245711Y728435D01*
G37*
%LPD*%
%LPC*%
G36*
X745711Y728435D02*
X745711Y728435D01*
X737784Y731718D01*
X731718Y737784D01*
X728435Y745711D01*
X728435Y754289D01*
X731718Y762216D01*
X737784Y768282D01*
X745711Y771565D01*
X754289Y771565D01*
X762216Y768282D01*
X768282Y762216D01*
X771565Y754289D01*
X771565Y745711D01*
X768282Y737784D01*
X762216Y731718D01*
X754289Y728435D01*
X745711Y728435D01*
G37*
%LPD*%
%LPC*%
G36*
X245711Y228435D02*
X245711Y228435D01*
X237784Y231718D01*
X231718Y237784D01*
X228435Y245711D01*
X228435Y254289D01*
X231718Y262216D01*
X237784Y268282D01*
X245711Y271565D01*
X254289Y271565D01*
X262216Y268282D01*
X268282Y262216D01*
X271565Y254289D01*
X271565Y245711D01*
X268282Y237784D01*
X262216Y231718D01*
X254289Y228435D01*
X245711Y228435D01*
G37*
%LPD*%
%LPC*%
G36*
X745711Y228435D02*
X745711Y228435D01*
X737784Y231718D01*
X731718Y237784D01*
X728435Y245711D01*
X728435Y254289D01*
X731718Y262216D01*
X737784Y268282D01*
X745711Y271565D01*
X754289Y271565D01*
X762216Y268282D01*
X768282Y262216D01*
X771565Y254289D01*
X771565Y245711D01*
X768282Y237784D01*
X762216Y231718D01*
X754289Y228435D01*
X745711Y228435D01*
G37*
%LPD*%
%LPC*%
G36*
X532318Y165883D02*
X532318Y165883D01*
X524283Y173918D01*
X524283Y185282D01*
X532318Y193317D01*
X543682Y193317D01*
X551717Y185282D01*
X551717Y173918D01*
X543682Y165883D01*
X532318Y165883D01*
G37*
%LPD*%
%LPC*%
G36*
X290559Y902613D02*
X290559Y902613D01*
X293587Y905641D01*
X306213Y905641D01*
X309241Y902613D01*
X299900Y893273D01*
X290559Y902613D01*
G37*
%LPD*%
%LPC*%
G36*
X302773Y890400D02*
X302773Y890400D01*
X312113Y899741D01*
X315141Y896713D01*
X315141Y884087D01*
X312113Y881059D01*
X302773Y890400D01*
G37*
%LPD*%
%LPC*%
G36*
X284659Y884087D02*
X284659Y884087D01*
X284659Y896713D01*
X287687Y899741D01*
X297027Y890400D01*
X287687Y881059D01*
X284659Y884087D01*
G37*
%LPD*%
%LPC*%
G36*
X293587Y875159D02*
X293587Y875159D01*
X290559Y878187D01*
X299900Y887527D01*
X309241Y878187D01*
X306213Y875159D01*
X293587Y875159D01*
G37*
%LPD*%
%LPC*%
G36*
X266981Y470661D02*
X266981Y470661D01*
X266981Y480569D01*
X276889Y480569D01*
X276889Y477655D01*
X269895Y470661D01*
X266981Y470661D01*
G37*
%LPD*%
%LPC*%
G36*
X260005Y470661D02*
X260005Y470661D01*
X253011Y477655D01*
X253011Y480569D01*
X262919Y480569D01*
X262919Y470661D01*
X260005Y470661D01*
G37*
%LPD*%
%LPC*%
G36*
X852031Y790531D02*
X852031Y790531D01*
X852031Y799931D01*
X854735Y799931D01*
X861431Y793235D01*
X861431Y790531D01*
X852031Y790531D01*
G37*
%LPD*%
%LPC*%
G36*
X838569Y790531D02*
X838569Y790531D01*
X838569Y793235D01*
X845265Y799931D01*
X847969Y799931D01*
X847969Y790531D01*
X838569Y790531D01*
G37*
%LPD*%
%LPC*%
G36*
X371531Y947031D02*
X371531Y947031D01*
X371531Y955041D01*
X376334Y955041D01*
X376981Y954868D01*
X377560Y954533D01*
X378033Y954060D01*
X378368Y953481D01*
X378541Y952834D01*
X378541Y947031D01*
X371531Y947031D01*
G37*
%LPD*%
%LPC*%
G36*
X396731Y661531D02*
X396731Y661531D01*
X396731Y668541D01*
X402534Y668541D01*
X403181Y668368D01*
X403760Y668033D01*
X404233Y667560D01*
X404568Y666981D01*
X404741Y666334D01*
X404741Y661531D01*
X396731Y661531D01*
G37*
%LPD*%
%LPC*%
G36*
X384659Y661531D02*
X384659Y661531D01*
X384659Y666334D01*
X384832Y666981D01*
X385167Y667560D01*
X385640Y668033D01*
X386219Y668368D01*
X386866Y668541D01*
X392669Y668541D01*
X392669Y661531D01*
X384659Y661531D01*
G37*
%LPD*%
%LPC*%
G36*
X401459Y912031D02*
X401459Y912031D01*
X401459Y917834D01*
X401632Y918481D01*
X401967Y919060D01*
X402440Y919533D01*
X403019Y919868D01*
X403666Y920041D01*
X408469Y920041D01*
X408469Y912031D01*
X401459Y912031D01*
G37*
%LPD*%
%LPC*%
G36*
X401459Y887031D02*
X401459Y887031D01*
X401459Y892834D01*
X401632Y893481D01*
X401967Y894060D01*
X402440Y894533D01*
X403019Y894868D01*
X403666Y895041D01*
X408469Y895041D01*
X408469Y887031D01*
X401459Y887031D01*
G37*
%LPD*%
%LPC*%
G36*
X403666Y899959D02*
X403666Y899959D01*
X403019Y900132D01*
X402440Y900467D01*
X401967Y900940D01*
X401632Y901519D01*
X401459Y902166D01*
X401459Y907969D01*
X408469Y907969D01*
X408469Y899959D01*
X403666Y899959D01*
G37*
%LPD*%
%LPC*%
G36*
X403666Y874959D02*
X403666Y874959D01*
X403019Y875132D01*
X402440Y875467D01*
X401967Y875940D01*
X401632Y876519D01*
X401459Y877166D01*
X401459Y882969D01*
X408469Y882969D01*
X408469Y874959D01*
X403666Y874959D01*
G37*
%LPD*%
%LPC*%
G36*
X301350Y857430D02*
X301350Y857430D01*
X301015Y858009D01*
X300842Y858655D01*
X300842Y859324D01*
X301015Y859970D01*
X301350Y860550D01*
X304746Y863946D01*
X310410Y858282D01*
X305453Y853326D01*
X301350Y857430D01*
G37*
%LPD*%
%LPC*%
G36*
X313655Y845842D02*
X313655Y845842D01*
X313009Y846015D01*
X312430Y846350D01*
X308326Y850453D01*
X313282Y855410D01*
X318946Y849746D01*
X315550Y846350D01*
X314970Y846015D01*
X314324Y845842D01*
X313655Y845842D01*
G37*
%LPD*%
%LPC*%
G36*
X474827Y460265D02*
X474827Y460265D01*
X474978Y461024D01*
X475139Y461413D01*
X475146Y461441D01*
X475160Y461467D01*
X475182Y461578D01*
X475210Y461688D01*
X475209Y461717D01*
X475215Y461746D01*
X475205Y461859D01*
X475202Y461972D01*
X475193Y462000D01*
X475190Y462029D01*
X475150Y462135D01*
X475115Y462243D01*
X475099Y462267D01*
X475088Y462295D01*
X475020Y462385D01*
X474957Y462479D01*
X474934Y462498D01*
X474917Y462521D01*
X474826Y462589D01*
X474739Y462662D01*
X474712Y462674D01*
X474689Y462691D01*
X474583Y462731D01*
X474480Y462777D01*
X474450Y462781D01*
X474423Y462792D01*
X474310Y462801D01*
X474198Y462816D01*
X474169Y462812D01*
X474140Y462814D01*
X474063Y462797D01*
X473917Y462776D01*
X473860Y462750D01*
X473813Y462739D01*
X473424Y462578D01*
X472665Y462427D01*
X472665Y467410D01*
X477648Y467410D01*
X477497Y466651D01*
X477336Y466262D01*
X477329Y466234D01*
X477315Y466208D01*
X477293Y466097D01*
X477265Y465987D01*
X477266Y465958D01*
X477260Y465929D01*
X477270Y465816D01*
X477273Y465703D01*
X477282Y465675D01*
X477285Y465646D01*
X477325Y465540D01*
X477360Y465432D01*
X477376Y465408D01*
X477387Y465380D01*
X477455Y465290D01*
X477518Y465196D01*
X477541Y465177D01*
X477558Y465154D01*
X477649Y465086D01*
X477736Y465013D01*
X477763Y465001D01*
X477786Y464984D01*
X477892Y464944D01*
X477995Y464898D01*
X478025Y464894D01*
X478052Y464883D01*
X478165Y464874D01*
X478277Y464859D01*
X478306Y464863D01*
X478335Y464861D01*
X478412Y464878D01*
X478558Y464899D01*
X478615Y464925D01*
X478662Y464936D01*
X479051Y465097D01*
X479810Y465248D01*
X479810Y460265D01*
X474827Y460265D01*
G37*
%LPD*%
%LPC*%
G36*
X493177Y460265D02*
X493177Y460265D01*
X493328Y461024D01*
X493489Y461413D01*
X493496Y461441D01*
X493510Y461467D01*
X493532Y461578D01*
X493560Y461688D01*
X493559Y461717D01*
X493565Y461746D01*
X493555Y461859D01*
X493552Y461972D01*
X493543Y462000D01*
X493540Y462029D01*
X493500Y462135D01*
X493465Y462243D01*
X493449Y462267D01*
X493438Y462295D01*
X493370Y462385D01*
X493307Y462479D01*
X493284Y462498D01*
X493267Y462521D01*
X493176Y462589D01*
X493089Y462662D01*
X493062Y462674D01*
X493039Y462691D01*
X492933Y462731D01*
X492830Y462777D01*
X492800Y462781D01*
X492773Y462792D01*
X492660Y462801D01*
X492548Y462816D01*
X492519Y462812D01*
X492490Y462814D01*
X492413Y462797D01*
X492267Y462776D01*
X492210Y462750D01*
X492163Y462739D01*
X491774Y462578D01*
X491015Y462427D01*
X491015Y467410D01*
X495998Y467410D01*
X495847Y466651D01*
X495686Y466262D01*
X495679Y466234D01*
X495665Y466208D01*
X495643Y466097D01*
X495615Y465987D01*
X495616Y465958D01*
X495610Y465929D01*
X495620Y465816D01*
X495623Y465703D01*
X495632Y465675D01*
X495635Y465646D01*
X495675Y465540D01*
X495710Y465432D01*
X495726Y465408D01*
X495737Y465380D01*
X495805Y465290D01*
X495868Y465196D01*
X495891Y465177D01*
X495908Y465154D01*
X495999Y465086D01*
X496086Y465013D01*
X496113Y465001D01*
X496136Y464984D01*
X496242Y464944D01*
X496345Y464898D01*
X496375Y464894D01*
X496402Y464883D01*
X496515Y464874D01*
X496627Y464859D01*
X496656Y464863D01*
X496685Y464861D01*
X496762Y464878D01*
X496908Y464899D01*
X496965Y464925D01*
X497012Y464936D01*
X497401Y465097D01*
X498160Y465248D01*
X498160Y460265D01*
X493177Y460265D01*
G37*
%LPD*%
%LPC*%
G36*
X500190Y478615D02*
X500190Y478615D01*
X500190Y483598D01*
X500949Y483447D01*
X501338Y483286D01*
X501366Y483279D01*
X501392Y483265D01*
X501503Y483243D01*
X501613Y483215D01*
X501642Y483216D01*
X501671Y483210D01*
X501784Y483220D01*
X501897Y483223D01*
X501925Y483232D01*
X501954Y483235D01*
X502060Y483275D01*
X502168Y483310D01*
X502192Y483326D01*
X502220Y483337D01*
X502310Y483405D01*
X502404Y483468D01*
X502423Y483491D01*
X502446Y483508D01*
X502514Y483599D01*
X502587Y483686D01*
X502599Y483713D01*
X502616Y483736D01*
X502656Y483842D01*
X502702Y483945D01*
X502706Y483975D01*
X502717Y484002D01*
X502726Y484115D01*
X502741Y484227D01*
X502737Y484256D01*
X502739Y484285D01*
X502722Y484362D01*
X502701Y484508D01*
X502675Y484565D01*
X502664Y484612D01*
X502503Y485001D01*
X502352Y485760D01*
X507335Y485760D01*
X507335Y480777D01*
X506576Y480928D01*
X506187Y481089D01*
X506159Y481096D01*
X506133Y481110D01*
X506022Y481132D01*
X505912Y481160D01*
X505883Y481159D01*
X505854Y481165D01*
X505741Y481155D01*
X505628Y481152D01*
X505600Y481143D01*
X505571Y481140D01*
X505465Y481100D01*
X505357Y481065D01*
X505333Y481049D01*
X505305Y481038D01*
X505215Y480970D01*
X505121Y480907D01*
X505102Y480884D01*
X505079Y480867D01*
X505011Y480776D01*
X504938Y480689D01*
X504926Y480662D01*
X504909Y480639D01*
X504869Y480533D01*
X504823Y480430D01*
X504819Y480400D01*
X504808Y480373D01*
X504799Y480260D01*
X504784Y480148D01*
X504788Y480119D01*
X504786Y480090D01*
X504803Y480013D01*
X504824Y479867D01*
X504850Y479810D01*
X504861Y479763D01*
X505022Y479374D01*
X505173Y478615D01*
X500190Y478615D01*
G37*
%LPD*%
%LPC*%
G36*
X481840Y478615D02*
X481840Y478615D01*
X481840Y483598D01*
X482599Y483447D01*
X482988Y483286D01*
X483016Y483279D01*
X483042Y483265D01*
X483153Y483243D01*
X483263Y483215D01*
X483292Y483216D01*
X483321Y483210D01*
X483434Y483220D01*
X483547Y483223D01*
X483575Y483232D01*
X483604Y483235D01*
X483710Y483275D01*
X483818Y483310D01*
X483842Y483326D01*
X483870Y483337D01*
X483960Y483405D01*
X484054Y483468D01*
X484073Y483491D01*
X484096Y483508D01*
X484164Y483599D01*
X484237Y483686D01*
X484249Y483713D01*
X484266Y483736D01*
X484306Y483842D01*
X484352Y483945D01*
X484356Y483975D01*
X484367Y484002D01*
X484376Y484115D01*
X484391Y484227D01*
X484387Y484256D01*
X484389Y484285D01*
X484372Y484362D01*
X484351Y484508D01*
X484325Y484565D01*
X484314Y484612D01*
X484153Y485001D01*
X484002Y485760D01*
X488985Y485760D01*
X488985Y480777D01*
X488226Y480928D01*
X487837Y481089D01*
X487809Y481096D01*
X487783Y481110D01*
X487672Y481132D01*
X487562Y481160D01*
X487533Y481159D01*
X487504Y481165D01*
X487391Y481155D01*
X487278Y481152D01*
X487250Y481143D01*
X487221Y481140D01*
X487115Y481100D01*
X487007Y481065D01*
X486983Y481049D01*
X486955Y481038D01*
X486865Y480970D01*
X486771Y480907D01*
X486752Y480884D01*
X486729Y480867D01*
X486661Y480776D01*
X486588Y480689D01*
X486576Y480662D01*
X486559Y480639D01*
X486519Y480533D01*
X486473Y480430D01*
X486469Y480400D01*
X486458Y480373D01*
X486449Y480260D01*
X486434Y480148D01*
X486438Y480119D01*
X486436Y480090D01*
X486453Y480013D01*
X486474Y479867D01*
X486500Y479810D01*
X486511Y479763D01*
X486672Y479374D01*
X486823Y478615D01*
X481840Y478615D01*
G37*
%LPD*%
%LPC*%
G36*
X491015Y487790D02*
X491015Y487790D01*
X491015Y492773D01*
X491774Y492622D01*
X492163Y492461D01*
X492191Y492454D01*
X492217Y492440D01*
X492328Y492418D01*
X492438Y492390D01*
X492467Y492391D01*
X492496Y492385D01*
X492609Y492395D01*
X492722Y492398D01*
X492750Y492407D01*
X492779Y492410D01*
X492885Y492450D01*
X492993Y492485D01*
X493017Y492501D01*
X493045Y492512D01*
X493135Y492580D01*
X493229Y492643D01*
X493248Y492666D01*
X493271Y492683D01*
X493339Y492774D01*
X493412Y492861D01*
X493424Y492888D01*
X493441Y492911D01*
X493481Y493017D01*
X493527Y493120D01*
X493531Y493150D01*
X493542Y493177D01*
X493551Y493290D01*
X493566Y493402D01*
X493562Y493431D01*
X493564Y493460D01*
X493547Y493537D01*
X493526Y493683D01*
X493500Y493740D01*
X493489Y493787D01*
X493328Y494176D01*
X493177Y494935D01*
X498160Y494935D01*
X498160Y489952D01*
X497401Y490103D01*
X497012Y490264D01*
X496984Y490271D01*
X496958Y490285D01*
X496847Y490307D01*
X496737Y490335D01*
X496708Y490334D01*
X496679Y490340D01*
X496566Y490330D01*
X496453Y490327D01*
X496425Y490318D01*
X496396Y490315D01*
X496290Y490275D01*
X496182Y490240D01*
X496158Y490224D01*
X496130Y490213D01*
X496040Y490145D01*
X495946Y490082D01*
X495927Y490059D01*
X495904Y490042D01*
X495836Y489951D01*
X495763Y489864D01*
X495751Y489837D01*
X495734Y489814D01*
X495694Y489708D01*
X495648Y489605D01*
X495644Y489575D01*
X495633Y489548D01*
X495624Y489435D01*
X495609Y489323D01*
X495613Y489294D01*
X495611Y489265D01*
X495628Y489188D01*
X495649Y489042D01*
X495675Y488985D01*
X495686Y488938D01*
X495847Y488549D01*
X495998Y487790D01*
X491015Y487790D01*
G37*
%LPD*%
%LPC*%
G36*
X481840Y460265D02*
X481840Y460265D01*
X481840Y465248D01*
X482599Y465097D01*
X482988Y464936D01*
X483016Y464929D01*
X483042Y464915D01*
X483153Y464893D01*
X483263Y464865D01*
X483292Y464866D01*
X483321Y464860D01*
X483434Y464870D01*
X483547Y464873D01*
X483575Y464882D01*
X483604Y464885D01*
X483710Y464925D01*
X483818Y464960D01*
X483842Y464976D01*
X483870Y464987D01*
X483960Y465055D01*
X484054Y465118D01*
X484073Y465141D01*
X484096Y465158D01*
X484164Y465249D01*
X484237Y465336D01*
X484249Y465363D01*
X484266Y465386D01*
X484306Y465492D01*
X484352Y465595D01*
X484356Y465625D01*
X484367Y465652D01*
X484376Y465765D01*
X484391Y465877D01*
X484387Y465906D01*
X484389Y465935D01*
X484372Y466012D01*
X484351Y466158D01*
X484325Y466215D01*
X484314Y466262D01*
X484153Y466651D01*
X484002Y467410D01*
X488985Y467410D01*
X488985Y462427D01*
X488226Y462578D01*
X487837Y462739D01*
X487809Y462746D01*
X487783Y462760D01*
X487672Y462782D01*
X487562Y462810D01*
X487533Y462809D01*
X487504Y462815D01*
X487391Y462805D01*
X487278Y462802D01*
X487250Y462793D01*
X487221Y462790D01*
X487115Y462750D01*
X487007Y462715D01*
X486983Y462699D01*
X486955Y462688D01*
X486865Y462620D01*
X486771Y462557D01*
X486752Y462534D01*
X486729Y462517D01*
X486661Y462426D01*
X486588Y462339D01*
X486576Y462312D01*
X486559Y462289D01*
X486519Y462183D01*
X486473Y462080D01*
X486469Y462050D01*
X486458Y462023D01*
X486449Y461910D01*
X486434Y461798D01*
X486438Y461769D01*
X486436Y461740D01*
X486453Y461663D01*
X486474Y461517D01*
X486500Y461460D01*
X486511Y461413D01*
X486672Y461024D01*
X486823Y460265D01*
X481840Y460265D01*
G37*
%LPD*%
%LPC*%
G36*
X500190Y460265D02*
X500190Y460265D01*
X500190Y465248D01*
X500949Y465097D01*
X501338Y464936D01*
X501366Y464929D01*
X501392Y464915D01*
X501503Y464893D01*
X501613Y464865D01*
X501642Y464866D01*
X501671Y464860D01*
X501784Y464870D01*
X501897Y464873D01*
X501925Y464882D01*
X501954Y464885D01*
X502060Y464925D01*
X502168Y464960D01*
X502192Y464976D01*
X502220Y464987D01*
X502310Y465055D01*
X502404Y465118D01*
X502423Y465141D01*
X502446Y465158D01*
X502514Y465249D01*
X502587Y465336D01*
X502599Y465363D01*
X502616Y465386D01*
X502656Y465492D01*
X502702Y465595D01*
X502706Y465625D01*
X502717Y465652D01*
X502726Y465765D01*
X502741Y465877D01*
X502737Y465906D01*
X502739Y465935D01*
X502722Y466012D01*
X502701Y466158D01*
X502675Y466215D01*
X502664Y466262D01*
X502503Y466651D01*
X502352Y467410D01*
X507335Y467410D01*
X507335Y462427D01*
X506576Y462578D01*
X506187Y462739D01*
X506159Y462746D01*
X506133Y462760D01*
X506022Y462782D01*
X505912Y462810D01*
X505883Y462809D01*
X505854Y462815D01*
X505741Y462805D01*
X505628Y462802D01*
X505600Y462793D01*
X505571Y462790D01*
X505465Y462750D01*
X505357Y462715D01*
X505333Y462699D01*
X505305Y462688D01*
X505215Y462620D01*
X505121Y462557D01*
X505102Y462534D01*
X505079Y462517D01*
X505011Y462426D01*
X504938Y462339D01*
X504926Y462312D01*
X504909Y462289D01*
X504869Y462183D01*
X504823Y462080D01*
X504819Y462050D01*
X504808Y462023D01*
X504799Y461910D01*
X504784Y461798D01*
X504788Y461769D01*
X504786Y461740D01*
X504803Y461663D01*
X504824Y461517D01*
X504850Y461460D01*
X504861Y461413D01*
X505022Y461024D01*
X505173Y460265D01*
X500190Y460265D01*
G37*
%LPD*%
%LPC*%
G36*
X472665Y487790D02*
X472665Y487790D01*
X472665Y492773D01*
X473424Y492622D01*
X473813Y492461D01*
X473841Y492454D01*
X473867Y492440D01*
X473978Y492418D01*
X474088Y492390D01*
X474117Y492391D01*
X474146Y492385D01*
X474259Y492395D01*
X474372Y492398D01*
X474400Y492407D01*
X474429Y492410D01*
X474535Y492450D01*
X474643Y492485D01*
X474667Y492501D01*
X474695Y492512D01*
X474785Y492580D01*
X474879Y492643D01*
X474898Y492666D01*
X474921Y492683D01*
X474989Y492774D01*
X475062Y492861D01*
X475074Y492888D01*
X475091Y492911D01*
X475131Y493017D01*
X475177Y493120D01*
X475181Y493150D01*
X475192Y493177D01*
X475201Y493290D01*
X475216Y493402D01*
X475212Y493431D01*
X475214Y493460D01*
X475197Y493537D01*
X475176Y493683D01*
X475150Y493740D01*
X475139Y493787D01*
X474978Y494176D01*
X474827Y494935D01*
X479810Y494935D01*
X479810Y489952D01*
X479051Y490103D01*
X478662Y490264D01*
X478634Y490271D01*
X478608Y490285D01*
X478497Y490307D01*
X478387Y490335D01*
X478358Y490334D01*
X478329Y490340D01*
X478216Y490330D01*
X478103Y490327D01*
X478075Y490318D01*
X478046Y490315D01*
X477940Y490275D01*
X477832Y490240D01*
X477808Y490224D01*
X477780Y490213D01*
X477690Y490145D01*
X477596Y490082D01*
X477577Y490059D01*
X477554Y490042D01*
X477486Y489951D01*
X477413Y489864D01*
X477401Y489837D01*
X477384Y489814D01*
X477344Y489708D01*
X477298Y489605D01*
X477294Y489575D01*
X477283Y489548D01*
X477274Y489435D01*
X477259Y489323D01*
X477263Y489294D01*
X477261Y489265D01*
X477278Y489188D01*
X477299Y489042D01*
X477325Y488985D01*
X477336Y488938D01*
X477497Y488549D01*
X477648Y487790D01*
X472665Y487790D01*
G37*
%LPD*%
%LPC*%
G36*
X493177Y478615D02*
X493177Y478615D01*
X493328Y479374D01*
X493489Y479763D01*
X493496Y479791D01*
X493510Y479817D01*
X493532Y479928D01*
X493560Y480038D01*
X493559Y480067D01*
X493565Y480096D01*
X493555Y480209D01*
X493552Y480322D01*
X493543Y480350D01*
X493540Y480379D01*
X493500Y480485D01*
X493465Y480593D01*
X493449Y480617D01*
X493438Y480645D01*
X493370Y480735D01*
X493307Y480829D01*
X493284Y480848D01*
X493267Y480871D01*
X493176Y480939D01*
X493089Y481012D01*
X493062Y481024D01*
X493039Y481041D01*
X492933Y481081D01*
X492830Y481127D01*
X492800Y481131D01*
X492773Y481142D01*
X492660Y481151D01*
X492548Y481166D01*
X492519Y481162D01*
X492490Y481164D01*
X492413Y481147D01*
X492267Y481126D01*
X492210Y481100D01*
X492163Y481089D01*
X491774Y480928D01*
X491015Y480777D01*
X491015Y485760D01*
X495998Y485760D01*
X495847Y485001D01*
X495686Y484612D01*
X495679Y484584D01*
X495665Y484558D01*
X495643Y484447D01*
X495615Y484337D01*
X495616Y484308D01*
X495610Y484279D01*
X495620Y484166D01*
X495623Y484053D01*
X495632Y484025D01*
X495635Y483996D01*
X495675Y483890D01*
X495710Y483782D01*
X495726Y483758D01*
X495737Y483730D01*
X495805Y483640D01*
X495868Y483546D01*
X495891Y483527D01*
X495908Y483504D01*
X495999Y483436D01*
X496086Y483363D01*
X496113Y483351D01*
X496136Y483334D01*
X496242Y483294D01*
X496345Y483248D01*
X496375Y483244D01*
X496402Y483233D01*
X496515Y483224D01*
X496627Y483209D01*
X496656Y483213D01*
X496685Y483211D01*
X496762Y483228D01*
X496908Y483249D01*
X496965Y483275D01*
X497012Y483286D01*
X497401Y483447D01*
X498160Y483598D01*
X498160Y478615D01*
X493177Y478615D01*
G37*
%LPD*%
%LPC*%
G36*
X474827Y478615D02*
X474827Y478615D01*
X474978Y479374D01*
X475139Y479763D01*
X475146Y479791D01*
X475160Y479817D01*
X475182Y479928D01*
X475210Y480038D01*
X475209Y480067D01*
X475215Y480096D01*
X475205Y480209D01*
X475202Y480322D01*
X475193Y480350D01*
X475190Y480379D01*
X475150Y480485D01*
X475115Y480593D01*
X475099Y480617D01*
X475088Y480645D01*
X475020Y480735D01*
X474957Y480829D01*
X474934Y480848D01*
X474917Y480871D01*
X474826Y480939D01*
X474739Y481012D01*
X474712Y481024D01*
X474689Y481041D01*
X474583Y481081D01*
X474480Y481127D01*
X474450Y481131D01*
X474423Y481142D01*
X474310Y481151D01*
X474198Y481166D01*
X474169Y481162D01*
X474140Y481164D01*
X474063Y481147D01*
X473917Y481126D01*
X473860Y481100D01*
X473813Y481089D01*
X473424Y480928D01*
X472665Y480777D01*
X472665Y485760D01*
X477648Y485760D01*
X477497Y485001D01*
X477336Y484612D01*
X477329Y484584D01*
X477315Y484558D01*
X477293Y484447D01*
X477265Y484337D01*
X477266Y484308D01*
X477260Y484279D01*
X477270Y484166D01*
X477273Y484053D01*
X477282Y484025D01*
X477285Y483996D01*
X477325Y483890D01*
X477360Y483782D01*
X477376Y483758D01*
X477387Y483730D01*
X477455Y483640D01*
X477518Y483546D01*
X477541Y483527D01*
X477558Y483504D01*
X477649Y483436D01*
X477736Y483363D01*
X477763Y483351D01*
X477786Y483334D01*
X477892Y483294D01*
X477995Y483248D01*
X478025Y483244D01*
X478052Y483233D01*
X478165Y483224D01*
X478277Y483209D01*
X478306Y483213D01*
X478335Y483211D01*
X478412Y483228D01*
X478558Y483249D01*
X478615Y483275D01*
X478662Y483286D01*
X479051Y483447D01*
X479810Y483598D01*
X479810Y478615D01*
X474827Y478615D01*
G37*
%LPD*%
%LPC*%
G36*
X484002Y487790D02*
X484002Y487790D01*
X484153Y488549D01*
X484314Y488938D01*
X484321Y488966D01*
X484335Y488992D01*
X484357Y489103D01*
X484385Y489213D01*
X484384Y489242D01*
X484390Y489271D01*
X484380Y489384D01*
X484377Y489497D01*
X484368Y489525D01*
X484365Y489554D01*
X484325Y489660D01*
X484290Y489768D01*
X484274Y489792D01*
X484263Y489820D01*
X484195Y489910D01*
X484132Y490004D01*
X484109Y490023D01*
X484092Y490046D01*
X484001Y490114D01*
X483914Y490187D01*
X483887Y490199D01*
X483864Y490216D01*
X483758Y490256D01*
X483655Y490302D01*
X483625Y490306D01*
X483598Y490317D01*
X483485Y490326D01*
X483373Y490341D01*
X483344Y490337D01*
X483315Y490339D01*
X483238Y490322D01*
X483092Y490301D01*
X483035Y490275D01*
X482988Y490264D01*
X482599Y490103D01*
X481840Y489952D01*
X481840Y494935D01*
X486823Y494935D01*
X486672Y494176D01*
X486511Y493787D01*
X486504Y493759D01*
X486490Y493733D01*
X486468Y493622D01*
X486440Y493512D01*
X486441Y493483D01*
X486435Y493454D01*
X486445Y493341D01*
X486448Y493228D01*
X486457Y493200D01*
X486460Y493171D01*
X486500Y493065D01*
X486535Y492957D01*
X486551Y492933D01*
X486562Y492905D01*
X486630Y492815D01*
X486693Y492721D01*
X486716Y492702D01*
X486733Y492679D01*
X486824Y492611D01*
X486911Y492538D01*
X486938Y492526D01*
X486961Y492509D01*
X487067Y492469D01*
X487170Y492423D01*
X487200Y492419D01*
X487227Y492408D01*
X487340Y492399D01*
X487452Y492384D01*
X487481Y492388D01*
X487510Y492386D01*
X487587Y492403D01*
X487733Y492424D01*
X487790Y492450D01*
X487837Y492461D01*
X488226Y492622D01*
X488985Y492773D01*
X488985Y487790D01*
X484002Y487790D01*
G37*
%LPD*%
%LPC*%
G36*
X502352Y487790D02*
X502352Y487790D01*
X502503Y488549D01*
X502664Y488938D01*
X502671Y488966D01*
X502685Y488992D01*
X502707Y489103D01*
X502735Y489213D01*
X502734Y489242D01*
X502740Y489271D01*
X502730Y489384D01*
X502727Y489497D01*
X502718Y489525D01*
X502715Y489554D01*
X502675Y489660D01*
X502640Y489768D01*
X502624Y489792D01*
X502613Y489820D01*
X502545Y489910D01*
X502482Y490004D01*
X502459Y490023D01*
X502442Y490046D01*
X502351Y490114D01*
X502264Y490187D01*
X502237Y490199D01*
X502214Y490216D01*
X502108Y490256D01*
X502005Y490302D01*
X501975Y490306D01*
X501948Y490317D01*
X501835Y490326D01*
X501723Y490341D01*
X501694Y490337D01*
X501665Y490339D01*
X501588Y490322D01*
X501442Y490301D01*
X501385Y490275D01*
X501338Y490264D01*
X500949Y490103D01*
X500190Y489952D01*
X500190Y494935D01*
X505173Y494935D01*
X505022Y494176D01*
X504861Y493787D01*
X504854Y493759D01*
X504840Y493733D01*
X504818Y493622D01*
X504790Y493512D01*
X504791Y493483D01*
X504785Y493454D01*
X504795Y493341D01*
X504798Y493228D01*
X504807Y493200D01*
X504810Y493171D01*
X504850Y493065D01*
X504885Y492957D01*
X504901Y492933D01*
X504912Y492905D01*
X504980Y492815D01*
X505043Y492721D01*
X505066Y492702D01*
X505083Y492679D01*
X505174Y492611D01*
X505261Y492538D01*
X505288Y492526D01*
X505311Y492509D01*
X505417Y492469D01*
X505520Y492423D01*
X505550Y492419D01*
X505577Y492408D01*
X505690Y492399D01*
X505802Y492384D01*
X505831Y492388D01*
X505860Y492386D01*
X505937Y492403D01*
X506083Y492424D01*
X506140Y492450D01*
X506187Y492461D01*
X506576Y492622D01*
X507335Y492773D01*
X507335Y487790D01*
X502352Y487790D01*
G37*
%LPD*%
%LPC*%
G36*
X491015Y469440D02*
X491015Y469440D01*
X491015Y474423D01*
X491774Y474272D01*
X492163Y474111D01*
X492191Y474104D01*
X492217Y474090D01*
X492328Y474068D01*
X492438Y474040D01*
X492467Y474041D01*
X492496Y474035D01*
X492609Y474045D01*
X492722Y474048D01*
X492750Y474057D01*
X492779Y474060D01*
X492885Y474100D01*
X492993Y474135D01*
X493017Y474151D01*
X493045Y474162D01*
X493135Y474230D01*
X493229Y474293D01*
X493248Y474316D01*
X493271Y474333D01*
X493339Y474424D01*
X493412Y474511D01*
X493424Y474538D01*
X493441Y474561D01*
X493481Y474667D01*
X493527Y474770D01*
X493531Y474800D01*
X493542Y474827D01*
X493551Y474940D01*
X493566Y475052D01*
X493562Y475081D01*
X493564Y475110D01*
X493547Y475187D01*
X493526Y475333D01*
X493500Y475390D01*
X493489Y475437D01*
X493328Y475826D01*
X493177Y476585D01*
X498160Y476585D01*
X498160Y471602D01*
X497401Y471753D01*
X497012Y471914D01*
X496984Y471921D01*
X496958Y471935D01*
X496847Y471957D01*
X496737Y471985D01*
X496708Y471984D01*
X496679Y471990D01*
X496566Y471980D01*
X496453Y471977D01*
X496425Y471968D01*
X496396Y471965D01*
X496290Y471925D01*
X496182Y471890D01*
X496158Y471874D01*
X496130Y471863D01*
X496040Y471795D01*
X495946Y471732D01*
X495927Y471709D01*
X495904Y471692D01*
X495836Y471601D01*
X495763Y471514D01*
X495751Y471487D01*
X495734Y471464D01*
X495694Y471358D01*
X495648Y471255D01*
X495644Y471225D01*
X495633Y471198D01*
X495624Y471085D01*
X495609Y470973D01*
X495613Y470944D01*
X495611Y470915D01*
X495628Y470841D01*
X495627Y470831D01*
X495632Y470814D01*
X495649Y470692D01*
X495675Y470635D01*
X495686Y470588D01*
X495847Y470199D01*
X495998Y469440D01*
X491015Y469440D01*
G37*
%LPD*%
%LPC*%
G36*
X472665Y469440D02*
X472665Y469440D01*
X472665Y474423D01*
X473424Y474272D01*
X473813Y474111D01*
X473841Y474104D01*
X473867Y474090D01*
X473978Y474068D01*
X474088Y474040D01*
X474117Y474041D01*
X474146Y474035D01*
X474259Y474045D01*
X474372Y474048D01*
X474400Y474057D01*
X474429Y474060D01*
X474535Y474100D01*
X474643Y474135D01*
X474667Y474151D01*
X474695Y474162D01*
X474785Y474230D01*
X474879Y474293D01*
X474898Y474316D01*
X474921Y474333D01*
X474989Y474424D01*
X475062Y474511D01*
X475074Y474538D01*
X475091Y474561D01*
X475131Y474667D01*
X475177Y474770D01*
X475181Y474800D01*
X475192Y474827D01*
X475201Y474940D01*
X475216Y475052D01*
X475212Y475081D01*
X475214Y475110D01*
X475197Y475187D01*
X475176Y475333D01*
X475150Y475390D01*
X475139Y475437D01*
X474978Y475826D01*
X474827Y476585D01*
X479810Y476585D01*
X479810Y471602D01*
X479051Y471753D01*
X478662Y471914D01*
X478634Y471921D01*
X478608Y471935D01*
X478497Y471957D01*
X478387Y471985D01*
X478358Y471984D01*
X478329Y471990D01*
X478216Y471980D01*
X478103Y471977D01*
X478075Y471968D01*
X478046Y471965D01*
X477940Y471925D01*
X477832Y471890D01*
X477808Y471874D01*
X477780Y471863D01*
X477690Y471795D01*
X477596Y471732D01*
X477577Y471709D01*
X477554Y471692D01*
X477486Y471601D01*
X477413Y471514D01*
X477401Y471487D01*
X477384Y471464D01*
X477344Y471358D01*
X477298Y471255D01*
X477294Y471225D01*
X477283Y471198D01*
X477274Y471085D01*
X477259Y470973D01*
X477263Y470944D01*
X477261Y470915D01*
X477278Y470841D01*
X477277Y470831D01*
X477282Y470814D01*
X477299Y470692D01*
X477325Y470635D01*
X477336Y470588D01*
X477497Y470199D01*
X477648Y469440D01*
X472665Y469440D01*
G37*
%LPD*%
%LPC*%
G36*
X502352Y469440D02*
X502352Y469440D01*
X502503Y470199D01*
X502664Y470588D01*
X502671Y470616D01*
X502685Y470642D01*
X502706Y470750D01*
X502715Y470780D01*
X502716Y470788D01*
X502735Y470863D01*
X502734Y470892D01*
X502740Y470921D01*
X502730Y471034D01*
X502727Y471147D01*
X502718Y471175D01*
X502715Y471204D01*
X502675Y471310D01*
X502640Y471418D01*
X502624Y471442D01*
X502613Y471470D01*
X502545Y471560D01*
X502482Y471654D01*
X502459Y471673D01*
X502442Y471696D01*
X502351Y471764D01*
X502264Y471837D01*
X502237Y471849D01*
X502214Y471866D01*
X502108Y471906D01*
X502005Y471952D01*
X501975Y471956D01*
X501948Y471967D01*
X501835Y471976D01*
X501723Y471991D01*
X501694Y471987D01*
X501665Y471989D01*
X501588Y471972D01*
X501442Y471951D01*
X501385Y471925D01*
X501377Y471923D01*
X501375Y471923D01*
X501338Y471914D01*
X500949Y471753D01*
X500190Y471602D01*
X500190Y476585D01*
X505173Y476585D01*
X505022Y475826D01*
X504861Y475437D01*
X504854Y475409D01*
X504840Y475383D01*
X504818Y475272D01*
X504790Y475162D01*
X504791Y475133D01*
X504785Y475104D01*
X504795Y474991D01*
X504798Y474878D01*
X504807Y474850D01*
X504810Y474821D01*
X504850Y474715D01*
X504885Y474607D01*
X504901Y474583D01*
X504912Y474555D01*
X504980Y474465D01*
X505043Y474371D01*
X505066Y474352D01*
X505083Y474329D01*
X505174Y474261D01*
X505261Y474188D01*
X505288Y474176D01*
X505311Y474159D01*
X505417Y474119D01*
X505520Y474073D01*
X505550Y474069D01*
X505577Y474058D01*
X505690Y474049D01*
X505802Y474034D01*
X505831Y474038D01*
X505860Y474036D01*
X505937Y474053D01*
X506083Y474074D01*
X506140Y474100D01*
X506187Y474111D01*
X506576Y474272D01*
X507335Y474423D01*
X507335Y469440D01*
X502352Y469440D01*
G37*
%LPD*%
%LPC*%
G36*
X484002Y469440D02*
X484002Y469440D01*
X484153Y470199D01*
X484314Y470588D01*
X484321Y470616D01*
X484335Y470642D01*
X484356Y470750D01*
X484365Y470780D01*
X484366Y470788D01*
X484385Y470863D01*
X484384Y470892D01*
X484390Y470921D01*
X484380Y471034D01*
X484377Y471147D01*
X484368Y471175D01*
X484365Y471204D01*
X484325Y471310D01*
X484290Y471418D01*
X484274Y471442D01*
X484263Y471470D01*
X484195Y471560D01*
X484132Y471654D01*
X484109Y471673D01*
X484092Y471696D01*
X484001Y471764D01*
X483914Y471837D01*
X483887Y471849D01*
X483864Y471866D01*
X483758Y471906D01*
X483655Y471952D01*
X483625Y471956D01*
X483598Y471967D01*
X483485Y471976D01*
X483373Y471991D01*
X483344Y471987D01*
X483315Y471989D01*
X483238Y471972D01*
X483092Y471951D01*
X483035Y471925D01*
X483027Y471923D01*
X483025Y471923D01*
X482988Y471914D01*
X482599Y471753D01*
X481840Y471602D01*
X481840Y476585D01*
X486823Y476585D01*
X486672Y475826D01*
X486511Y475437D01*
X486504Y475409D01*
X486490Y475383D01*
X486468Y475272D01*
X486440Y475162D01*
X486441Y475133D01*
X486435Y475104D01*
X486445Y474991D01*
X486448Y474878D01*
X486457Y474850D01*
X486460Y474821D01*
X486500Y474715D01*
X486535Y474607D01*
X486551Y474583D01*
X486562Y474555D01*
X486630Y474465D01*
X486693Y474371D01*
X486716Y474352D01*
X486733Y474329D01*
X486824Y474261D01*
X486911Y474188D01*
X486938Y474176D01*
X486961Y474159D01*
X487067Y474119D01*
X487170Y474073D01*
X487200Y474069D01*
X487227Y474058D01*
X487340Y474049D01*
X487452Y474034D01*
X487481Y474038D01*
X487510Y474036D01*
X487587Y474053D01*
X487733Y474074D01*
X487790Y474100D01*
X487837Y474111D01*
X488226Y474272D01*
X488985Y474423D01*
X488985Y469440D01*
X484002Y469440D01*
G37*
%LPD*%
%LPC*%
G36*
X481840Y496965D02*
X481840Y496965D01*
X481840Y501948D01*
X482599Y501797D01*
X483705Y501339D01*
X484701Y500673D01*
X485548Y499826D01*
X486214Y498830D01*
X486672Y497724D01*
X486823Y496965D01*
X481840Y496965D01*
G37*
%LPD*%
%LPC*%
G36*
X509365Y487790D02*
X509365Y487790D01*
X509365Y492773D01*
X510124Y492622D01*
X511230Y492164D01*
X512226Y491498D01*
X513073Y490651D01*
X513739Y489655D01*
X514197Y488549D01*
X514348Y487790D01*
X509365Y487790D01*
G37*
%LPD*%
%LPC*%
G36*
X500190Y496965D02*
X500190Y496965D01*
X500190Y501948D01*
X500949Y501797D01*
X502055Y501339D01*
X503051Y500673D01*
X503898Y499826D01*
X504564Y498830D01*
X505022Y497724D01*
X505173Y496965D01*
X500190Y496965D01*
G37*
%LPD*%
%LPC*%
G36*
X509365Y469440D02*
X509365Y469440D01*
X509365Y474423D01*
X510124Y474272D01*
X511230Y473814D01*
X512226Y473148D01*
X513073Y472301D01*
X513739Y471305D01*
X514197Y470199D01*
X514348Y469440D01*
X509365Y469440D01*
G37*
%LPD*%
%LPC*%
G36*
X465652Y487790D02*
X465652Y487790D01*
X465803Y488549D01*
X466261Y489655D01*
X466927Y490651D01*
X467774Y491498D01*
X468770Y492164D01*
X469876Y492622D01*
X470635Y492773D01*
X470635Y487790D01*
X465652Y487790D01*
G37*
%LPD*%
%LPC*%
G36*
X509365Y485760D02*
X509365Y485760D01*
X514348Y485760D01*
X514197Y485001D01*
X513739Y483895D01*
X513073Y482899D01*
X512226Y482052D01*
X511230Y481386D01*
X510124Y480928D01*
X509365Y480777D01*
X509365Y485760D01*
G37*
%LPD*%
%LPC*%
G36*
X465652Y469440D02*
X465652Y469440D01*
X465803Y470199D01*
X466261Y471305D01*
X466927Y472301D01*
X467774Y473148D01*
X468770Y473814D01*
X469876Y474272D01*
X470635Y474423D01*
X470635Y469440D01*
X465652Y469440D01*
G37*
%LPD*%
%LPC*%
G36*
X509365Y467410D02*
X509365Y467410D01*
X514348Y467410D01*
X514197Y466651D01*
X513739Y465545D01*
X513073Y464549D01*
X512226Y463702D01*
X511230Y463036D01*
X510124Y462578D01*
X509365Y462427D01*
X509365Y467410D01*
G37*
%LPD*%
%LPC*%
G36*
X500190Y458235D02*
X500190Y458235D01*
X505173Y458235D01*
X505022Y457476D01*
X504564Y456370D01*
X503898Y455374D01*
X503051Y454527D01*
X502055Y453861D01*
X500949Y453403D01*
X500190Y453252D01*
X500190Y458235D01*
G37*
%LPD*%
%LPC*%
G36*
X481840Y458235D02*
X481840Y458235D01*
X486823Y458235D01*
X486672Y457476D01*
X486214Y456370D01*
X485548Y455374D01*
X484701Y454527D01*
X483705Y453861D01*
X482599Y453403D01*
X481840Y453252D01*
X481840Y458235D01*
G37*
%LPD*%
%LPC*%
G36*
X474827Y496965D02*
X474827Y496965D01*
X474978Y497724D01*
X475436Y498830D01*
X476102Y499826D01*
X476949Y500673D01*
X477945Y501339D01*
X479051Y501797D01*
X479810Y501948D01*
X479810Y496965D01*
X474827Y496965D01*
G37*
%LPD*%
%LPC*%
G36*
X493177Y496965D02*
X493177Y496965D01*
X493328Y497724D01*
X493786Y498830D01*
X494452Y499826D01*
X495299Y500673D01*
X496295Y501339D01*
X497401Y501797D01*
X498160Y501948D01*
X498160Y496965D01*
X493177Y496965D01*
G37*
%LPD*%
%LPC*%
G36*
X469876Y480928D02*
X469876Y480928D01*
X468770Y481386D01*
X467774Y482052D01*
X466927Y482899D01*
X466261Y483895D01*
X465803Y485001D01*
X465652Y485760D01*
X470635Y485760D01*
X470635Y480777D01*
X469876Y480928D01*
G37*
%LPD*%
%LPC*%
G36*
X469876Y462578D02*
X469876Y462578D01*
X468770Y463036D01*
X467774Y463702D01*
X466927Y464549D01*
X466261Y465545D01*
X465803Y466651D01*
X465652Y467410D01*
X470635Y467410D01*
X470635Y462427D01*
X469876Y462578D01*
G37*
%LPD*%
%LPC*%
G36*
X497401Y453403D02*
X497401Y453403D01*
X496295Y453861D01*
X495299Y454527D01*
X494452Y455374D01*
X493786Y456370D01*
X493328Y457476D01*
X493177Y458235D01*
X498160Y458235D01*
X498160Y453252D01*
X497401Y453403D01*
G37*
%LPD*%
%LPC*%
G36*
X479051Y453403D02*
X479051Y453403D01*
X477945Y453861D01*
X476949Y454527D01*
X476102Y455374D01*
X475436Y456370D01*
X474978Y457476D01*
X474827Y458235D01*
X479810Y458235D01*
X479810Y453252D01*
X479051Y453403D01*
G37*
%LPD*%
%LPC*%
G36*
X299899Y890400D02*
X299899Y890400D01*
X299900Y890401D01*
X299901Y890400D01*
X299900Y890399D01*
X299899Y890400D01*
G37*
%LPD*%
D10*
X299900Y890400D03*
X275204Y865704D03*
D11*
X355300Y640500D03*
X355300Y659500D03*
X394700Y659500D03*
X394700Y640500D03*
D12*
X264950Y533400D03*
D13*
X264950Y508000D03*
X264950Y482600D03*
D14*
X379600Y825600D03*
X379600Y800200D03*
X379600Y774800D03*
X379600Y749400D03*
D15*
X745440Y378280D03*
X745440Y352880D03*
X745440Y403680D03*
D14*
X462000Y179600D03*
X538000Y179600D03*
X744000Y491500D03*
X744000Y516900D03*
X744000Y542300D03*
X744000Y567700D03*
D16*
X480825Y495950D03*
X499175Y495950D03*
X471650Y486775D03*
X490000Y486775D03*
X508350Y486775D03*
X480825Y477600D03*
X499175Y477600D03*
X471650Y468425D03*
X490000Y468425D03*
X508350Y468425D03*
X480825Y459250D03*
X499175Y459250D03*
D17*
X350000Y918000D03*
X340500Y918000D03*
X359500Y918000D03*
X350000Y892000D03*
X359500Y892000D03*
X340500Y892000D03*
D11*
X385000Y895500D03*
X385000Y914500D03*
D18*
X429500Y910000D03*
X410500Y910000D03*
X429500Y885000D03*
X410500Y885000D03*
X350500Y945000D03*
X369500Y945000D03*
X355500Y870000D03*
X374500Y870000D03*
G36*
X323182Y857575D02*
X313990Y848383D01*
X303384Y858989D01*
X312576Y868181D01*
X323182Y857575D01*
G37*
G36*
X336617Y871011D02*
X327425Y861819D01*
X316819Y872425D01*
X326011Y881617D01*
X336617Y871011D01*
G37*
X319500Y920000D03*
X300500Y920000D03*
D19*
X560000Y918000D03*
X463000Y918000D03*
D20*
X850000Y661500D03*
X850000Y686900D03*
X850000Y712300D03*
X850000Y737700D03*
X850000Y763100D03*
X850000Y788500D03*
D21*
X379600Y825600D02*
X360309Y825600D01*
X264950Y716853D02*
X264950Y533400D01*
X264950Y716853D02*
X284010Y735913D01*
X284010Y749301D02*
X360309Y825600D01*
X284010Y749301D02*
X284010Y735913D01*
X264950Y533400D02*
X243400Y533400D01*
X210000Y500000D01*
X210000Y462096D01*
X462000Y200096D02*
X462000Y179600D01*
X462000Y200096D02*
X210000Y462096D01*
D22*
X429500Y910000D02*
X437500Y918000D01*
X463000Y918000D01*
D21*
X429500Y910000D02*
X429500Y885000D01*
X410600Y825600D02*
X379600Y825600D01*
X410600Y825600D02*
X430000Y845000D01*
X430000Y860000D01*
X430000Y884500D01*
X429500Y885000D01*
X399500Y860000D02*
X389500Y870000D01*
X374500Y870000D01*
X399500Y860000D02*
X430000Y860000D01*
D23*
X270000Y430000D03*
D24*
X425000Y935000D03*
D25*
X311000Y252000D03*
D22*
X360500Y252000D02*
X467500Y145000D01*
X495000Y145000D01*
X510000Y160000D01*
X510000Y212500D02*
X585000Y287500D01*
X585000Y300000D01*
X360500Y252000D02*
X311000Y252000D01*
X510000Y212500D02*
X510000Y160000D01*
D26*
X585000Y300000D03*
D27*
X668680Y403680D02*
X745440Y403680D01*
X668680Y403680D02*
X610000Y345000D01*
D25*
X385000Y500000D03*
D27*
X395000Y345000D02*
X610000Y345000D01*
X395000Y345000D02*
X380000Y360000D01*
X380000Y495000D02*
X385000Y500000D01*
X380000Y495000D02*
X380000Y360000D01*
X394700Y640500D02*
X391700Y644400D01*
X355300Y640500D02*
X355300Y524700D01*
X360000Y520000D01*
D25*
X360000Y520000D03*
D27*
X355300Y640500D02*
X394700Y640500D01*
X355300Y721300D02*
X379600Y749400D01*
X355300Y721300D02*
X355300Y659500D01*
D28*
X359500Y892000D02*
X363000Y895500D01*
X385000Y895500D01*
D22*
X385000Y914500D02*
X381500Y918000D01*
D21*
X532000Y918000D02*
X560000Y918000D01*
X532000Y918000D02*
X490000Y960000D01*
X415000Y960000D01*
X385000Y930000D02*
X385000Y914500D01*
X385000Y930000D02*
X415000Y960000D01*
D22*
X381500Y918000D02*
X359500Y918000D01*
D28*
X321500Y918000D02*
X319500Y920000D01*
X321500Y918000D02*
X340500Y918000D01*
D22*
X275204Y865704D02*
X260500Y880409D01*
X260500Y899000D01*
X281500Y920000D01*
X300500Y920000D01*
D28*
X350000Y918000D02*
X350000Y928000D01*
X350000Y918000D02*
X350000Y944500D01*
X350500Y945000D01*
D22*
X317500Y945000D01*
X300500Y928000D02*
X300500Y920000D01*
X300500Y928000D02*
X317500Y945000D01*
D28*
X340500Y892000D02*
X340500Y874500D01*
X345000Y870000D01*
X355500Y870000D01*
X340500Y885500D02*
X340500Y892000D01*
X340500Y885500D02*
X326718Y871718D01*
D29*
X692500Y537500D03*
D30*
X670000Y515000D01*
D29*
X660000Y515000D03*
D30*
X670000Y515000D01*
D29*
X675000Y545000D03*
D30*
X630000Y500000D01*
X615000Y500000D01*
D29*
X615000Y500000D03*
D30*
X580000Y320000D02*
X665000Y235000D01*
X370000Y320000D02*
X295000Y395000D01*
X370000Y320000D02*
X580000Y320000D01*
X295000Y395000D02*
X295000Y505000D01*
D29*
X295000Y505000D03*
D30*
X665000Y235000D02*
X690000Y235000D01*
X710000Y255000D02*
X710000Y290000D01*
X720000Y300000D01*
X710000Y255000D02*
X690000Y235000D01*
D29*
X730000Y300000D03*
D30*
X720000Y300000D01*
D29*
X660000Y255000D03*
D30*
X585000Y330000D01*
X375000Y330000D02*
X305000Y400000D01*
X375000Y330000D02*
X585000Y330000D01*
X305000Y400000D02*
X305000Y500000D01*
X310000Y505000D01*
D29*
X310000Y505000D03*
M02*
