G04 EAGLE Gerber RS-274X export*
G75*
%MOMM*%
%FSLAX34Y34*%
%LPD*%
%INSilkscreen Top*%
%IPPOS*%
%AMOC8*
5,1,8,0,0,1.08239X$1,22.5*%
G01*
%ADD10C,0.101600*%
%ADD11C,0.127000*%
%ADD12R,0.476300X3.175000*%
%ADD13R,0.150000X0.300000*%
%ADD14R,0.300000X0.300000*%
%ADD15C,0.076200*%
%ADD16C,0.152400*%
%ADD17C,0.050800*%
%ADD18C,0.200000*%


D10*
X198001Y784408D02*
X195404Y784408D01*
X195305Y784410D01*
X195205Y784416D01*
X195106Y784425D01*
X195008Y784438D01*
X194910Y784455D01*
X194812Y784476D01*
X194716Y784501D01*
X194621Y784529D01*
X194527Y784561D01*
X194434Y784596D01*
X194342Y784635D01*
X194252Y784678D01*
X194164Y784723D01*
X194077Y784773D01*
X193993Y784825D01*
X193910Y784881D01*
X193830Y784939D01*
X193752Y785001D01*
X193677Y785066D01*
X193604Y785134D01*
X193534Y785204D01*
X193466Y785277D01*
X193401Y785352D01*
X193339Y785430D01*
X193281Y785510D01*
X193225Y785593D01*
X193173Y785677D01*
X193123Y785764D01*
X193078Y785852D01*
X193035Y785942D01*
X192996Y786034D01*
X192961Y786127D01*
X192929Y786221D01*
X192901Y786316D01*
X192876Y786412D01*
X192855Y786510D01*
X192838Y786608D01*
X192825Y786706D01*
X192816Y786805D01*
X192810Y786905D01*
X192808Y787004D01*
X192808Y793496D01*
X192810Y793595D01*
X192816Y793695D01*
X192825Y793794D01*
X192838Y793892D01*
X192855Y793990D01*
X192876Y794088D01*
X192901Y794184D01*
X192929Y794279D01*
X192961Y794373D01*
X192996Y794466D01*
X193035Y794558D01*
X193078Y794648D01*
X193123Y794736D01*
X193173Y794823D01*
X193225Y794907D01*
X193281Y794990D01*
X193339Y795070D01*
X193401Y795148D01*
X193466Y795223D01*
X193534Y795296D01*
X193604Y795366D01*
X193677Y795434D01*
X193752Y795499D01*
X193830Y795561D01*
X193910Y795619D01*
X193993Y795675D01*
X194077Y795727D01*
X194164Y795777D01*
X194252Y795822D01*
X194342Y795865D01*
X194434Y795904D01*
X194526Y795939D01*
X194621Y795971D01*
X194716Y795999D01*
X194812Y796024D01*
X194910Y796045D01*
X195008Y796062D01*
X195106Y796075D01*
X195205Y796084D01*
X195305Y796090D01*
X195404Y796092D01*
X198001Y796092D01*
X202366Y793496D02*
X205612Y796092D01*
X205612Y784408D01*
X208857Y784408D02*
X202366Y784408D01*
X250892Y701336D02*
X250892Y698739D01*
X250890Y698640D01*
X250884Y698540D01*
X250875Y698441D01*
X250862Y698343D01*
X250845Y698245D01*
X250824Y698147D01*
X250799Y698051D01*
X250771Y697956D01*
X250739Y697862D01*
X250704Y697769D01*
X250665Y697677D01*
X250622Y697587D01*
X250577Y697499D01*
X250527Y697412D01*
X250475Y697328D01*
X250419Y697245D01*
X250361Y697165D01*
X250299Y697087D01*
X250234Y697012D01*
X250166Y696939D01*
X250096Y696869D01*
X250023Y696801D01*
X249948Y696736D01*
X249870Y696674D01*
X249790Y696616D01*
X249707Y696560D01*
X249623Y696508D01*
X249536Y696458D01*
X249448Y696413D01*
X249358Y696370D01*
X249266Y696331D01*
X249173Y696296D01*
X249079Y696264D01*
X248984Y696236D01*
X248888Y696211D01*
X248790Y696190D01*
X248692Y696173D01*
X248594Y696160D01*
X248495Y696151D01*
X248395Y696145D01*
X248296Y696143D01*
X241804Y696143D01*
X241804Y696142D02*
X241705Y696144D01*
X241605Y696150D01*
X241506Y696159D01*
X241408Y696172D01*
X241310Y696190D01*
X241212Y696210D01*
X241116Y696235D01*
X241020Y696263D01*
X240926Y696295D01*
X240833Y696330D01*
X240742Y696369D01*
X240652Y696412D01*
X240563Y696457D01*
X240477Y696507D01*
X240392Y696559D01*
X240310Y696615D01*
X240230Y696674D01*
X240152Y696735D01*
X240076Y696800D01*
X240003Y696868D01*
X239933Y696938D01*
X239865Y697011D01*
X239800Y697087D01*
X239739Y697165D01*
X239680Y697245D01*
X239624Y697327D01*
X239572Y697412D01*
X239523Y697498D01*
X239477Y697587D01*
X239434Y697677D01*
X239395Y697768D01*
X239360Y697861D01*
X239328Y697955D01*
X239300Y698051D01*
X239275Y698147D01*
X239255Y698245D01*
X239237Y698343D01*
X239224Y698441D01*
X239215Y698540D01*
X239209Y698639D01*
X239207Y698739D01*
X239208Y698739D02*
X239208Y701336D01*
X239208Y709271D02*
X239210Y709378D01*
X239216Y709484D01*
X239226Y709590D01*
X239239Y709696D01*
X239257Y709802D01*
X239278Y709906D01*
X239303Y710010D01*
X239332Y710113D01*
X239364Y710214D01*
X239401Y710314D01*
X239441Y710413D01*
X239484Y710511D01*
X239531Y710607D01*
X239582Y710701D01*
X239636Y710793D01*
X239693Y710883D01*
X239753Y710971D01*
X239817Y711056D01*
X239884Y711139D01*
X239954Y711220D01*
X240026Y711298D01*
X240102Y711374D01*
X240180Y711446D01*
X240261Y711516D01*
X240344Y711583D01*
X240429Y711647D01*
X240517Y711707D01*
X240607Y711764D01*
X240699Y711818D01*
X240793Y711869D01*
X240889Y711916D01*
X240987Y711959D01*
X241086Y711999D01*
X241186Y712036D01*
X241287Y712068D01*
X241390Y712097D01*
X241494Y712122D01*
X241598Y712143D01*
X241704Y712161D01*
X241810Y712174D01*
X241916Y712184D01*
X242022Y712190D01*
X242129Y712192D01*
X239208Y709271D02*
X239210Y709150D01*
X239216Y709029D01*
X239226Y708909D01*
X239239Y708788D01*
X239257Y708669D01*
X239278Y708549D01*
X239303Y708431D01*
X239332Y708314D01*
X239365Y708197D01*
X239401Y708082D01*
X239442Y707968D01*
X239485Y707855D01*
X239533Y707743D01*
X239584Y707634D01*
X239639Y707526D01*
X239697Y707419D01*
X239758Y707315D01*
X239823Y707213D01*
X239891Y707113D01*
X239962Y707015D01*
X240036Y706919D01*
X240113Y706826D01*
X240194Y706736D01*
X240277Y706648D01*
X240363Y706563D01*
X240452Y706480D01*
X240543Y706401D01*
X240637Y706324D01*
X240733Y706251D01*
X240831Y706181D01*
X240932Y706114D01*
X241035Y706050D01*
X241140Y705990D01*
X241247Y705932D01*
X241355Y705879D01*
X241465Y705829D01*
X241577Y705783D01*
X241690Y705740D01*
X241805Y705701D01*
X244401Y711218D02*
X244323Y711297D01*
X244243Y711373D01*
X244160Y711446D01*
X244074Y711516D01*
X243987Y711583D01*
X243896Y711647D01*
X243804Y711707D01*
X243710Y711765D01*
X243613Y711819D01*
X243515Y711869D01*
X243415Y711916D01*
X243314Y711960D01*
X243211Y712000D01*
X243106Y712036D01*
X243001Y712068D01*
X242894Y712097D01*
X242787Y712122D01*
X242678Y712144D01*
X242569Y712161D01*
X242460Y712175D01*
X242350Y712184D01*
X242239Y712190D01*
X242129Y712192D01*
X244401Y711218D02*
X250892Y705701D01*
X250892Y712192D01*
X198001Y749408D02*
X195404Y749408D01*
X195305Y749410D01*
X195205Y749416D01*
X195106Y749425D01*
X195008Y749438D01*
X194910Y749455D01*
X194812Y749476D01*
X194716Y749501D01*
X194621Y749529D01*
X194527Y749561D01*
X194434Y749596D01*
X194342Y749635D01*
X194252Y749678D01*
X194164Y749723D01*
X194077Y749773D01*
X193993Y749825D01*
X193910Y749881D01*
X193830Y749939D01*
X193752Y750001D01*
X193677Y750066D01*
X193604Y750134D01*
X193534Y750204D01*
X193466Y750277D01*
X193401Y750352D01*
X193339Y750430D01*
X193281Y750510D01*
X193225Y750593D01*
X193173Y750677D01*
X193123Y750764D01*
X193078Y750852D01*
X193035Y750942D01*
X192996Y751034D01*
X192961Y751127D01*
X192929Y751221D01*
X192901Y751316D01*
X192876Y751412D01*
X192855Y751510D01*
X192838Y751608D01*
X192825Y751706D01*
X192816Y751805D01*
X192810Y751905D01*
X192808Y752004D01*
X192808Y758496D01*
X192810Y758595D01*
X192816Y758695D01*
X192825Y758794D01*
X192838Y758892D01*
X192855Y758990D01*
X192876Y759088D01*
X192901Y759184D01*
X192929Y759279D01*
X192961Y759373D01*
X192996Y759466D01*
X193035Y759558D01*
X193078Y759648D01*
X193123Y759736D01*
X193173Y759823D01*
X193225Y759907D01*
X193281Y759990D01*
X193339Y760070D01*
X193401Y760148D01*
X193466Y760223D01*
X193534Y760296D01*
X193604Y760366D01*
X193677Y760434D01*
X193752Y760499D01*
X193830Y760561D01*
X193910Y760619D01*
X193993Y760675D01*
X194077Y760727D01*
X194164Y760777D01*
X194252Y760822D01*
X194342Y760865D01*
X194434Y760904D01*
X194526Y760939D01*
X194621Y760971D01*
X194716Y760999D01*
X194812Y761024D01*
X194910Y761045D01*
X195008Y761062D01*
X195106Y761075D01*
X195205Y761084D01*
X195305Y761090D01*
X195404Y761092D01*
X198001Y761092D01*
X202366Y749408D02*
X205612Y749408D01*
X205725Y749410D01*
X205838Y749416D01*
X205951Y749426D01*
X206064Y749440D01*
X206176Y749457D01*
X206287Y749479D01*
X206397Y749504D01*
X206507Y749534D01*
X206615Y749567D01*
X206722Y749604D01*
X206828Y749644D01*
X206932Y749689D01*
X207035Y749737D01*
X207136Y749788D01*
X207235Y749843D01*
X207332Y749901D01*
X207427Y749963D01*
X207520Y750028D01*
X207610Y750096D01*
X207698Y750167D01*
X207784Y750242D01*
X207867Y750319D01*
X207947Y750399D01*
X208024Y750482D01*
X208099Y750568D01*
X208170Y750656D01*
X208238Y750746D01*
X208303Y750839D01*
X208365Y750934D01*
X208423Y751031D01*
X208478Y751130D01*
X208529Y751231D01*
X208577Y751334D01*
X208622Y751438D01*
X208662Y751544D01*
X208699Y751651D01*
X208732Y751759D01*
X208762Y751869D01*
X208787Y751979D01*
X208809Y752090D01*
X208826Y752202D01*
X208840Y752315D01*
X208850Y752428D01*
X208856Y752541D01*
X208858Y752654D01*
X208856Y752767D01*
X208850Y752880D01*
X208840Y752993D01*
X208826Y753106D01*
X208809Y753218D01*
X208787Y753329D01*
X208762Y753439D01*
X208732Y753549D01*
X208699Y753657D01*
X208662Y753764D01*
X208622Y753870D01*
X208577Y753974D01*
X208529Y754077D01*
X208478Y754178D01*
X208423Y754277D01*
X208365Y754374D01*
X208303Y754469D01*
X208238Y754562D01*
X208170Y754652D01*
X208099Y754740D01*
X208024Y754826D01*
X207947Y754909D01*
X207867Y754989D01*
X207784Y755066D01*
X207698Y755141D01*
X207610Y755212D01*
X207520Y755280D01*
X207427Y755345D01*
X207332Y755407D01*
X207235Y755465D01*
X207136Y755520D01*
X207035Y755571D01*
X206932Y755619D01*
X206828Y755664D01*
X206722Y755704D01*
X206615Y755741D01*
X206507Y755774D01*
X206397Y755804D01*
X206287Y755829D01*
X206176Y755851D01*
X206064Y755868D01*
X205951Y755882D01*
X205838Y755892D01*
X205725Y755898D01*
X205612Y755900D01*
X206261Y761092D02*
X202366Y761092D01*
X206261Y761092D02*
X206362Y761090D01*
X206462Y761084D01*
X206562Y761074D01*
X206662Y761061D01*
X206761Y761043D01*
X206860Y761022D01*
X206957Y760997D01*
X207054Y760968D01*
X207149Y760935D01*
X207243Y760899D01*
X207335Y760859D01*
X207426Y760816D01*
X207515Y760769D01*
X207602Y760719D01*
X207688Y760665D01*
X207771Y760608D01*
X207851Y760548D01*
X207930Y760485D01*
X208006Y760418D01*
X208079Y760349D01*
X208149Y760277D01*
X208217Y760203D01*
X208282Y760126D01*
X208343Y760046D01*
X208402Y759964D01*
X208457Y759880D01*
X208509Y759794D01*
X208558Y759706D01*
X208603Y759616D01*
X208645Y759524D01*
X208683Y759431D01*
X208717Y759336D01*
X208748Y759241D01*
X208775Y759144D01*
X208798Y759046D01*
X208818Y758947D01*
X208833Y758847D01*
X208845Y758747D01*
X208853Y758647D01*
X208857Y758546D01*
X208857Y758446D01*
X208853Y758345D01*
X208845Y758245D01*
X208833Y758145D01*
X208818Y758045D01*
X208798Y757946D01*
X208775Y757848D01*
X208748Y757751D01*
X208717Y757656D01*
X208683Y757561D01*
X208645Y757468D01*
X208603Y757376D01*
X208558Y757286D01*
X208509Y757198D01*
X208457Y757112D01*
X208402Y757028D01*
X208343Y756946D01*
X208282Y756866D01*
X208217Y756789D01*
X208149Y756715D01*
X208079Y756643D01*
X208006Y756574D01*
X207930Y756507D01*
X207851Y756444D01*
X207771Y756384D01*
X207688Y756327D01*
X207602Y756273D01*
X207515Y756223D01*
X207426Y756176D01*
X207335Y756133D01*
X207243Y756093D01*
X207149Y756057D01*
X207054Y756024D01*
X206957Y755995D01*
X206860Y755970D01*
X206761Y755949D01*
X206662Y755931D01*
X206562Y755918D01*
X206462Y755908D01*
X206362Y755902D01*
X206261Y755900D01*
X206261Y755899D02*
X203664Y755899D01*
X275592Y710701D02*
X275592Y708104D01*
X275590Y708005D01*
X275584Y707905D01*
X275575Y707806D01*
X275562Y707708D01*
X275545Y707610D01*
X275524Y707512D01*
X275499Y707416D01*
X275471Y707321D01*
X275439Y707227D01*
X275404Y707134D01*
X275365Y707042D01*
X275322Y706952D01*
X275277Y706864D01*
X275227Y706777D01*
X275175Y706693D01*
X275119Y706610D01*
X275061Y706530D01*
X274999Y706452D01*
X274934Y706377D01*
X274866Y706304D01*
X274796Y706234D01*
X274723Y706166D01*
X274648Y706101D01*
X274570Y706039D01*
X274490Y705981D01*
X274407Y705925D01*
X274323Y705873D01*
X274236Y705823D01*
X274148Y705778D01*
X274058Y705735D01*
X273966Y705696D01*
X273873Y705661D01*
X273779Y705629D01*
X273684Y705601D01*
X273588Y705576D01*
X273490Y705555D01*
X273392Y705538D01*
X273294Y705525D01*
X273195Y705516D01*
X273095Y705510D01*
X272996Y705508D01*
X266504Y705508D01*
X266405Y705510D01*
X266305Y705516D01*
X266206Y705525D01*
X266108Y705538D01*
X266010Y705556D01*
X265912Y705576D01*
X265816Y705601D01*
X265720Y705629D01*
X265626Y705661D01*
X265533Y705696D01*
X265442Y705735D01*
X265352Y705778D01*
X265263Y705823D01*
X265177Y705873D01*
X265092Y705925D01*
X265010Y705981D01*
X264930Y706040D01*
X264852Y706101D01*
X264776Y706166D01*
X264703Y706234D01*
X264633Y706304D01*
X264565Y706377D01*
X264500Y706453D01*
X264439Y706531D01*
X264380Y706611D01*
X264324Y706693D01*
X264272Y706778D01*
X264223Y706864D01*
X264177Y706953D01*
X264134Y707043D01*
X264095Y707134D01*
X264060Y707227D01*
X264028Y707321D01*
X264000Y707417D01*
X263975Y707513D01*
X263955Y707611D01*
X263937Y707709D01*
X263924Y707807D01*
X263915Y707906D01*
X263909Y708005D01*
X263907Y708105D01*
X263908Y708104D02*
X263908Y710701D01*
X263908Y717663D02*
X272996Y715066D01*
X272996Y721557D01*
X270399Y719610D02*
X275592Y719610D01*
D11*
X237038Y879174D02*
X286430Y928566D01*
X334699Y880298D01*
X276326Y839886D02*
X237038Y879174D01*
X276326Y839886D02*
X285307Y830905D01*
X334699Y880298D01*
X325718Y889277D02*
X276326Y839886D01*
X250509Y865704D02*
X299899Y915096D01*
D10*
X314776Y874249D02*
X314496Y871735D01*
X314776Y874249D02*
X319805Y869220D01*
X318408Y867823D02*
X321202Y870617D01*
X293858Y850816D02*
X293799Y850873D01*
X293737Y850927D01*
X293672Y850978D01*
X293606Y851026D01*
X293537Y851071D01*
X293466Y851112D01*
X293394Y851151D01*
X293319Y851186D01*
X293243Y851217D01*
X293166Y851245D01*
X293088Y851269D01*
X293008Y851290D01*
X292928Y851307D01*
X292847Y851320D01*
X292765Y851329D01*
X292683Y851335D01*
X292601Y851337D01*
X292519Y851335D01*
X292437Y851329D01*
X292355Y851320D01*
X292274Y851307D01*
X292194Y851290D01*
X292114Y851269D01*
X292036Y851245D01*
X291959Y851217D01*
X291883Y851186D01*
X291808Y851151D01*
X291736Y851112D01*
X291665Y851071D01*
X291596Y851026D01*
X291530Y850978D01*
X291465Y850927D01*
X291403Y850873D01*
X291344Y850816D01*
X291280Y850749D01*
X291218Y850680D01*
X291160Y850608D01*
X291104Y850534D01*
X291052Y850458D01*
X291002Y850379D01*
X290956Y850299D01*
X290913Y850217D01*
X290874Y850133D01*
X290838Y850048D01*
X290805Y849961D01*
X290776Y849873D01*
X290751Y849784D01*
X290729Y849694D01*
X290711Y849603D01*
X290696Y849511D01*
X290685Y849419D01*
X290678Y849327D01*
X290675Y849234D01*
X290676Y849142D01*
X290680Y849049D01*
X290688Y848957D01*
X290700Y848865D01*
X290715Y848774D01*
X290735Y848683D01*
X290757Y848593D01*
X290784Y848504D01*
X290814Y848417D01*
X290847Y848330D01*
X290884Y848245D01*
X290925Y848162D01*
X294417Y849419D02*
X294418Y849505D01*
X294414Y849591D01*
X294406Y849677D01*
X294395Y849762D01*
X294380Y849846D01*
X294361Y849930D01*
X294338Y850013D01*
X294311Y850095D01*
X294281Y850175D01*
X294248Y850254D01*
X294210Y850332D01*
X294170Y850408D01*
X294126Y850481D01*
X294078Y850553D01*
X294028Y850623D01*
X293974Y850690D01*
X293918Y850754D01*
X293859Y850817D01*
X294417Y849419D02*
X294836Y844251D01*
X297630Y847044D01*
D12*
G36*
X275206Y887032D02*
X278573Y890399D01*
X301022Y867950D01*
X297655Y864583D01*
X275206Y887032D01*
G37*
D10*
X279010Y899422D02*
X270748Y907684D01*
X275338Y912274D02*
X275797Y902635D01*
X275797Y906307D02*
X283600Y904012D01*
X280277Y913541D02*
X280736Y917672D01*
X288998Y909410D01*
X286703Y907115D02*
X291293Y911705D01*
D13*
X620700Y178500D03*
X608700Y178500D03*
D14*
X614700Y178500D03*
D10*
X627908Y154101D02*
X639592Y154101D01*
X639592Y159293D01*
X639592Y164007D02*
X639592Y169199D01*
X639592Y164007D02*
X627908Y164007D01*
X627908Y169199D01*
X633101Y167901D02*
X633101Y164007D01*
X627908Y173890D02*
X639592Y173890D01*
X627908Y173890D02*
X627908Y177135D01*
X627910Y177248D01*
X627916Y177361D01*
X627926Y177474D01*
X627940Y177587D01*
X627957Y177699D01*
X627979Y177810D01*
X628004Y177920D01*
X628034Y178030D01*
X628067Y178138D01*
X628104Y178245D01*
X628144Y178351D01*
X628189Y178455D01*
X628237Y178558D01*
X628288Y178659D01*
X628343Y178758D01*
X628401Y178855D01*
X628463Y178950D01*
X628528Y179043D01*
X628596Y179133D01*
X628667Y179221D01*
X628742Y179307D01*
X628819Y179390D01*
X628899Y179470D01*
X628982Y179547D01*
X629068Y179622D01*
X629156Y179693D01*
X629246Y179761D01*
X629339Y179826D01*
X629434Y179888D01*
X629531Y179946D01*
X629630Y180001D01*
X629731Y180052D01*
X629834Y180100D01*
X629938Y180145D01*
X630044Y180185D01*
X630151Y180222D01*
X630259Y180255D01*
X630369Y180285D01*
X630479Y180310D01*
X630590Y180332D01*
X630702Y180349D01*
X630815Y180363D01*
X630928Y180373D01*
X631041Y180379D01*
X631154Y180381D01*
X636346Y180381D01*
X636346Y180382D02*
X636459Y180380D01*
X636572Y180374D01*
X636685Y180364D01*
X636798Y180350D01*
X636910Y180333D01*
X637021Y180311D01*
X637131Y180286D01*
X637241Y180256D01*
X637349Y180223D01*
X637456Y180186D01*
X637562Y180146D01*
X637666Y180101D01*
X637769Y180053D01*
X637870Y180002D01*
X637969Y179947D01*
X638066Y179889D01*
X638161Y179827D01*
X638254Y179762D01*
X638344Y179694D01*
X638432Y179623D01*
X638518Y179548D01*
X638601Y179471D01*
X638681Y179391D01*
X638758Y179308D01*
X638833Y179222D01*
X638904Y179134D01*
X638972Y179044D01*
X639037Y178951D01*
X639099Y178856D01*
X639157Y178759D01*
X639212Y178660D01*
X639263Y178559D01*
X639311Y178456D01*
X639356Y178352D01*
X639396Y178246D01*
X639433Y178139D01*
X639466Y178031D01*
X639496Y177921D01*
X639521Y177811D01*
X639543Y177700D01*
X639560Y177588D01*
X639574Y177475D01*
X639584Y177362D01*
X639590Y177249D01*
X639592Y177136D01*
X639592Y177135D02*
X639592Y173890D01*
X630504Y185701D02*
X627908Y188946D01*
X639592Y188946D01*
X639592Y185701D02*
X639592Y192192D01*
D15*
X342500Y407000D02*
X325500Y407000D01*
X325500Y422000D02*
X342500Y422000D01*
X342500Y407000D01*
X325500Y407000D02*
X325500Y422000D01*
D10*
X325183Y377096D02*
X325183Y371904D01*
X325182Y377096D02*
X325184Y377209D01*
X325190Y377322D01*
X325200Y377435D01*
X325214Y377548D01*
X325231Y377660D01*
X325253Y377771D01*
X325278Y377881D01*
X325308Y377991D01*
X325341Y378099D01*
X325378Y378206D01*
X325418Y378312D01*
X325463Y378416D01*
X325511Y378519D01*
X325562Y378620D01*
X325617Y378719D01*
X325675Y378816D01*
X325737Y378911D01*
X325802Y379004D01*
X325870Y379094D01*
X325941Y379182D01*
X326016Y379268D01*
X326093Y379351D01*
X326173Y379431D01*
X326256Y379508D01*
X326342Y379583D01*
X326430Y379654D01*
X326520Y379722D01*
X326613Y379787D01*
X326708Y379849D01*
X326805Y379907D01*
X326904Y379962D01*
X327005Y380013D01*
X327108Y380061D01*
X327212Y380106D01*
X327318Y380146D01*
X327425Y380183D01*
X327533Y380216D01*
X327643Y380246D01*
X327753Y380271D01*
X327864Y380293D01*
X327976Y380310D01*
X328089Y380324D01*
X328202Y380334D01*
X328315Y380340D01*
X328428Y380342D01*
X328541Y380340D01*
X328654Y380334D01*
X328767Y380324D01*
X328880Y380310D01*
X328992Y380293D01*
X329103Y380271D01*
X329213Y380246D01*
X329323Y380216D01*
X329431Y380183D01*
X329538Y380146D01*
X329644Y380106D01*
X329748Y380061D01*
X329851Y380013D01*
X329952Y379962D01*
X330051Y379907D01*
X330148Y379849D01*
X330243Y379787D01*
X330336Y379722D01*
X330426Y379654D01*
X330514Y379583D01*
X330600Y379508D01*
X330683Y379431D01*
X330763Y379351D01*
X330840Y379268D01*
X330915Y379182D01*
X330986Y379094D01*
X331054Y379004D01*
X331119Y378911D01*
X331181Y378816D01*
X331239Y378719D01*
X331294Y378620D01*
X331345Y378519D01*
X331393Y378416D01*
X331438Y378312D01*
X331478Y378206D01*
X331515Y378099D01*
X331548Y377991D01*
X331578Y377881D01*
X331603Y377771D01*
X331625Y377660D01*
X331642Y377548D01*
X331656Y377435D01*
X331666Y377322D01*
X331672Y377209D01*
X331674Y377096D01*
X331674Y371904D01*
X331672Y371791D01*
X331666Y371678D01*
X331656Y371565D01*
X331642Y371452D01*
X331625Y371340D01*
X331603Y371229D01*
X331578Y371119D01*
X331548Y371009D01*
X331515Y370901D01*
X331478Y370794D01*
X331438Y370688D01*
X331393Y370584D01*
X331345Y370481D01*
X331294Y370380D01*
X331239Y370281D01*
X331181Y370184D01*
X331119Y370089D01*
X331054Y369996D01*
X330986Y369906D01*
X330915Y369818D01*
X330840Y369732D01*
X330763Y369649D01*
X330683Y369569D01*
X330600Y369492D01*
X330514Y369417D01*
X330426Y369346D01*
X330336Y369278D01*
X330243Y369213D01*
X330148Y369151D01*
X330051Y369093D01*
X329952Y369038D01*
X329851Y368987D01*
X329748Y368939D01*
X329644Y368894D01*
X329538Y368854D01*
X329431Y368817D01*
X329323Y368784D01*
X329213Y368754D01*
X329103Y368729D01*
X328992Y368707D01*
X328880Y368690D01*
X328767Y368676D01*
X328654Y368666D01*
X328541Y368660D01*
X328428Y368658D01*
X328315Y368660D01*
X328202Y368666D01*
X328089Y368676D01*
X327976Y368690D01*
X327864Y368707D01*
X327753Y368729D01*
X327643Y368754D01*
X327533Y368784D01*
X327425Y368817D01*
X327318Y368854D01*
X327212Y368894D01*
X327108Y368939D01*
X327005Y368987D01*
X326904Y369038D01*
X326805Y369093D01*
X326708Y369151D01*
X326613Y369213D01*
X326520Y369278D01*
X326430Y369346D01*
X326342Y369417D01*
X326256Y369492D01*
X326173Y369569D01*
X326093Y369649D01*
X326016Y369732D01*
X325941Y369818D01*
X325870Y369906D01*
X325802Y369996D01*
X325737Y370089D01*
X325675Y370184D01*
X325617Y370281D01*
X325562Y370380D01*
X325511Y370481D01*
X325463Y370584D01*
X325418Y370688D01*
X325378Y370794D01*
X325341Y370901D01*
X325308Y371009D01*
X325278Y371119D01*
X325253Y371229D01*
X325231Y371340D01*
X325214Y371452D01*
X325200Y371565D01*
X325190Y371678D01*
X325184Y371791D01*
X325182Y371904D01*
X330375Y371254D02*
X332972Y368658D01*
X336326Y377746D02*
X339572Y380342D01*
X339572Y368658D01*
X342817Y368658D02*
X336326Y368658D01*
X514807Y272996D02*
X514807Y267804D01*
X514807Y272996D02*
X514809Y273109D01*
X514815Y273222D01*
X514825Y273335D01*
X514839Y273448D01*
X514856Y273560D01*
X514878Y273671D01*
X514903Y273781D01*
X514933Y273891D01*
X514966Y273999D01*
X515003Y274106D01*
X515043Y274212D01*
X515088Y274316D01*
X515136Y274419D01*
X515187Y274520D01*
X515242Y274619D01*
X515300Y274716D01*
X515362Y274811D01*
X515427Y274904D01*
X515495Y274994D01*
X515566Y275082D01*
X515641Y275168D01*
X515718Y275251D01*
X515798Y275331D01*
X515881Y275408D01*
X515967Y275483D01*
X516055Y275554D01*
X516145Y275622D01*
X516238Y275687D01*
X516333Y275749D01*
X516430Y275807D01*
X516529Y275862D01*
X516630Y275913D01*
X516733Y275961D01*
X516837Y276006D01*
X516943Y276046D01*
X517050Y276083D01*
X517158Y276116D01*
X517268Y276146D01*
X517378Y276171D01*
X517489Y276193D01*
X517601Y276210D01*
X517714Y276224D01*
X517827Y276234D01*
X517940Y276240D01*
X518053Y276242D01*
X518166Y276240D01*
X518279Y276234D01*
X518392Y276224D01*
X518505Y276210D01*
X518617Y276193D01*
X518728Y276171D01*
X518838Y276146D01*
X518948Y276116D01*
X519056Y276083D01*
X519163Y276046D01*
X519269Y276006D01*
X519373Y275961D01*
X519476Y275913D01*
X519577Y275862D01*
X519676Y275807D01*
X519773Y275749D01*
X519868Y275687D01*
X519961Y275622D01*
X520051Y275554D01*
X520139Y275483D01*
X520225Y275408D01*
X520308Y275331D01*
X520388Y275251D01*
X520465Y275168D01*
X520540Y275082D01*
X520611Y274994D01*
X520679Y274904D01*
X520744Y274811D01*
X520806Y274716D01*
X520864Y274619D01*
X520919Y274520D01*
X520970Y274419D01*
X521018Y274316D01*
X521063Y274212D01*
X521103Y274106D01*
X521140Y273999D01*
X521173Y273891D01*
X521203Y273781D01*
X521228Y273671D01*
X521250Y273560D01*
X521267Y273448D01*
X521281Y273335D01*
X521291Y273222D01*
X521297Y273109D01*
X521299Y272996D01*
X521298Y272996D02*
X521298Y267804D01*
X521299Y267804D02*
X521297Y267691D01*
X521291Y267578D01*
X521281Y267465D01*
X521267Y267352D01*
X521250Y267240D01*
X521228Y267129D01*
X521203Y267019D01*
X521173Y266909D01*
X521140Y266801D01*
X521103Y266694D01*
X521063Y266588D01*
X521018Y266484D01*
X520970Y266381D01*
X520919Y266280D01*
X520864Y266181D01*
X520806Y266084D01*
X520744Y265989D01*
X520679Y265896D01*
X520611Y265806D01*
X520540Y265718D01*
X520465Y265632D01*
X520388Y265549D01*
X520308Y265469D01*
X520225Y265392D01*
X520139Y265317D01*
X520051Y265246D01*
X519961Y265178D01*
X519868Y265113D01*
X519773Y265051D01*
X519676Y264993D01*
X519577Y264938D01*
X519476Y264887D01*
X519373Y264839D01*
X519269Y264794D01*
X519163Y264754D01*
X519056Y264717D01*
X518948Y264684D01*
X518838Y264654D01*
X518728Y264629D01*
X518617Y264607D01*
X518505Y264590D01*
X518392Y264576D01*
X518279Y264566D01*
X518166Y264560D01*
X518053Y264558D01*
X517940Y264560D01*
X517827Y264566D01*
X517714Y264576D01*
X517601Y264590D01*
X517489Y264607D01*
X517378Y264629D01*
X517268Y264654D01*
X517158Y264684D01*
X517050Y264717D01*
X516943Y264754D01*
X516837Y264794D01*
X516733Y264839D01*
X516630Y264887D01*
X516529Y264938D01*
X516430Y264993D01*
X516333Y265051D01*
X516238Y265113D01*
X516145Y265178D01*
X516055Y265246D01*
X515967Y265317D01*
X515881Y265392D01*
X515798Y265469D01*
X515718Y265549D01*
X515641Y265632D01*
X515566Y265718D01*
X515495Y265806D01*
X515427Y265896D01*
X515362Y265989D01*
X515300Y266084D01*
X515242Y266181D01*
X515187Y266280D01*
X515136Y266381D01*
X515088Y266484D01*
X515043Y266588D01*
X515003Y266694D01*
X514966Y266801D01*
X514933Y266909D01*
X514903Y267019D01*
X514878Y267129D01*
X514856Y267240D01*
X514839Y267352D01*
X514825Y267465D01*
X514815Y267578D01*
X514809Y267691D01*
X514807Y267804D01*
X520000Y267154D02*
X522596Y264558D01*
X532442Y273321D02*
X532440Y273428D01*
X532434Y273534D01*
X532424Y273640D01*
X532411Y273746D01*
X532393Y273852D01*
X532372Y273956D01*
X532347Y274060D01*
X532318Y274163D01*
X532286Y274264D01*
X532249Y274364D01*
X532209Y274463D01*
X532166Y274561D01*
X532119Y274657D01*
X532068Y274751D01*
X532014Y274843D01*
X531957Y274933D01*
X531897Y275021D01*
X531833Y275106D01*
X531766Y275189D01*
X531696Y275270D01*
X531624Y275348D01*
X531548Y275424D01*
X531470Y275496D01*
X531389Y275566D01*
X531306Y275633D01*
X531221Y275697D01*
X531133Y275757D01*
X531043Y275814D01*
X530951Y275868D01*
X530857Y275919D01*
X530761Y275966D01*
X530663Y276009D01*
X530564Y276049D01*
X530464Y276086D01*
X530363Y276118D01*
X530260Y276147D01*
X530156Y276172D01*
X530052Y276193D01*
X529946Y276211D01*
X529840Y276224D01*
X529734Y276234D01*
X529628Y276240D01*
X529521Y276242D01*
X529400Y276240D01*
X529279Y276234D01*
X529159Y276224D01*
X529038Y276211D01*
X528919Y276193D01*
X528799Y276172D01*
X528681Y276147D01*
X528564Y276118D01*
X528447Y276085D01*
X528332Y276049D01*
X528218Y276008D01*
X528105Y275965D01*
X527993Y275917D01*
X527884Y275866D01*
X527776Y275811D01*
X527669Y275753D01*
X527565Y275692D01*
X527463Y275627D01*
X527363Y275559D01*
X527265Y275488D01*
X527169Y275414D01*
X527076Y275337D01*
X526986Y275256D01*
X526898Y275173D01*
X526813Y275087D01*
X526730Y274998D01*
X526651Y274907D01*
X526574Y274813D01*
X526501Y274717D01*
X526431Y274619D01*
X526364Y274518D01*
X526300Y274415D01*
X526240Y274310D01*
X526183Y274203D01*
X526129Y274095D01*
X526079Y273985D01*
X526033Y273873D01*
X525990Y273760D01*
X525951Y273645D01*
X531469Y271049D02*
X531548Y271126D01*
X531624Y271207D01*
X531697Y271290D01*
X531767Y271375D01*
X531834Y271463D01*
X531898Y271553D01*
X531958Y271645D01*
X532015Y271740D01*
X532069Y271836D01*
X532120Y271934D01*
X532167Y272034D01*
X532211Y272136D01*
X532251Y272239D01*
X532287Y272343D01*
X532319Y272449D01*
X532348Y272555D01*
X532373Y272663D01*
X532395Y272771D01*
X532412Y272881D01*
X532426Y272990D01*
X532435Y273100D01*
X532441Y273211D01*
X532443Y273321D01*
X531468Y271049D02*
X525951Y264558D01*
X532442Y264558D01*
X585408Y649658D02*
X597092Y649658D01*
X585408Y649658D02*
X585408Y652904D01*
X585410Y653017D01*
X585416Y653130D01*
X585426Y653243D01*
X585440Y653356D01*
X585457Y653468D01*
X585479Y653579D01*
X585504Y653689D01*
X585534Y653799D01*
X585567Y653907D01*
X585604Y654014D01*
X585644Y654120D01*
X585689Y654224D01*
X585737Y654327D01*
X585788Y654428D01*
X585843Y654527D01*
X585901Y654624D01*
X585963Y654719D01*
X586028Y654812D01*
X586096Y654902D01*
X586167Y654990D01*
X586242Y655076D01*
X586319Y655159D01*
X586399Y655239D01*
X586482Y655316D01*
X586568Y655391D01*
X586656Y655462D01*
X586746Y655530D01*
X586839Y655595D01*
X586934Y655657D01*
X587031Y655715D01*
X587130Y655770D01*
X587231Y655821D01*
X587334Y655869D01*
X587438Y655914D01*
X587544Y655954D01*
X587651Y655991D01*
X587759Y656024D01*
X587869Y656054D01*
X587979Y656079D01*
X588090Y656101D01*
X588202Y656118D01*
X588315Y656132D01*
X588428Y656142D01*
X588541Y656148D01*
X588654Y656150D01*
X588767Y656148D01*
X588880Y656142D01*
X588993Y656132D01*
X589106Y656118D01*
X589218Y656101D01*
X589329Y656079D01*
X589439Y656054D01*
X589549Y656024D01*
X589657Y655991D01*
X589764Y655954D01*
X589870Y655914D01*
X589974Y655869D01*
X590077Y655821D01*
X590178Y655770D01*
X590277Y655715D01*
X590374Y655657D01*
X590469Y655595D01*
X590562Y655530D01*
X590652Y655462D01*
X590740Y655391D01*
X590826Y655316D01*
X590909Y655239D01*
X590989Y655159D01*
X591066Y655076D01*
X591141Y654990D01*
X591212Y654902D01*
X591280Y654812D01*
X591345Y654719D01*
X591407Y654624D01*
X591465Y654527D01*
X591520Y654428D01*
X591571Y654327D01*
X591619Y654224D01*
X591664Y654120D01*
X591704Y654014D01*
X591741Y653907D01*
X591774Y653799D01*
X591804Y653689D01*
X591829Y653579D01*
X591851Y653468D01*
X591868Y653356D01*
X591882Y653243D01*
X591892Y653130D01*
X591898Y653017D01*
X591900Y652904D01*
X591899Y652904D02*
X591899Y649658D01*
X591899Y653553D02*
X597092Y656149D01*
X588004Y661014D02*
X585408Y664260D01*
X597092Y664260D01*
X597092Y667505D02*
X597092Y661014D01*
X305165Y622092D02*
X305165Y610408D01*
X305165Y622092D02*
X308410Y622092D01*
X308523Y622090D01*
X308636Y622084D01*
X308749Y622074D01*
X308862Y622060D01*
X308974Y622043D01*
X309085Y622021D01*
X309195Y621996D01*
X309305Y621966D01*
X309413Y621933D01*
X309520Y621896D01*
X309626Y621856D01*
X309730Y621811D01*
X309833Y621763D01*
X309934Y621712D01*
X310033Y621657D01*
X310130Y621599D01*
X310225Y621537D01*
X310318Y621472D01*
X310408Y621404D01*
X310496Y621333D01*
X310582Y621258D01*
X310665Y621181D01*
X310745Y621101D01*
X310822Y621018D01*
X310897Y620932D01*
X310968Y620844D01*
X311036Y620754D01*
X311101Y620661D01*
X311163Y620566D01*
X311221Y620469D01*
X311276Y620370D01*
X311327Y620269D01*
X311375Y620166D01*
X311420Y620062D01*
X311460Y619956D01*
X311497Y619849D01*
X311530Y619741D01*
X311560Y619631D01*
X311585Y619521D01*
X311607Y619410D01*
X311624Y619298D01*
X311638Y619185D01*
X311648Y619072D01*
X311654Y618959D01*
X311656Y618846D01*
X311654Y618733D01*
X311648Y618620D01*
X311638Y618507D01*
X311624Y618394D01*
X311607Y618282D01*
X311585Y618171D01*
X311560Y618061D01*
X311530Y617951D01*
X311497Y617843D01*
X311460Y617736D01*
X311420Y617630D01*
X311375Y617526D01*
X311327Y617423D01*
X311276Y617322D01*
X311221Y617223D01*
X311163Y617126D01*
X311101Y617031D01*
X311036Y616938D01*
X310968Y616848D01*
X310897Y616760D01*
X310822Y616674D01*
X310745Y616591D01*
X310665Y616511D01*
X310582Y616434D01*
X310496Y616359D01*
X310408Y616288D01*
X310318Y616220D01*
X310225Y616155D01*
X310130Y616093D01*
X310033Y616035D01*
X309934Y615980D01*
X309833Y615929D01*
X309730Y615881D01*
X309626Y615836D01*
X309520Y615796D01*
X309413Y615759D01*
X309305Y615726D01*
X309195Y615696D01*
X309085Y615671D01*
X308974Y615649D01*
X308862Y615632D01*
X308749Y615618D01*
X308636Y615608D01*
X308523Y615602D01*
X308410Y615600D01*
X308410Y615601D02*
X305165Y615601D01*
X309059Y615601D02*
X311656Y610408D01*
X316521Y619496D02*
X319766Y622092D01*
X319766Y610408D01*
X316521Y610408D02*
X323012Y610408D01*
X327951Y616250D02*
X327954Y616480D01*
X327962Y616710D01*
X327976Y616939D01*
X327995Y617168D01*
X328020Y617397D01*
X328050Y617624D01*
X328085Y617852D01*
X328126Y618078D01*
X328172Y618303D01*
X328224Y618527D01*
X328281Y618749D01*
X328343Y618971D01*
X328411Y619190D01*
X328484Y619408D01*
X328562Y619625D01*
X328645Y619839D01*
X328733Y620051D01*
X328826Y620261D01*
X328925Y620469D01*
X328924Y620469D02*
X328957Y620559D01*
X328993Y620648D01*
X329033Y620736D01*
X329077Y620821D01*
X329124Y620905D01*
X329174Y620987D01*
X329228Y621067D01*
X329284Y621144D01*
X329344Y621220D01*
X329407Y621293D01*
X329472Y621363D01*
X329541Y621431D01*
X329612Y621495D01*
X329685Y621557D01*
X329761Y621616D01*
X329839Y621672D01*
X329920Y621725D01*
X330002Y621774D01*
X330086Y621820D01*
X330173Y621863D01*
X330260Y621902D01*
X330350Y621938D01*
X330440Y621970D01*
X330532Y621998D01*
X330625Y622023D01*
X330719Y622044D01*
X330813Y622061D01*
X330908Y622075D01*
X331004Y622084D01*
X331100Y622090D01*
X331196Y622092D01*
X331292Y622090D01*
X331388Y622084D01*
X331484Y622075D01*
X331579Y622061D01*
X331673Y622044D01*
X331767Y622023D01*
X331860Y621998D01*
X331952Y621970D01*
X332042Y621938D01*
X332132Y621902D01*
X332219Y621863D01*
X332306Y621820D01*
X332390Y621774D01*
X332472Y621725D01*
X332553Y621672D01*
X332631Y621616D01*
X332707Y621557D01*
X332780Y621495D01*
X332851Y621431D01*
X332920Y621363D01*
X332985Y621293D01*
X333048Y621220D01*
X333108Y621144D01*
X333164Y621067D01*
X333218Y620987D01*
X333268Y620905D01*
X333315Y620821D01*
X333359Y620736D01*
X333399Y620648D01*
X333435Y620559D01*
X333468Y620469D01*
X333469Y620469D02*
X333568Y620262D01*
X333661Y620052D01*
X333749Y619839D01*
X333832Y619625D01*
X333910Y619409D01*
X333983Y619191D01*
X334051Y618971D01*
X334113Y618750D01*
X334170Y618527D01*
X334222Y618303D01*
X334268Y618078D01*
X334309Y617852D01*
X334344Y617625D01*
X334374Y617397D01*
X334399Y617168D01*
X334418Y616939D01*
X334432Y616710D01*
X334440Y616480D01*
X334443Y616250D01*
X327951Y616250D02*
X327954Y616020D01*
X327962Y615790D01*
X327976Y615561D01*
X327995Y615332D01*
X328020Y615103D01*
X328050Y614875D01*
X328085Y614648D01*
X328126Y614422D01*
X328172Y614197D01*
X328224Y613973D01*
X328281Y613750D01*
X328343Y613529D01*
X328411Y613309D01*
X328484Y613091D01*
X328562Y612875D01*
X328645Y612661D01*
X328733Y612449D01*
X328826Y612238D01*
X328925Y612031D01*
X328924Y612031D02*
X328957Y611941D01*
X328993Y611852D01*
X329034Y611764D01*
X329077Y611679D01*
X329124Y611595D01*
X329174Y611513D01*
X329228Y611433D01*
X329284Y611356D01*
X329344Y611280D01*
X329407Y611207D01*
X329472Y611137D01*
X329541Y611069D01*
X329612Y611005D01*
X329685Y610943D01*
X329761Y610884D01*
X329839Y610828D01*
X329920Y610775D01*
X330002Y610726D01*
X330086Y610680D01*
X330173Y610637D01*
X330260Y610598D01*
X330350Y610562D01*
X330440Y610530D01*
X330532Y610502D01*
X330625Y610477D01*
X330719Y610456D01*
X330813Y610439D01*
X330908Y610425D01*
X331004Y610416D01*
X331100Y610410D01*
X331196Y610408D01*
X333468Y612031D02*
X333567Y612238D01*
X333660Y612449D01*
X333748Y612661D01*
X333831Y612875D01*
X333909Y613091D01*
X333982Y613309D01*
X334050Y613529D01*
X334112Y613750D01*
X334169Y613973D01*
X334221Y614197D01*
X334267Y614422D01*
X334308Y614648D01*
X334343Y614875D01*
X334373Y615103D01*
X334398Y615332D01*
X334417Y615561D01*
X334431Y615790D01*
X334439Y616020D01*
X334442Y616250D01*
X333468Y612031D02*
X333435Y611941D01*
X333399Y611852D01*
X333359Y611764D01*
X333315Y611679D01*
X333268Y611595D01*
X333218Y611513D01*
X333164Y611433D01*
X333108Y611356D01*
X333048Y611280D01*
X332985Y611207D01*
X332920Y611137D01*
X332851Y611069D01*
X332780Y611005D01*
X332707Y610943D01*
X332631Y610884D01*
X332553Y610828D01*
X332472Y610775D01*
X332390Y610726D01*
X332306Y610680D01*
X332219Y610637D01*
X332132Y610598D01*
X332042Y610562D01*
X331952Y610530D01*
X331860Y610502D01*
X331767Y610477D01*
X331673Y610456D01*
X331579Y610439D01*
X331484Y610425D01*
X331388Y610416D01*
X331292Y610410D01*
X331196Y610408D01*
X328600Y613004D02*
X333793Y619496D01*
X597908Y309465D02*
X609592Y309465D01*
X597908Y309465D02*
X597908Y312710D01*
X597910Y312823D01*
X597916Y312936D01*
X597926Y313049D01*
X597940Y313162D01*
X597957Y313274D01*
X597979Y313385D01*
X598004Y313495D01*
X598034Y313605D01*
X598067Y313713D01*
X598104Y313820D01*
X598144Y313926D01*
X598189Y314030D01*
X598237Y314133D01*
X598288Y314234D01*
X598343Y314333D01*
X598401Y314430D01*
X598463Y314525D01*
X598528Y314618D01*
X598596Y314708D01*
X598667Y314796D01*
X598742Y314882D01*
X598819Y314965D01*
X598899Y315045D01*
X598982Y315122D01*
X599068Y315197D01*
X599156Y315268D01*
X599246Y315336D01*
X599339Y315401D01*
X599434Y315463D01*
X599531Y315521D01*
X599630Y315576D01*
X599731Y315627D01*
X599834Y315675D01*
X599938Y315720D01*
X600044Y315760D01*
X600151Y315797D01*
X600259Y315830D01*
X600369Y315860D01*
X600479Y315885D01*
X600590Y315907D01*
X600702Y315924D01*
X600815Y315938D01*
X600928Y315948D01*
X601041Y315954D01*
X601154Y315956D01*
X601267Y315954D01*
X601380Y315948D01*
X601493Y315938D01*
X601606Y315924D01*
X601718Y315907D01*
X601829Y315885D01*
X601939Y315860D01*
X602049Y315830D01*
X602157Y315797D01*
X602264Y315760D01*
X602370Y315720D01*
X602474Y315675D01*
X602577Y315627D01*
X602678Y315576D01*
X602777Y315521D01*
X602874Y315463D01*
X602969Y315401D01*
X603062Y315336D01*
X603152Y315268D01*
X603240Y315197D01*
X603326Y315122D01*
X603409Y315045D01*
X603489Y314965D01*
X603566Y314882D01*
X603641Y314796D01*
X603712Y314708D01*
X603780Y314618D01*
X603845Y314525D01*
X603907Y314430D01*
X603965Y314333D01*
X604020Y314234D01*
X604071Y314133D01*
X604119Y314030D01*
X604164Y313926D01*
X604204Y313820D01*
X604241Y313713D01*
X604274Y313605D01*
X604304Y313495D01*
X604329Y313385D01*
X604351Y313274D01*
X604368Y313162D01*
X604382Y313049D01*
X604392Y312936D01*
X604398Y312823D01*
X604400Y312710D01*
X604399Y312710D02*
X604399Y309465D01*
X604399Y313359D02*
X609592Y315956D01*
X600504Y320821D02*
X597908Y324066D01*
X609592Y324066D01*
X609592Y320821D02*
X609592Y327312D01*
X600504Y332251D02*
X597908Y335496D01*
X609592Y335496D01*
X609592Y332251D02*
X609592Y338742D01*
X302092Y277058D02*
X290408Y277058D01*
X290408Y280304D01*
X290410Y280417D01*
X290416Y280530D01*
X290426Y280643D01*
X290440Y280756D01*
X290457Y280868D01*
X290479Y280979D01*
X290504Y281089D01*
X290534Y281199D01*
X290567Y281307D01*
X290604Y281414D01*
X290644Y281520D01*
X290689Y281624D01*
X290737Y281727D01*
X290788Y281828D01*
X290843Y281927D01*
X290901Y282024D01*
X290963Y282119D01*
X291028Y282212D01*
X291096Y282302D01*
X291167Y282390D01*
X291242Y282476D01*
X291319Y282559D01*
X291399Y282639D01*
X291482Y282716D01*
X291568Y282791D01*
X291656Y282862D01*
X291746Y282930D01*
X291839Y282995D01*
X291934Y283057D01*
X292031Y283115D01*
X292130Y283170D01*
X292231Y283221D01*
X292334Y283269D01*
X292438Y283314D01*
X292544Y283354D01*
X292651Y283391D01*
X292759Y283424D01*
X292869Y283454D01*
X292979Y283479D01*
X293090Y283501D01*
X293202Y283518D01*
X293315Y283532D01*
X293428Y283542D01*
X293541Y283548D01*
X293654Y283550D01*
X293767Y283548D01*
X293880Y283542D01*
X293993Y283532D01*
X294106Y283518D01*
X294218Y283501D01*
X294329Y283479D01*
X294439Y283454D01*
X294549Y283424D01*
X294657Y283391D01*
X294764Y283354D01*
X294870Y283314D01*
X294974Y283269D01*
X295077Y283221D01*
X295178Y283170D01*
X295277Y283115D01*
X295374Y283057D01*
X295469Y282995D01*
X295562Y282930D01*
X295652Y282862D01*
X295740Y282791D01*
X295826Y282716D01*
X295909Y282639D01*
X295989Y282559D01*
X296066Y282476D01*
X296141Y282390D01*
X296212Y282302D01*
X296280Y282212D01*
X296345Y282119D01*
X296407Y282024D01*
X296465Y281927D01*
X296520Y281828D01*
X296571Y281727D01*
X296619Y281624D01*
X296664Y281520D01*
X296704Y281414D01*
X296741Y281307D01*
X296774Y281199D01*
X296804Y281089D01*
X296829Y280979D01*
X296851Y280868D01*
X296868Y280756D01*
X296882Y280643D01*
X296892Y280530D01*
X296898Y280417D01*
X296900Y280304D01*
X296899Y280304D02*
X296899Y277058D01*
X296899Y280953D02*
X302092Y283549D01*
X293004Y288414D02*
X290408Y291660D01*
X302092Y291660D01*
X302092Y294905D02*
X302092Y288414D01*
X290408Y303414D02*
X290410Y303521D01*
X290416Y303627D01*
X290426Y303733D01*
X290439Y303839D01*
X290457Y303945D01*
X290478Y304049D01*
X290503Y304153D01*
X290532Y304256D01*
X290564Y304357D01*
X290601Y304457D01*
X290641Y304556D01*
X290684Y304654D01*
X290731Y304750D01*
X290782Y304844D01*
X290836Y304936D01*
X290893Y305026D01*
X290953Y305114D01*
X291017Y305199D01*
X291084Y305282D01*
X291154Y305363D01*
X291226Y305441D01*
X291302Y305517D01*
X291380Y305589D01*
X291461Y305659D01*
X291544Y305726D01*
X291629Y305790D01*
X291717Y305850D01*
X291807Y305907D01*
X291899Y305961D01*
X291993Y306012D01*
X292089Y306059D01*
X292187Y306102D01*
X292286Y306142D01*
X292386Y306179D01*
X292487Y306211D01*
X292590Y306240D01*
X292694Y306265D01*
X292798Y306286D01*
X292904Y306304D01*
X293010Y306317D01*
X293116Y306327D01*
X293222Y306333D01*
X293329Y306335D01*
X290408Y303414D02*
X290410Y303293D01*
X290416Y303172D01*
X290426Y303052D01*
X290439Y302931D01*
X290457Y302812D01*
X290478Y302692D01*
X290503Y302574D01*
X290532Y302457D01*
X290565Y302340D01*
X290601Y302225D01*
X290642Y302111D01*
X290685Y301998D01*
X290733Y301886D01*
X290784Y301777D01*
X290839Y301669D01*
X290897Y301562D01*
X290958Y301458D01*
X291023Y301356D01*
X291091Y301256D01*
X291162Y301158D01*
X291236Y301062D01*
X291313Y300969D01*
X291394Y300879D01*
X291477Y300791D01*
X291563Y300706D01*
X291652Y300623D01*
X291743Y300544D01*
X291837Y300467D01*
X291933Y300394D01*
X292031Y300324D01*
X292132Y300257D01*
X292235Y300193D01*
X292340Y300133D01*
X292447Y300075D01*
X292555Y300022D01*
X292665Y299972D01*
X292777Y299926D01*
X292890Y299883D01*
X293005Y299844D01*
X295601Y305361D02*
X295523Y305440D01*
X295443Y305516D01*
X295360Y305589D01*
X295274Y305659D01*
X295187Y305726D01*
X295096Y305790D01*
X295004Y305850D01*
X294910Y305908D01*
X294813Y305962D01*
X294715Y306012D01*
X294615Y306059D01*
X294514Y306103D01*
X294411Y306143D01*
X294306Y306179D01*
X294201Y306211D01*
X294094Y306240D01*
X293987Y306265D01*
X293878Y306287D01*
X293769Y306304D01*
X293660Y306318D01*
X293550Y306327D01*
X293439Y306333D01*
X293329Y306335D01*
X295601Y305362D02*
X302092Y299844D01*
X302092Y306335D01*
X324058Y392908D02*
X324058Y404592D01*
X327304Y404592D01*
X327417Y404590D01*
X327530Y404584D01*
X327643Y404574D01*
X327756Y404560D01*
X327868Y404543D01*
X327979Y404521D01*
X328089Y404496D01*
X328199Y404466D01*
X328307Y404433D01*
X328414Y404396D01*
X328520Y404356D01*
X328624Y404311D01*
X328727Y404263D01*
X328828Y404212D01*
X328927Y404157D01*
X329024Y404099D01*
X329119Y404037D01*
X329212Y403972D01*
X329302Y403904D01*
X329390Y403833D01*
X329476Y403758D01*
X329559Y403681D01*
X329639Y403601D01*
X329716Y403518D01*
X329791Y403432D01*
X329862Y403344D01*
X329930Y403254D01*
X329995Y403161D01*
X330057Y403066D01*
X330115Y402969D01*
X330170Y402870D01*
X330221Y402769D01*
X330269Y402666D01*
X330314Y402562D01*
X330354Y402456D01*
X330391Y402349D01*
X330424Y402241D01*
X330454Y402131D01*
X330479Y402021D01*
X330501Y401910D01*
X330518Y401798D01*
X330532Y401685D01*
X330542Y401572D01*
X330548Y401459D01*
X330550Y401346D01*
X330548Y401233D01*
X330542Y401120D01*
X330532Y401007D01*
X330518Y400894D01*
X330501Y400782D01*
X330479Y400671D01*
X330454Y400561D01*
X330424Y400451D01*
X330391Y400343D01*
X330354Y400236D01*
X330314Y400130D01*
X330269Y400026D01*
X330221Y399923D01*
X330170Y399822D01*
X330115Y399723D01*
X330057Y399626D01*
X329995Y399531D01*
X329930Y399438D01*
X329862Y399348D01*
X329791Y399260D01*
X329716Y399174D01*
X329639Y399091D01*
X329559Y399011D01*
X329476Y398934D01*
X329390Y398859D01*
X329302Y398788D01*
X329212Y398720D01*
X329119Y398655D01*
X329024Y398593D01*
X328927Y398535D01*
X328828Y398480D01*
X328727Y398429D01*
X328624Y398381D01*
X328520Y398336D01*
X328414Y398296D01*
X328307Y398259D01*
X328199Y398226D01*
X328089Y398196D01*
X327979Y398171D01*
X327868Y398149D01*
X327756Y398132D01*
X327643Y398118D01*
X327530Y398108D01*
X327417Y398102D01*
X327304Y398100D01*
X327304Y398101D02*
X324058Y398101D01*
X327953Y398101D02*
X330549Y392908D01*
X341905Y401671D02*
X341903Y401778D01*
X341897Y401884D01*
X341887Y401990D01*
X341874Y402096D01*
X341856Y402202D01*
X341835Y402306D01*
X341810Y402410D01*
X341781Y402513D01*
X341749Y402614D01*
X341712Y402714D01*
X341672Y402813D01*
X341629Y402911D01*
X341582Y403007D01*
X341531Y403101D01*
X341477Y403193D01*
X341420Y403283D01*
X341360Y403371D01*
X341296Y403456D01*
X341229Y403539D01*
X341159Y403620D01*
X341087Y403698D01*
X341011Y403774D01*
X340933Y403846D01*
X340852Y403916D01*
X340769Y403983D01*
X340684Y404047D01*
X340596Y404107D01*
X340506Y404164D01*
X340414Y404218D01*
X340320Y404269D01*
X340224Y404316D01*
X340126Y404359D01*
X340027Y404399D01*
X339927Y404436D01*
X339826Y404468D01*
X339723Y404497D01*
X339619Y404522D01*
X339515Y404543D01*
X339409Y404561D01*
X339303Y404574D01*
X339197Y404584D01*
X339091Y404590D01*
X338984Y404592D01*
X338863Y404590D01*
X338742Y404584D01*
X338622Y404574D01*
X338501Y404561D01*
X338382Y404543D01*
X338262Y404522D01*
X338144Y404497D01*
X338027Y404468D01*
X337910Y404435D01*
X337795Y404399D01*
X337681Y404358D01*
X337568Y404315D01*
X337456Y404267D01*
X337347Y404216D01*
X337239Y404161D01*
X337132Y404103D01*
X337028Y404042D01*
X336926Y403977D01*
X336826Y403909D01*
X336728Y403838D01*
X336632Y403764D01*
X336539Y403687D01*
X336449Y403606D01*
X336361Y403523D01*
X336276Y403437D01*
X336193Y403348D01*
X336114Y403257D01*
X336037Y403163D01*
X335964Y403067D01*
X335894Y402969D01*
X335827Y402868D01*
X335763Y402765D01*
X335703Y402660D01*
X335646Y402553D01*
X335592Y402445D01*
X335542Y402335D01*
X335496Y402223D01*
X335453Y402110D01*
X335414Y401995D01*
X340932Y399399D02*
X341011Y399476D01*
X341087Y399557D01*
X341160Y399640D01*
X341230Y399725D01*
X341297Y399813D01*
X341361Y399903D01*
X341421Y399995D01*
X341478Y400090D01*
X341532Y400186D01*
X341583Y400284D01*
X341630Y400384D01*
X341674Y400486D01*
X341714Y400589D01*
X341750Y400693D01*
X341782Y400799D01*
X341811Y400905D01*
X341836Y401013D01*
X341858Y401121D01*
X341875Y401231D01*
X341889Y401340D01*
X341898Y401450D01*
X341904Y401561D01*
X341906Y401671D01*
X340932Y399399D02*
X335414Y392908D01*
X341905Y392908D01*
X662908Y643295D02*
X674592Y643295D01*
X662908Y643295D02*
X662908Y646540D01*
X662910Y646653D01*
X662916Y646766D01*
X662926Y646879D01*
X662940Y646992D01*
X662957Y647104D01*
X662979Y647215D01*
X663004Y647325D01*
X663034Y647435D01*
X663067Y647543D01*
X663104Y647650D01*
X663144Y647756D01*
X663189Y647860D01*
X663237Y647963D01*
X663288Y648064D01*
X663343Y648163D01*
X663401Y648260D01*
X663463Y648355D01*
X663528Y648448D01*
X663596Y648538D01*
X663667Y648626D01*
X663742Y648712D01*
X663819Y648795D01*
X663899Y648875D01*
X663982Y648952D01*
X664068Y649027D01*
X664156Y649098D01*
X664246Y649166D01*
X664339Y649231D01*
X664434Y649293D01*
X664531Y649351D01*
X664630Y649406D01*
X664731Y649457D01*
X664834Y649505D01*
X664938Y649550D01*
X665044Y649590D01*
X665151Y649627D01*
X665259Y649660D01*
X665369Y649690D01*
X665479Y649715D01*
X665590Y649737D01*
X665702Y649754D01*
X665815Y649768D01*
X665928Y649778D01*
X666041Y649784D01*
X666154Y649786D01*
X666267Y649784D01*
X666380Y649778D01*
X666493Y649768D01*
X666606Y649754D01*
X666718Y649737D01*
X666829Y649715D01*
X666939Y649690D01*
X667049Y649660D01*
X667157Y649627D01*
X667264Y649590D01*
X667370Y649550D01*
X667474Y649505D01*
X667577Y649457D01*
X667678Y649406D01*
X667777Y649351D01*
X667874Y649293D01*
X667969Y649231D01*
X668062Y649166D01*
X668152Y649098D01*
X668240Y649027D01*
X668326Y648952D01*
X668409Y648875D01*
X668489Y648795D01*
X668566Y648712D01*
X668641Y648626D01*
X668712Y648538D01*
X668780Y648448D01*
X668845Y648355D01*
X668907Y648260D01*
X668965Y648163D01*
X669020Y648064D01*
X669071Y647963D01*
X669119Y647860D01*
X669164Y647756D01*
X669204Y647650D01*
X669241Y647543D01*
X669274Y647435D01*
X669304Y647325D01*
X669329Y647215D01*
X669351Y647104D01*
X669368Y646992D01*
X669382Y646879D01*
X669392Y646766D01*
X669398Y646653D01*
X669400Y646540D01*
X669399Y646540D02*
X669399Y643295D01*
X669399Y647189D02*
X674592Y649786D01*
X674592Y654651D02*
X674592Y657896D01*
X674590Y658009D01*
X674584Y658122D01*
X674574Y658235D01*
X674560Y658348D01*
X674543Y658460D01*
X674521Y658571D01*
X674496Y658681D01*
X674466Y658791D01*
X674433Y658899D01*
X674396Y659006D01*
X674356Y659112D01*
X674311Y659216D01*
X674263Y659319D01*
X674212Y659420D01*
X674157Y659519D01*
X674099Y659616D01*
X674037Y659711D01*
X673972Y659804D01*
X673904Y659894D01*
X673833Y659982D01*
X673758Y660068D01*
X673681Y660151D01*
X673601Y660231D01*
X673518Y660308D01*
X673432Y660383D01*
X673344Y660454D01*
X673254Y660522D01*
X673161Y660587D01*
X673066Y660649D01*
X672969Y660707D01*
X672870Y660762D01*
X672769Y660813D01*
X672666Y660861D01*
X672562Y660906D01*
X672456Y660946D01*
X672349Y660983D01*
X672241Y661016D01*
X672131Y661046D01*
X672021Y661071D01*
X671910Y661093D01*
X671798Y661110D01*
X671685Y661124D01*
X671572Y661134D01*
X671459Y661140D01*
X671346Y661142D01*
X671233Y661140D01*
X671120Y661134D01*
X671007Y661124D01*
X670894Y661110D01*
X670782Y661093D01*
X670671Y661071D01*
X670561Y661046D01*
X670451Y661016D01*
X670343Y660983D01*
X670236Y660946D01*
X670130Y660906D01*
X670026Y660861D01*
X669923Y660813D01*
X669822Y660762D01*
X669723Y660707D01*
X669626Y660649D01*
X669531Y660587D01*
X669438Y660522D01*
X669348Y660454D01*
X669260Y660383D01*
X669174Y660308D01*
X669091Y660231D01*
X669011Y660151D01*
X668934Y660068D01*
X668859Y659982D01*
X668788Y659894D01*
X668720Y659804D01*
X668655Y659711D01*
X668593Y659616D01*
X668535Y659519D01*
X668480Y659420D01*
X668429Y659319D01*
X668381Y659216D01*
X668336Y659112D01*
X668296Y659006D01*
X668259Y658899D01*
X668226Y658791D01*
X668196Y658681D01*
X668171Y658571D01*
X668149Y658460D01*
X668132Y658348D01*
X668118Y658235D01*
X668108Y658122D01*
X668102Y658009D01*
X668100Y657896D01*
X662908Y658546D02*
X662908Y654651D01*
X662908Y658546D02*
X662910Y658647D01*
X662916Y658747D01*
X662926Y658847D01*
X662939Y658947D01*
X662957Y659046D01*
X662978Y659145D01*
X663003Y659242D01*
X663032Y659339D01*
X663065Y659434D01*
X663101Y659528D01*
X663141Y659620D01*
X663184Y659711D01*
X663231Y659800D01*
X663281Y659887D01*
X663335Y659973D01*
X663392Y660056D01*
X663452Y660136D01*
X663515Y660215D01*
X663582Y660291D01*
X663651Y660364D01*
X663723Y660434D01*
X663797Y660502D01*
X663874Y660567D01*
X663954Y660628D01*
X664036Y660687D01*
X664120Y660742D01*
X664206Y660794D01*
X664294Y660843D01*
X664384Y660888D01*
X664476Y660930D01*
X664569Y660968D01*
X664664Y661002D01*
X664759Y661033D01*
X664856Y661060D01*
X664954Y661083D01*
X665053Y661103D01*
X665153Y661118D01*
X665253Y661130D01*
X665353Y661138D01*
X665454Y661142D01*
X665554Y661142D01*
X665655Y661138D01*
X665755Y661130D01*
X665855Y661118D01*
X665955Y661103D01*
X666054Y661083D01*
X666152Y661060D01*
X666249Y661033D01*
X666344Y661002D01*
X666439Y660968D01*
X666532Y660930D01*
X666624Y660888D01*
X666714Y660843D01*
X666802Y660794D01*
X666888Y660742D01*
X666972Y660687D01*
X667054Y660628D01*
X667134Y660567D01*
X667211Y660502D01*
X667285Y660434D01*
X667357Y660364D01*
X667426Y660291D01*
X667493Y660215D01*
X667556Y660136D01*
X667616Y660056D01*
X667673Y659973D01*
X667727Y659887D01*
X667777Y659800D01*
X667824Y659711D01*
X667867Y659620D01*
X667907Y659528D01*
X667943Y659434D01*
X667976Y659339D01*
X668005Y659242D01*
X668030Y659145D01*
X668051Y659046D01*
X668069Y658947D01*
X668082Y658847D01*
X668092Y658747D01*
X668098Y658647D01*
X668100Y658546D01*
X668101Y658546D02*
X668101Y655949D01*
X312092Y476458D02*
X300408Y476458D01*
X300408Y479704D01*
X300410Y479817D01*
X300416Y479930D01*
X300426Y480043D01*
X300440Y480156D01*
X300457Y480268D01*
X300479Y480379D01*
X300504Y480489D01*
X300534Y480599D01*
X300567Y480707D01*
X300604Y480814D01*
X300644Y480920D01*
X300689Y481024D01*
X300737Y481127D01*
X300788Y481228D01*
X300843Y481327D01*
X300901Y481424D01*
X300963Y481519D01*
X301028Y481612D01*
X301096Y481702D01*
X301167Y481790D01*
X301242Y481876D01*
X301319Y481959D01*
X301399Y482039D01*
X301482Y482116D01*
X301568Y482191D01*
X301656Y482262D01*
X301746Y482330D01*
X301839Y482395D01*
X301934Y482457D01*
X302031Y482515D01*
X302130Y482570D01*
X302231Y482621D01*
X302334Y482669D01*
X302438Y482714D01*
X302544Y482754D01*
X302651Y482791D01*
X302759Y482824D01*
X302869Y482854D01*
X302979Y482879D01*
X303090Y482901D01*
X303202Y482918D01*
X303315Y482932D01*
X303428Y482942D01*
X303541Y482948D01*
X303654Y482950D01*
X303767Y482948D01*
X303880Y482942D01*
X303993Y482932D01*
X304106Y482918D01*
X304218Y482901D01*
X304329Y482879D01*
X304439Y482854D01*
X304549Y482824D01*
X304657Y482791D01*
X304764Y482754D01*
X304870Y482714D01*
X304974Y482669D01*
X305077Y482621D01*
X305178Y482570D01*
X305277Y482515D01*
X305374Y482457D01*
X305469Y482395D01*
X305562Y482330D01*
X305652Y482262D01*
X305740Y482191D01*
X305826Y482116D01*
X305909Y482039D01*
X305989Y481959D01*
X306066Y481876D01*
X306141Y481790D01*
X306212Y481702D01*
X306280Y481612D01*
X306345Y481519D01*
X306407Y481424D01*
X306465Y481327D01*
X306520Y481228D01*
X306571Y481127D01*
X306619Y481024D01*
X306664Y480920D01*
X306704Y480814D01*
X306741Y480707D01*
X306774Y480599D01*
X306804Y480489D01*
X306829Y480379D01*
X306851Y480268D01*
X306868Y480156D01*
X306882Y480043D01*
X306892Y479930D01*
X306898Y479817D01*
X306900Y479704D01*
X306899Y479704D02*
X306899Y476458D01*
X306899Y480353D02*
X312092Y482949D01*
X305601Y487814D02*
X305601Y491709D01*
X305603Y491808D01*
X305609Y491908D01*
X305618Y492007D01*
X305631Y492105D01*
X305648Y492203D01*
X305669Y492301D01*
X305694Y492397D01*
X305722Y492492D01*
X305754Y492586D01*
X305789Y492679D01*
X305828Y492771D01*
X305871Y492861D01*
X305916Y492949D01*
X305966Y493036D01*
X306018Y493120D01*
X306074Y493203D01*
X306132Y493283D01*
X306194Y493361D01*
X306259Y493436D01*
X306327Y493509D01*
X306397Y493579D01*
X306470Y493647D01*
X306545Y493712D01*
X306623Y493774D01*
X306703Y493832D01*
X306786Y493888D01*
X306870Y493940D01*
X306957Y493990D01*
X307045Y494035D01*
X307135Y494078D01*
X307227Y494117D01*
X307320Y494152D01*
X307414Y494184D01*
X307509Y494212D01*
X307605Y494237D01*
X307703Y494258D01*
X307801Y494275D01*
X307899Y494288D01*
X307998Y494297D01*
X308098Y494303D01*
X308197Y494305D01*
X308846Y494305D01*
X308846Y494306D02*
X308959Y494304D01*
X309072Y494298D01*
X309185Y494288D01*
X309298Y494274D01*
X309410Y494257D01*
X309521Y494235D01*
X309631Y494210D01*
X309741Y494180D01*
X309849Y494147D01*
X309956Y494110D01*
X310062Y494070D01*
X310166Y494025D01*
X310269Y493977D01*
X310370Y493926D01*
X310469Y493871D01*
X310566Y493813D01*
X310661Y493751D01*
X310754Y493686D01*
X310844Y493618D01*
X310932Y493547D01*
X311018Y493472D01*
X311101Y493395D01*
X311181Y493315D01*
X311258Y493232D01*
X311333Y493146D01*
X311404Y493058D01*
X311472Y492968D01*
X311537Y492875D01*
X311599Y492780D01*
X311657Y492683D01*
X311712Y492584D01*
X311763Y492483D01*
X311811Y492380D01*
X311856Y492276D01*
X311896Y492170D01*
X311933Y492063D01*
X311966Y491955D01*
X311996Y491845D01*
X312021Y491735D01*
X312043Y491624D01*
X312060Y491512D01*
X312074Y491399D01*
X312084Y491286D01*
X312090Y491173D01*
X312092Y491060D01*
X312090Y490947D01*
X312084Y490834D01*
X312074Y490721D01*
X312060Y490608D01*
X312043Y490496D01*
X312021Y490385D01*
X311996Y490275D01*
X311966Y490165D01*
X311933Y490057D01*
X311896Y489950D01*
X311856Y489844D01*
X311811Y489740D01*
X311763Y489637D01*
X311712Y489536D01*
X311657Y489437D01*
X311599Y489340D01*
X311537Y489245D01*
X311472Y489152D01*
X311404Y489062D01*
X311333Y488974D01*
X311258Y488888D01*
X311181Y488805D01*
X311101Y488725D01*
X311018Y488648D01*
X310932Y488573D01*
X310844Y488502D01*
X310754Y488434D01*
X310661Y488369D01*
X310566Y488307D01*
X310469Y488249D01*
X310370Y488194D01*
X310269Y488143D01*
X310166Y488095D01*
X310062Y488050D01*
X309956Y488010D01*
X309849Y487973D01*
X309741Y487940D01*
X309631Y487910D01*
X309521Y487885D01*
X309410Y487863D01*
X309298Y487846D01*
X309185Y487832D01*
X309072Y487822D01*
X308959Y487816D01*
X308846Y487814D01*
X305601Y487814D01*
X305458Y487816D01*
X305315Y487822D01*
X305172Y487832D01*
X305030Y487846D01*
X304888Y487863D01*
X304746Y487885D01*
X304605Y487910D01*
X304465Y487940D01*
X304326Y487973D01*
X304188Y488010D01*
X304051Y488051D01*
X303915Y488095D01*
X303780Y488144D01*
X303647Y488196D01*
X303515Y488251D01*
X303385Y488311D01*
X303256Y488374D01*
X303129Y488440D01*
X303005Y488510D01*
X302882Y488583D01*
X302761Y488660D01*
X302642Y488739D01*
X302526Y488823D01*
X302411Y488909D01*
X302300Y488998D01*
X302191Y489091D01*
X302084Y489186D01*
X301980Y489285D01*
X301879Y489386D01*
X301780Y489490D01*
X301685Y489596D01*
X301592Y489706D01*
X301503Y489817D01*
X301417Y489931D01*
X301334Y490048D01*
X301254Y490167D01*
X301177Y490288D01*
X301104Y490410D01*
X301034Y490535D01*
X300968Y490662D01*
X300905Y490791D01*
X300845Y490921D01*
X300790Y491053D01*
X300738Y491186D01*
X300689Y491321D01*
X300645Y491457D01*
X300604Y491594D01*
X300567Y491732D01*
X300534Y491871D01*
X300504Y492011D01*
X300479Y492152D01*
X300457Y492294D01*
X300440Y492436D01*
X300426Y492578D01*
X300416Y492721D01*
X300410Y492864D01*
X300408Y493007D01*
X325408Y465658D02*
X337092Y465658D01*
X325408Y465658D02*
X325408Y468904D01*
X325410Y469017D01*
X325416Y469130D01*
X325426Y469243D01*
X325440Y469356D01*
X325457Y469468D01*
X325479Y469579D01*
X325504Y469689D01*
X325534Y469799D01*
X325567Y469907D01*
X325604Y470014D01*
X325644Y470120D01*
X325689Y470224D01*
X325737Y470327D01*
X325788Y470428D01*
X325843Y470527D01*
X325901Y470624D01*
X325963Y470719D01*
X326028Y470812D01*
X326096Y470902D01*
X326167Y470990D01*
X326242Y471076D01*
X326319Y471159D01*
X326399Y471239D01*
X326482Y471316D01*
X326568Y471391D01*
X326656Y471462D01*
X326746Y471530D01*
X326839Y471595D01*
X326934Y471657D01*
X327031Y471715D01*
X327130Y471770D01*
X327231Y471821D01*
X327334Y471869D01*
X327438Y471914D01*
X327544Y471954D01*
X327651Y471991D01*
X327759Y472024D01*
X327869Y472054D01*
X327979Y472079D01*
X328090Y472101D01*
X328202Y472118D01*
X328315Y472132D01*
X328428Y472142D01*
X328541Y472148D01*
X328654Y472150D01*
X328767Y472148D01*
X328880Y472142D01*
X328993Y472132D01*
X329106Y472118D01*
X329218Y472101D01*
X329329Y472079D01*
X329439Y472054D01*
X329549Y472024D01*
X329657Y471991D01*
X329764Y471954D01*
X329870Y471914D01*
X329974Y471869D01*
X330077Y471821D01*
X330178Y471770D01*
X330277Y471715D01*
X330374Y471657D01*
X330469Y471595D01*
X330562Y471530D01*
X330652Y471462D01*
X330740Y471391D01*
X330826Y471316D01*
X330909Y471239D01*
X330989Y471159D01*
X331066Y471076D01*
X331141Y470990D01*
X331212Y470902D01*
X331280Y470812D01*
X331345Y470719D01*
X331407Y470624D01*
X331465Y470527D01*
X331520Y470428D01*
X331571Y470327D01*
X331619Y470224D01*
X331664Y470120D01*
X331704Y470014D01*
X331741Y469907D01*
X331774Y469799D01*
X331804Y469689D01*
X331829Y469579D01*
X331851Y469468D01*
X331868Y469356D01*
X331882Y469243D01*
X331892Y469130D01*
X331898Y469017D01*
X331900Y468904D01*
X331899Y468904D02*
X331899Y465658D01*
X331899Y469553D02*
X337092Y472149D01*
X326706Y477014D02*
X325408Y477014D01*
X325408Y483505D01*
X337092Y480260D01*
X452908Y292295D02*
X464592Y292295D01*
X452908Y292295D02*
X452908Y295540D01*
X452910Y295653D01*
X452916Y295766D01*
X452926Y295879D01*
X452940Y295992D01*
X452957Y296104D01*
X452979Y296215D01*
X453004Y296325D01*
X453034Y296435D01*
X453067Y296543D01*
X453104Y296650D01*
X453144Y296756D01*
X453189Y296860D01*
X453237Y296963D01*
X453288Y297064D01*
X453343Y297163D01*
X453401Y297260D01*
X453463Y297355D01*
X453528Y297448D01*
X453596Y297538D01*
X453667Y297626D01*
X453742Y297712D01*
X453819Y297795D01*
X453899Y297875D01*
X453982Y297952D01*
X454068Y298027D01*
X454156Y298098D01*
X454246Y298166D01*
X454339Y298231D01*
X454434Y298293D01*
X454531Y298351D01*
X454630Y298406D01*
X454731Y298457D01*
X454834Y298505D01*
X454938Y298550D01*
X455044Y298590D01*
X455151Y298627D01*
X455259Y298660D01*
X455369Y298690D01*
X455479Y298715D01*
X455590Y298737D01*
X455702Y298754D01*
X455815Y298768D01*
X455928Y298778D01*
X456041Y298784D01*
X456154Y298786D01*
X456267Y298784D01*
X456380Y298778D01*
X456493Y298768D01*
X456606Y298754D01*
X456718Y298737D01*
X456829Y298715D01*
X456939Y298690D01*
X457049Y298660D01*
X457157Y298627D01*
X457264Y298590D01*
X457370Y298550D01*
X457474Y298505D01*
X457577Y298457D01*
X457678Y298406D01*
X457777Y298351D01*
X457874Y298293D01*
X457969Y298231D01*
X458062Y298166D01*
X458152Y298098D01*
X458240Y298027D01*
X458326Y297952D01*
X458409Y297875D01*
X458489Y297795D01*
X458566Y297712D01*
X458641Y297626D01*
X458712Y297538D01*
X458780Y297448D01*
X458845Y297355D01*
X458907Y297260D01*
X458965Y297163D01*
X459020Y297064D01*
X459071Y296963D01*
X459119Y296860D01*
X459164Y296756D01*
X459204Y296650D01*
X459241Y296543D01*
X459274Y296435D01*
X459304Y296325D01*
X459329Y296215D01*
X459351Y296104D01*
X459368Y295992D01*
X459382Y295879D01*
X459392Y295766D01*
X459398Y295653D01*
X459400Y295540D01*
X459399Y295540D02*
X459399Y292295D01*
X459399Y296189D02*
X464592Y298786D01*
X461346Y303650D02*
X461233Y303652D01*
X461120Y303658D01*
X461007Y303668D01*
X460894Y303682D01*
X460782Y303699D01*
X460671Y303721D01*
X460561Y303746D01*
X460451Y303776D01*
X460343Y303809D01*
X460236Y303846D01*
X460130Y303886D01*
X460026Y303931D01*
X459923Y303979D01*
X459822Y304030D01*
X459723Y304085D01*
X459626Y304143D01*
X459531Y304205D01*
X459438Y304270D01*
X459348Y304338D01*
X459260Y304409D01*
X459174Y304484D01*
X459091Y304561D01*
X459011Y304641D01*
X458934Y304724D01*
X458859Y304810D01*
X458788Y304898D01*
X458720Y304988D01*
X458655Y305081D01*
X458593Y305176D01*
X458535Y305273D01*
X458480Y305372D01*
X458429Y305473D01*
X458381Y305576D01*
X458336Y305680D01*
X458296Y305786D01*
X458259Y305893D01*
X458226Y306001D01*
X458196Y306111D01*
X458171Y306221D01*
X458149Y306332D01*
X458132Y306444D01*
X458118Y306557D01*
X458108Y306670D01*
X458102Y306783D01*
X458100Y306896D01*
X458102Y307009D01*
X458108Y307122D01*
X458118Y307235D01*
X458132Y307348D01*
X458149Y307460D01*
X458171Y307571D01*
X458196Y307681D01*
X458226Y307791D01*
X458259Y307899D01*
X458296Y308006D01*
X458336Y308112D01*
X458381Y308216D01*
X458429Y308319D01*
X458480Y308420D01*
X458535Y308519D01*
X458593Y308616D01*
X458655Y308711D01*
X458720Y308804D01*
X458788Y308894D01*
X458859Y308982D01*
X458934Y309068D01*
X459011Y309151D01*
X459091Y309231D01*
X459174Y309308D01*
X459260Y309383D01*
X459348Y309454D01*
X459438Y309522D01*
X459531Y309587D01*
X459626Y309649D01*
X459723Y309707D01*
X459822Y309762D01*
X459923Y309813D01*
X460026Y309861D01*
X460130Y309906D01*
X460236Y309946D01*
X460343Y309983D01*
X460451Y310016D01*
X460561Y310046D01*
X460671Y310071D01*
X460782Y310093D01*
X460894Y310110D01*
X461007Y310124D01*
X461120Y310134D01*
X461233Y310140D01*
X461346Y310142D01*
X461459Y310140D01*
X461572Y310134D01*
X461685Y310124D01*
X461798Y310110D01*
X461910Y310093D01*
X462021Y310071D01*
X462131Y310046D01*
X462241Y310016D01*
X462349Y309983D01*
X462456Y309946D01*
X462562Y309906D01*
X462666Y309861D01*
X462769Y309813D01*
X462870Y309762D01*
X462969Y309707D01*
X463066Y309649D01*
X463161Y309587D01*
X463254Y309522D01*
X463344Y309454D01*
X463432Y309383D01*
X463518Y309308D01*
X463601Y309231D01*
X463681Y309151D01*
X463758Y309068D01*
X463833Y308982D01*
X463904Y308894D01*
X463972Y308804D01*
X464037Y308711D01*
X464099Y308616D01*
X464157Y308519D01*
X464212Y308420D01*
X464263Y308319D01*
X464311Y308216D01*
X464356Y308112D01*
X464396Y308006D01*
X464433Y307899D01*
X464466Y307791D01*
X464496Y307681D01*
X464521Y307571D01*
X464543Y307460D01*
X464560Y307348D01*
X464574Y307235D01*
X464584Y307122D01*
X464590Y307009D01*
X464592Y306896D01*
X464590Y306783D01*
X464584Y306670D01*
X464574Y306557D01*
X464560Y306444D01*
X464543Y306332D01*
X464521Y306221D01*
X464496Y306111D01*
X464466Y306001D01*
X464433Y305893D01*
X464396Y305786D01*
X464356Y305680D01*
X464311Y305576D01*
X464263Y305473D01*
X464212Y305372D01*
X464157Y305273D01*
X464099Y305176D01*
X464037Y305081D01*
X463972Y304988D01*
X463904Y304898D01*
X463833Y304810D01*
X463758Y304724D01*
X463681Y304641D01*
X463601Y304561D01*
X463518Y304484D01*
X463432Y304409D01*
X463344Y304338D01*
X463254Y304270D01*
X463161Y304205D01*
X463066Y304143D01*
X462969Y304085D01*
X462870Y304030D01*
X462769Y303979D01*
X462666Y303931D01*
X462562Y303886D01*
X462456Y303846D01*
X462349Y303809D01*
X462241Y303776D01*
X462131Y303746D01*
X462021Y303721D01*
X461910Y303699D01*
X461798Y303682D01*
X461685Y303668D01*
X461572Y303658D01*
X461459Y303652D01*
X461346Y303650D01*
X455504Y304300D02*
X455403Y304302D01*
X455303Y304308D01*
X455203Y304318D01*
X455103Y304331D01*
X455004Y304349D01*
X454905Y304370D01*
X454808Y304395D01*
X454711Y304424D01*
X454616Y304457D01*
X454522Y304493D01*
X454430Y304533D01*
X454339Y304576D01*
X454250Y304623D01*
X454163Y304673D01*
X454077Y304727D01*
X453994Y304784D01*
X453914Y304844D01*
X453835Y304907D01*
X453759Y304974D01*
X453686Y305043D01*
X453616Y305115D01*
X453548Y305189D01*
X453483Y305266D01*
X453422Y305346D01*
X453363Y305428D01*
X453308Y305512D01*
X453256Y305598D01*
X453207Y305686D01*
X453162Y305776D01*
X453120Y305868D01*
X453082Y305961D01*
X453048Y306056D01*
X453017Y306151D01*
X452990Y306248D01*
X452967Y306346D01*
X452947Y306445D01*
X452932Y306545D01*
X452920Y306645D01*
X452912Y306745D01*
X452908Y306846D01*
X452908Y306946D01*
X452912Y307047D01*
X452920Y307147D01*
X452932Y307247D01*
X452947Y307347D01*
X452967Y307446D01*
X452990Y307544D01*
X453017Y307641D01*
X453048Y307736D01*
X453082Y307831D01*
X453120Y307924D01*
X453162Y308016D01*
X453207Y308106D01*
X453256Y308194D01*
X453308Y308280D01*
X453363Y308364D01*
X453422Y308446D01*
X453483Y308526D01*
X453548Y308603D01*
X453616Y308677D01*
X453686Y308749D01*
X453759Y308818D01*
X453835Y308885D01*
X453914Y308948D01*
X453994Y309008D01*
X454077Y309065D01*
X454163Y309119D01*
X454250Y309169D01*
X454339Y309216D01*
X454430Y309259D01*
X454522Y309299D01*
X454616Y309335D01*
X454711Y309368D01*
X454808Y309397D01*
X454905Y309422D01*
X455004Y309443D01*
X455103Y309461D01*
X455203Y309474D01*
X455303Y309484D01*
X455403Y309490D01*
X455504Y309492D01*
X455605Y309490D01*
X455705Y309484D01*
X455805Y309474D01*
X455905Y309461D01*
X456004Y309443D01*
X456103Y309422D01*
X456200Y309397D01*
X456297Y309368D01*
X456392Y309335D01*
X456486Y309299D01*
X456578Y309259D01*
X456669Y309216D01*
X456758Y309169D01*
X456845Y309119D01*
X456931Y309065D01*
X457014Y309008D01*
X457094Y308948D01*
X457173Y308885D01*
X457249Y308818D01*
X457322Y308749D01*
X457392Y308677D01*
X457460Y308603D01*
X457525Y308526D01*
X457586Y308446D01*
X457645Y308364D01*
X457700Y308280D01*
X457752Y308194D01*
X457801Y308106D01*
X457846Y308016D01*
X457888Y307924D01*
X457926Y307831D01*
X457960Y307736D01*
X457991Y307641D01*
X458018Y307544D01*
X458041Y307446D01*
X458061Y307347D01*
X458076Y307247D01*
X458088Y307147D01*
X458096Y307047D01*
X458100Y306946D01*
X458100Y306846D01*
X458096Y306745D01*
X458088Y306645D01*
X458076Y306545D01*
X458061Y306445D01*
X458041Y306346D01*
X458018Y306248D01*
X457991Y306151D01*
X457960Y306056D01*
X457926Y305961D01*
X457888Y305868D01*
X457846Y305776D01*
X457801Y305686D01*
X457752Y305598D01*
X457700Y305512D01*
X457645Y305428D01*
X457586Y305346D01*
X457525Y305266D01*
X457460Y305189D01*
X457392Y305115D01*
X457322Y305043D01*
X457249Y304974D01*
X457173Y304907D01*
X457094Y304844D01*
X457014Y304784D01*
X456931Y304727D01*
X456845Y304673D01*
X456758Y304623D01*
X456669Y304576D01*
X456578Y304533D01*
X456486Y304493D01*
X456392Y304457D01*
X456297Y304424D01*
X456200Y304395D01*
X456103Y304370D01*
X456004Y304349D01*
X455905Y304331D01*
X455805Y304318D01*
X455705Y304308D01*
X455605Y304302D01*
X455504Y304300D01*
X590108Y220458D02*
X601792Y220458D01*
X590108Y220458D02*
X590108Y223704D01*
X590110Y223817D01*
X590116Y223930D01*
X590126Y224043D01*
X590140Y224156D01*
X590157Y224268D01*
X590179Y224379D01*
X590204Y224489D01*
X590234Y224599D01*
X590267Y224707D01*
X590304Y224814D01*
X590344Y224920D01*
X590389Y225024D01*
X590437Y225127D01*
X590488Y225228D01*
X590543Y225327D01*
X590601Y225424D01*
X590663Y225519D01*
X590728Y225612D01*
X590796Y225702D01*
X590867Y225790D01*
X590942Y225876D01*
X591019Y225959D01*
X591099Y226039D01*
X591182Y226116D01*
X591268Y226191D01*
X591356Y226262D01*
X591446Y226330D01*
X591539Y226395D01*
X591634Y226457D01*
X591731Y226515D01*
X591830Y226570D01*
X591931Y226621D01*
X592034Y226669D01*
X592138Y226714D01*
X592244Y226754D01*
X592351Y226791D01*
X592459Y226824D01*
X592569Y226854D01*
X592679Y226879D01*
X592790Y226901D01*
X592902Y226918D01*
X593015Y226932D01*
X593128Y226942D01*
X593241Y226948D01*
X593354Y226950D01*
X593467Y226948D01*
X593580Y226942D01*
X593693Y226932D01*
X593806Y226918D01*
X593918Y226901D01*
X594029Y226879D01*
X594139Y226854D01*
X594249Y226824D01*
X594357Y226791D01*
X594464Y226754D01*
X594570Y226714D01*
X594674Y226669D01*
X594777Y226621D01*
X594878Y226570D01*
X594977Y226515D01*
X595074Y226457D01*
X595169Y226395D01*
X595262Y226330D01*
X595352Y226262D01*
X595440Y226191D01*
X595526Y226116D01*
X595609Y226039D01*
X595689Y225959D01*
X595766Y225876D01*
X595841Y225790D01*
X595912Y225702D01*
X595980Y225612D01*
X596045Y225519D01*
X596107Y225424D01*
X596165Y225327D01*
X596220Y225228D01*
X596271Y225127D01*
X596319Y225024D01*
X596364Y224920D01*
X596404Y224814D01*
X596441Y224707D01*
X596474Y224599D01*
X596504Y224489D01*
X596529Y224379D01*
X596551Y224268D01*
X596568Y224156D01*
X596582Y224043D01*
X596592Y223930D01*
X596598Y223817D01*
X596600Y223704D01*
X596599Y223704D02*
X596599Y220458D01*
X596599Y224353D02*
X601792Y226949D01*
X596599Y234411D02*
X596599Y238305D01*
X596599Y234411D02*
X596597Y234312D01*
X596591Y234212D01*
X596582Y234113D01*
X596569Y234015D01*
X596552Y233917D01*
X596531Y233819D01*
X596506Y233723D01*
X596478Y233628D01*
X596446Y233534D01*
X596411Y233441D01*
X596372Y233349D01*
X596329Y233259D01*
X596284Y233171D01*
X596234Y233084D01*
X596182Y233000D01*
X596126Y232917D01*
X596068Y232837D01*
X596006Y232759D01*
X595941Y232684D01*
X595873Y232611D01*
X595803Y232541D01*
X595730Y232473D01*
X595655Y232408D01*
X595577Y232346D01*
X595497Y232288D01*
X595414Y232232D01*
X595330Y232180D01*
X595243Y232130D01*
X595155Y232085D01*
X595065Y232042D01*
X594973Y232003D01*
X594880Y231968D01*
X594786Y231936D01*
X594691Y231908D01*
X594595Y231883D01*
X594497Y231862D01*
X594399Y231845D01*
X594301Y231832D01*
X594202Y231823D01*
X594102Y231817D01*
X594003Y231815D01*
X594003Y231814D02*
X593354Y231814D01*
X593241Y231816D01*
X593128Y231822D01*
X593015Y231832D01*
X592902Y231846D01*
X592790Y231863D01*
X592679Y231885D01*
X592569Y231910D01*
X592459Y231940D01*
X592351Y231973D01*
X592244Y232010D01*
X592138Y232050D01*
X592034Y232095D01*
X591931Y232143D01*
X591830Y232194D01*
X591731Y232249D01*
X591634Y232307D01*
X591539Y232369D01*
X591446Y232434D01*
X591356Y232502D01*
X591268Y232573D01*
X591182Y232648D01*
X591099Y232725D01*
X591019Y232805D01*
X590942Y232888D01*
X590867Y232974D01*
X590796Y233062D01*
X590728Y233152D01*
X590663Y233245D01*
X590601Y233340D01*
X590543Y233437D01*
X590488Y233536D01*
X590437Y233637D01*
X590389Y233740D01*
X590344Y233844D01*
X590304Y233950D01*
X590267Y234057D01*
X590234Y234165D01*
X590204Y234275D01*
X590179Y234385D01*
X590157Y234496D01*
X590140Y234608D01*
X590126Y234721D01*
X590116Y234834D01*
X590110Y234947D01*
X590108Y235060D01*
X590110Y235173D01*
X590116Y235286D01*
X590126Y235399D01*
X590140Y235512D01*
X590157Y235624D01*
X590179Y235735D01*
X590204Y235845D01*
X590234Y235955D01*
X590267Y236063D01*
X590304Y236170D01*
X590344Y236276D01*
X590389Y236380D01*
X590437Y236483D01*
X590488Y236584D01*
X590543Y236683D01*
X590601Y236780D01*
X590663Y236875D01*
X590728Y236968D01*
X590796Y237058D01*
X590867Y237146D01*
X590942Y237232D01*
X591019Y237315D01*
X591099Y237395D01*
X591182Y237472D01*
X591268Y237547D01*
X591356Y237618D01*
X591446Y237686D01*
X591539Y237751D01*
X591634Y237813D01*
X591731Y237871D01*
X591830Y237926D01*
X591931Y237977D01*
X592034Y238025D01*
X592138Y238070D01*
X592244Y238110D01*
X592351Y238147D01*
X592459Y238180D01*
X592569Y238210D01*
X592679Y238235D01*
X592790Y238257D01*
X592902Y238274D01*
X593015Y238288D01*
X593128Y238298D01*
X593241Y238304D01*
X593354Y238306D01*
X593354Y238305D02*
X596599Y238305D01*
X596599Y238306D02*
X596742Y238304D01*
X596885Y238298D01*
X597028Y238288D01*
X597170Y238274D01*
X597312Y238257D01*
X597454Y238235D01*
X597595Y238210D01*
X597735Y238180D01*
X597874Y238147D01*
X598012Y238110D01*
X598149Y238069D01*
X598285Y238025D01*
X598420Y237976D01*
X598553Y237924D01*
X598685Y237869D01*
X598815Y237809D01*
X598944Y237746D01*
X599071Y237680D01*
X599196Y237610D01*
X599318Y237537D01*
X599439Y237460D01*
X599558Y237380D01*
X599674Y237297D01*
X599789Y237211D01*
X599900Y237122D01*
X600010Y237029D01*
X600116Y236934D01*
X600220Y236835D01*
X600321Y236734D01*
X600420Y236630D01*
X600515Y236524D01*
X600608Y236414D01*
X600697Y236303D01*
X600783Y236188D01*
X600866Y236072D01*
X600946Y235953D01*
X601023Y235832D01*
X601096Y235710D01*
X601166Y235585D01*
X601232Y235458D01*
X601295Y235329D01*
X601355Y235199D01*
X601410Y235067D01*
X601462Y234934D01*
X601511Y234799D01*
X601555Y234663D01*
X601596Y234526D01*
X601633Y234388D01*
X601666Y234249D01*
X601696Y234109D01*
X601721Y233968D01*
X601743Y233826D01*
X601760Y233684D01*
X601774Y233542D01*
X601784Y233399D01*
X601790Y233256D01*
X601792Y233113D01*
D16*
X277650Y488950D02*
X271300Y495300D01*
X277650Y488950D02*
X277650Y476250D01*
X271300Y469900D01*
X258600Y469900D01*
X252250Y476250D01*
X252250Y488950D01*
X258600Y495300D01*
X277650Y520700D02*
X277650Y546100D01*
X277650Y520700D02*
X271300Y520700D01*
X258600Y520700D01*
X252250Y520700D01*
X271300Y520700D02*
X277650Y514350D01*
X277650Y501650D01*
X271300Y495300D01*
X258600Y495300D01*
X252250Y501650D01*
X252250Y514350D01*
X258600Y520700D01*
X252250Y546100D02*
X277650Y546100D01*
X252250Y546100D02*
X252250Y520700D01*
D17*
X286159Y524129D02*
X293271Y526500D01*
X286159Y528870D01*
X293271Y532944D02*
X293271Y534525D01*
X293271Y532944D02*
X293269Y532866D01*
X293263Y532789D01*
X293254Y532712D01*
X293241Y532636D01*
X293224Y532560D01*
X293203Y532485D01*
X293179Y532412D01*
X293151Y532339D01*
X293119Y532268D01*
X293084Y532199D01*
X293046Y532132D01*
X293005Y532066D01*
X292960Y532003D01*
X292912Y531942D01*
X292862Y531883D01*
X292808Y531827D01*
X292752Y531773D01*
X292693Y531723D01*
X292632Y531675D01*
X292569Y531630D01*
X292503Y531589D01*
X292436Y531551D01*
X292367Y531516D01*
X292296Y531484D01*
X292223Y531456D01*
X292150Y531432D01*
X292075Y531411D01*
X291999Y531394D01*
X291923Y531381D01*
X291846Y531372D01*
X291769Y531366D01*
X291691Y531364D01*
X287739Y531364D01*
X287739Y531363D02*
X287661Y531365D01*
X287584Y531371D01*
X287507Y531380D01*
X287431Y531393D01*
X287355Y531410D01*
X287280Y531431D01*
X287206Y531455D01*
X287134Y531483D01*
X287063Y531515D01*
X286994Y531550D01*
X286926Y531588D01*
X286861Y531629D01*
X286797Y531674D01*
X286736Y531722D01*
X286677Y531773D01*
X286621Y531826D01*
X286568Y531882D01*
X286517Y531941D01*
X286469Y532002D01*
X286424Y532066D01*
X286383Y532131D01*
X286345Y532199D01*
X286310Y532268D01*
X286278Y532339D01*
X286250Y532411D01*
X286226Y532485D01*
X286205Y532560D01*
X286188Y532636D01*
X286175Y532712D01*
X286166Y532789D01*
X286160Y532866D01*
X286158Y532944D01*
X286159Y532944D02*
X286159Y534525D01*
X293271Y538659D02*
X293271Y540240D01*
X293271Y538659D02*
X293269Y538581D01*
X293263Y538504D01*
X293254Y538427D01*
X293241Y538351D01*
X293224Y538275D01*
X293203Y538200D01*
X293179Y538127D01*
X293151Y538054D01*
X293119Y537983D01*
X293084Y537914D01*
X293046Y537847D01*
X293005Y537781D01*
X292960Y537718D01*
X292912Y537657D01*
X292862Y537598D01*
X292808Y537542D01*
X292752Y537488D01*
X292693Y537438D01*
X292632Y537390D01*
X292569Y537345D01*
X292503Y537304D01*
X292436Y537266D01*
X292367Y537231D01*
X292296Y537199D01*
X292223Y537171D01*
X292150Y537147D01*
X292075Y537126D01*
X291999Y537109D01*
X291923Y537096D01*
X291846Y537087D01*
X291769Y537081D01*
X291691Y537079D01*
X287739Y537079D01*
X287739Y537078D02*
X287661Y537080D01*
X287584Y537086D01*
X287507Y537095D01*
X287431Y537108D01*
X287355Y537125D01*
X287280Y537146D01*
X287206Y537170D01*
X287134Y537198D01*
X287063Y537230D01*
X286994Y537265D01*
X286926Y537303D01*
X286861Y537344D01*
X286797Y537389D01*
X286736Y537437D01*
X286677Y537488D01*
X286621Y537541D01*
X286568Y537597D01*
X286517Y537656D01*
X286469Y537717D01*
X286424Y537781D01*
X286383Y537846D01*
X286345Y537914D01*
X286310Y537983D01*
X286278Y538054D01*
X286250Y538126D01*
X286226Y538200D01*
X286205Y538275D01*
X286188Y538351D01*
X286175Y538427D01*
X286166Y538504D01*
X286160Y538581D01*
X286158Y538659D01*
X286159Y538659D02*
X286159Y540240D01*
X288135Y498729D02*
X291295Y498729D01*
X288135Y498729D02*
X288048Y498731D01*
X287960Y498737D01*
X287873Y498746D01*
X287787Y498760D01*
X287701Y498777D01*
X287617Y498798D01*
X287533Y498823D01*
X287450Y498852D01*
X287369Y498884D01*
X287289Y498919D01*
X287211Y498958D01*
X287134Y499001D01*
X287060Y499047D01*
X286988Y499096D01*
X286918Y499148D01*
X286850Y499204D01*
X286785Y499262D01*
X286722Y499323D01*
X286663Y499387D01*
X286606Y499454D01*
X286552Y499522D01*
X286501Y499594D01*
X286454Y499667D01*
X286409Y499742D01*
X286368Y499820D01*
X286331Y499899D01*
X286297Y499979D01*
X286267Y500061D01*
X286240Y500144D01*
X286217Y500229D01*
X286198Y500314D01*
X286183Y500400D01*
X286171Y500487D01*
X286163Y500574D01*
X286159Y500661D01*
X286159Y500749D01*
X286163Y500836D01*
X286171Y500923D01*
X286183Y501010D01*
X286198Y501096D01*
X286217Y501181D01*
X286240Y501266D01*
X286267Y501349D01*
X286297Y501431D01*
X286331Y501511D01*
X286368Y501590D01*
X286409Y501668D01*
X286454Y501743D01*
X286501Y501816D01*
X286552Y501888D01*
X286606Y501956D01*
X286663Y502023D01*
X286722Y502087D01*
X286785Y502148D01*
X286850Y502206D01*
X286918Y502262D01*
X286988Y502314D01*
X287060Y502363D01*
X287134Y502409D01*
X287211Y502452D01*
X287289Y502491D01*
X287369Y502526D01*
X287450Y502558D01*
X287533Y502587D01*
X287617Y502612D01*
X287701Y502633D01*
X287787Y502650D01*
X287873Y502664D01*
X287960Y502673D01*
X288048Y502679D01*
X288135Y502681D01*
X288135Y502680D02*
X291295Y502680D01*
X291295Y502681D02*
X291382Y502679D01*
X291470Y502673D01*
X291557Y502664D01*
X291643Y502650D01*
X291729Y502633D01*
X291813Y502612D01*
X291897Y502587D01*
X291980Y502558D01*
X292061Y502526D01*
X292141Y502491D01*
X292219Y502452D01*
X292296Y502409D01*
X292370Y502363D01*
X292442Y502314D01*
X292512Y502262D01*
X292580Y502206D01*
X292645Y502148D01*
X292708Y502087D01*
X292767Y502023D01*
X292824Y501956D01*
X292878Y501888D01*
X292929Y501816D01*
X292976Y501743D01*
X293021Y501668D01*
X293062Y501590D01*
X293099Y501511D01*
X293133Y501431D01*
X293163Y501349D01*
X293190Y501266D01*
X293213Y501181D01*
X293232Y501096D01*
X293247Y501010D01*
X293259Y500923D01*
X293267Y500836D01*
X293271Y500749D01*
X293271Y500661D01*
X293267Y500574D01*
X293259Y500487D01*
X293247Y500400D01*
X293232Y500314D01*
X293213Y500229D01*
X293190Y500144D01*
X293163Y500061D01*
X293133Y499979D01*
X293099Y499899D01*
X293062Y499820D01*
X293021Y499742D01*
X292976Y499667D01*
X292929Y499594D01*
X292878Y499522D01*
X292824Y499454D01*
X292767Y499387D01*
X292708Y499323D01*
X292645Y499262D01*
X292580Y499204D01*
X292512Y499148D01*
X292442Y499096D01*
X292370Y499047D01*
X292296Y499001D01*
X292219Y498958D01*
X292141Y498919D01*
X292061Y498884D01*
X291980Y498852D01*
X291897Y498823D01*
X291813Y498798D01*
X291729Y498777D01*
X291643Y498760D01*
X291557Y498746D01*
X291470Y498737D01*
X291382Y498731D01*
X291295Y498729D01*
X291295Y505816D02*
X286159Y505816D01*
X291295Y505815D02*
X291382Y505817D01*
X291470Y505823D01*
X291557Y505832D01*
X291643Y505846D01*
X291729Y505863D01*
X291813Y505884D01*
X291897Y505909D01*
X291980Y505938D01*
X292061Y505970D01*
X292141Y506005D01*
X292219Y506044D01*
X292296Y506087D01*
X292370Y506133D01*
X292442Y506182D01*
X292512Y506234D01*
X292580Y506290D01*
X292645Y506348D01*
X292708Y506409D01*
X292767Y506473D01*
X292824Y506540D01*
X292878Y506608D01*
X292929Y506680D01*
X292976Y506753D01*
X293021Y506828D01*
X293062Y506906D01*
X293099Y506985D01*
X293133Y507065D01*
X293163Y507147D01*
X293190Y507230D01*
X293213Y507315D01*
X293232Y507400D01*
X293247Y507486D01*
X293259Y507573D01*
X293267Y507660D01*
X293271Y507747D01*
X293271Y507835D01*
X293267Y507922D01*
X293259Y508009D01*
X293247Y508096D01*
X293232Y508182D01*
X293213Y508267D01*
X293190Y508352D01*
X293163Y508435D01*
X293133Y508517D01*
X293099Y508597D01*
X293062Y508676D01*
X293021Y508754D01*
X292976Y508829D01*
X292929Y508902D01*
X292878Y508974D01*
X292824Y509042D01*
X292767Y509109D01*
X292708Y509173D01*
X292645Y509234D01*
X292580Y509292D01*
X292512Y509348D01*
X292442Y509400D01*
X292370Y509449D01*
X292296Y509495D01*
X292219Y509538D01*
X292141Y509577D01*
X292061Y509612D01*
X291980Y509644D01*
X291897Y509673D01*
X291813Y509698D01*
X291729Y509719D01*
X291643Y509736D01*
X291557Y509750D01*
X291470Y509759D01*
X291382Y509765D01*
X291295Y509767D01*
X286159Y509767D01*
X286159Y514420D02*
X293271Y514420D01*
X286159Y512445D02*
X286159Y516396D01*
X289320Y477280D02*
X289320Y476095D01*
X289320Y477280D02*
X293271Y477280D01*
X293271Y474909D01*
X293269Y474831D01*
X293263Y474754D01*
X293254Y474677D01*
X293241Y474601D01*
X293224Y474525D01*
X293203Y474450D01*
X293179Y474377D01*
X293151Y474304D01*
X293119Y474233D01*
X293084Y474164D01*
X293046Y474097D01*
X293005Y474031D01*
X292960Y473968D01*
X292912Y473907D01*
X292862Y473848D01*
X292808Y473792D01*
X292752Y473738D01*
X292693Y473688D01*
X292632Y473640D01*
X292569Y473595D01*
X292503Y473554D01*
X292436Y473516D01*
X292367Y473481D01*
X292296Y473449D01*
X292223Y473421D01*
X292150Y473397D01*
X292075Y473376D01*
X291999Y473359D01*
X291923Y473346D01*
X291846Y473337D01*
X291769Y473331D01*
X291691Y473329D01*
X287739Y473329D01*
X287661Y473331D01*
X287584Y473337D01*
X287507Y473346D01*
X287431Y473359D01*
X287355Y473376D01*
X287280Y473397D01*
X287206Y473421D01*
X287134Y473449D01*
X287063Y473481D01*
X286994Y473516D01*
X286926Y473554D01*
X286861Y473595D01*
X286797Y473640D01*
X286736Y473688D01*
X286677Y473739D01*
X286621Y473792D01*
X286568Y473848D01*
X286517Y473907D01*
X286469Y473968D01*
X286424Y474032D01*
X286383Y474097D01*
X286345Y474165D01*
X286310Y474234D01*
X286278Y474305D01*
X286250Y474377D01*
X286226Y474451D01*
X286205Y474526D01*
X286188Y474602D01*
X286175Y474678D01*
X286166Y474755D01*
X286160Y474832D01*
X286158Y474910D01*
X286159Y474909D02*
X286159Y477280D01*
X286159Y480644D02*
X293271Y480644D01*
X293271Y484595D02*
X286159Y480644D01*
X286159Y484595D02*
X293271Y484595D01*
X293271Y487959D02*
X286159Y487959D01*
X286159Y489935D01*
X286161Y490021D01*
X286167Y490107D01*
X286176Y490193D01*
X286189Y490278D01*
X286206Y490363D01*
X286226Y490446D01*
X286250Y490529D01*
X286278Y490611D01*
X286309Y490691D01*
X286344Y490770D01*
X286382Y490847D01*
X286424Y490923D01*
X286468Y490997D01*
X286516Y491068D01*
X286567Y491138D01*
X286621Y491205D01*
X286678Y491270D01*
X286738Y491332D01*
X286800Y491392D01*
X286865Y491449D01*
X286932Y491503D01*
X287002Y491554D01*
X287073Y491602D01*
X287147Y491646D01*
X287223Y491688D01*
X287300Y491726D01*
X287379Y491761D01*
X287459Y491792D01*
X287541Y491820D01*
X287624Y491844D01*
X287707Y491864D01*
X287792Y491881D01*
X287877Y491894D01*
X287963Y491903D01*
X288049Y491909D01*
X288135Y491911D01*
X288135Y491910D02*
X291295Y491910D01*
X291295Y491911D02*
X291381Y491909D01*
X291467Y491903D01*
X291553Y491894D01*
X291638Y491881D01*
X291723Y491864D01*
X291806Y491844D01*
X291889Y491820D01*
X291971Y491792D01*
X292051Y491761D01*
X292130Y491726D01*
X292207Y491688D01*
X292283Y491646D01*
X292357Y491602D01*
X292428Y491554D01*
X292498Y491503D01*
X292565Y491449D01*
X292630Y491392D01*
X292692Y491332D01*
X292752Y491270D01*
X292809Y491205D01*
X292863Y491138D01*
X292914Y491068D01*
X292962Y490997D01*
X293006Y490923D01*
X293048Y490847D01*
X293086Y490770D01*
X293121Y490691D01*
X293152Y490611D01*
X293180Y490529D01*
X293204Y490446D01*
X293224Y490363D01*
X293241Y490278D01*
X293254Y490193D01*
X293263Y490107D01*
X293269Y490021D01*
X293271Y489935D01*
X293271Y487959D01*
D11*
X290223Y645160D02*
X298478Y645160D01*
X298589Y645162D01*
X298699Y645168D01*
X298810Y645177D01*
X298920Y645191D01*
X299029Y645208D01*
X299138Y645229D01*
X299246Y645254D01*
X299353Y645283D01*
X299459Y645315D01*
X299564Y645351D01*
X299667Y645391D01*
X299769Y645434D01*
X299870Y645481D01*
X299969Y645532D01*
X300066Y645585D01*
X300160Y645642D01*
X300253Y645703D01*
X300344Y645766D01*
X300433Y645833D01*
X300519Y645903D01*
X300602Y645976D01*
X300684Y646051D01*
X300762Y646129D01*
X300837Y646211D01*
X300910Y646294D01*
X300980Y646380D01*
X301047Y646469D01*
X301110Y646560D01*
X301171Y646653D01*
X301228Y646748D01*
X301281Y646844D01*
X301332Y646943D01*
X301379Y647044D01*
X301422Y647146D01*
X301462Y647249D01*
X301498Y647354D01*
X301530Y647460D01*
X301559Y647567D01*
X301584Y647675D01*
X301605Y647784D01*
X301622Y647893D01*
X301636Y648003D01*
X301645Y648114D01*
X301651Y648224D01*
X301653Y648335D01*
X301651Y648446D01*
X301645Y648556D01*
X301636Y648667D01*
X301622Y648777D01*
X301605Y648886D01*
X301584Y648995D01*
X301559Y649103D01*
X301530Y649210D01*
X301498Y649316D01*
X301462Y649421D01*
X301422Y649524D01*
X301379Y649626D01*
X301332Y649727D01*
X301281Y649826D01*
X301228Y649922D01*
X301171Y650017D01*
X301110Y650110D01*
X301047Y650201D01*
X300980Y650290D01*
X300910Y650376D01*
X300837Y650459D01*
X300762Y650541D01*
X300684Y650619D01*
X300602Y650694D01*
X300519Y650767D01*
X300433Y650837D01*
X300344Y650904D01*
X300253Y650967D01*
X300160Y651028D01*
X300066Y651085D01*
X299969Y651138D01*
X299870Y651189D01*
X299769Y651236D01*
X299667Y651279D01*
X299564Y651319D01*
X299459Y651355D01*
X299353Y651387D01*
X299246Y651416D01*
X299138Y651441D01*
X299029Y651462D01*
X298920Y651479D01*
X298810Y651493D01*
X298699Y651502D01*
X298589Y651508D01*
X298478Y651510D01*
X290223Y651510D01*
X290223Y659384D02*
X301653Y659384D01*
X295938Y659384D02*
X294986Y657797D01*
X294986Y657796D02*
X294939Y657723D01*
X294890Y657652D01*
X294837Y657583D01*
X294781Y657517D01*
X294722Y657453D01*
X294661Y657392D01*
X294597Y657334D01*
X294530Y657279D01*
X294460Y657227D01*
X294389Y657179D01*
X294315Y657133D01*
X294239Y657091D01*
X294161Y657053D01*
X294082Y657018D01*
X294001Y656987D01*
X293919Y656960D01*
X293836Y656936D01*
X293751Y656916D01*
X293666Y656900D01*
X293580Y656888D01*
X293494Y656880D01*
X293408Y656876D01*
X293321Y656875D01*
X293234Y656879D01*
X293148Y656887D01*
X293062Y656898D01*
X292977Y656914D01*
X292893Y656933D01*
X292809Y656956D01*
X292727Y656983D01*
X292646Y657014D01*
X292566Y657049D01*
X292489Y657086D01*
X292413Y657128D01*
X292338Y657173D01*
X292267Y657221D01*
X292197Y657273D01*
X292130Y657327D01*
X292065Y657385D01*
X292003Y657445D01*
X291944Y657509D01*
X291888Y657575D01*
X291834Y657643D01*
X291785Y657714D01*
X291738Y657787D01*
X291695Y657862D01*
X291655Y657939D01*
X291619Y658017D01*
X291586Y658098D01*
X291557Y658179D01*
X291532Y658262D01*
X291510Y658346D01*
X291493Y658431D01*
X291493Y658432D02*
X291470Y658569D01*
X291450Y658708D01*
X291435Y658846D01*
X291423Y658985D01*
X291415Y659125D01*
X291412Y659264D01*
X291411Y659404D01*
X291415Y659543D01*
X291423Y659682D01*
X291434Y659821D01*
X291450Y659960D01*
X291469Y660098D01*
X291492Y660236D01*
X291519Y660373D01*
X291550Y660509D01*
X291584Y660644D01*
X291622Y660778D01*
X291664Y660912D01*
X291710Y661043D01*
X291759Y661174D01*
X291812Y661303D01*
X291868Y661431D01*
X291928Y661557D01*
X291991Y661681D01*
X292058Y661804D01*
X292128Y661924D01*
X295938Y659384D02*
X296891Y660972D01*
X296890Y660972D02*
X296937Y661045D01*
X296986Y661116D01*
X297039Y661185D01*
X297095Y661251D01*
X297154Y661315D01*
X297215Y661376D01*
X297279Y661434D01*
X297346Y661489D01*
X297416Y661541D01*
X297487Y661589D01*
X297561Y661635D01*
X297637Y661677D01*
X297715Y661715D01*
X297794Y661750D01*
X297875Y661781D01*
X297957Y661808D01*
X298040Y661832D01*
X298125Y661852D01*
X298210Y661868D01*
X298296Y661880D01*
X298382Y661888D01*
X298468Y661892D01*
X298555Y661893D01*
X298642Y661889D01*
X298728Y661881D01*
X298814Y661870D01*
X298899Y661854D01*
X298983Y661835D01*
X299067Y661812D01*
X299149Y661785D01*
X299230Y661754D01*
X299310Y661719D01*
X299387Y661682D01*
X299463Y661640D01*
X299538Y661595D01*
X299609Y661547D01*
X299679Y661495D01*
X299746Y661441D01*
X299811Y661383D01*
X299873Y661323D01*
X299932Y661259D01*
X299988Y661193D01*
X300042Y661125D01*
X300091Y661054D01*
X300138Y660981D01*
X300181Y660906D01*
X300221Y660829D01*
X300257Y660751D01*
X300290Y660670D01*
X300319Y660589D01*
X300344Y660506D01*
X300366Y660422D01*
X300383Y660337D01*
X300383Y660336D02*
X300406Y660199D01*
X300426Y660060D01*
X300441Y659922D01*
X300453Y659783D01*
X300461Y659643D01*
X300464Y659504D01*
X300465Y659364D01*
X300461Y659225D01*
X300453Y659086D01*
X300442Y658947D01*
X300426Y658808D01*
X300407Y658670D01*
X300384Y658532D01*
X300357Y658395D01*
X300326Y658259D01*
X300292Y658124D01*
X300254Y657990D01*
X300212Y657856D01*
X300166Y657725D01*
X300117Y657594D01*
X300064Y657465D01*
X300008Y657337D01*
X299948Y657211D01*
X299885Y657087D01*
X299818Y656964D01*
X299748Y656844D01*
X292763Y666877D02*
X290223Y670052D01*
X301653Y670052D01*
X301653Y666877D02*
X301653Y673227D01*
X367700Y690200D02*
X687700Y690200D01*
X687700Y890200D01*
X367700Y890200D01*
X367700Y690200D01*
X526872Y790200D02*
X526890Y791693D01*
X526945Y793185D01*
X527037Y794675D01*
X527165Y796162D01*
X527329Y797646D01*
X527530Y799125D01*
X527768Y800599D01*
X528041Y802067D01*
X528350Y803527D01*
X528695Y804980D01*
X529075Y806424D01*
X529491Y807857D01*
X529942Y809281D01*
X530428Y810692D01*
X530948Y812092D01*
X531502Y813478D01*
X532090Y814850D01*
X532712Y816207D01*
X533367Y817549D01*
X534054Y818874D01*
X534774Y820182D01*
X535526Y821472D01*
X536309Y822743D01*
X537123Y823994D01*
X537968Y825225D01*
X538842Y826435D01*
X539746Y827623D01*
X540679Y828789D01*
X541641Y829931D01*
X542629Y831050D01*
X543645Y832143D01*
X544688Y833212D01*
X545757Y834255D01*
X546850Y835271D01*
X547969Y836259D01*
X549111Y837221D01*
X550277Y838154D01*
X551465Y839058D01*
X552675Y839932D01*
X553906Y840777D01*
X555157Y841591D01*
X556428Y842374D01*
X557718Y843126D01*
X559026Y843846D01*
X560351Y844533D01*
X561693Y845188D01*
X563050Y845810D01*
X564422Y846398D01*
X565808Y846952D01*
X567208Y847472D01*
X568619Y847958D01*
X570043Y848409D01*
X571476Y848825D01*
X572920Y849205D01*
X574373Y849550D01*
X575833Y849859D01*
X577301Y850132D01*
X578775Y850370D01*
X580254Y850571D01*
X581738Y850735D01*
X583225Y850863D01*
X584715Y850955D01*
X586207Y851010D01*
X587700Y851028D01*
X589193Y851010D01*
X590685Y850955D01*
X592175Y850863D01*
X593662Y850735D01*
X595146Y850571D01*
X596625Y850370D01*
X598099Y850132D01*
X599567Y849859D01*
X601027Y849550D01*
X602480Y849205D01*
X603924Y848825D01*
X605357Y848409D01*
X606781Y847958D01*
X608192Y847472D01*
X609592Y846952D01*
X610978Y846398D01*
X612350Y845810D01*
X613707Y845188D01*
X615049Y844533D01*
X616374Y843846D01*
X617682Y843126D01*
X618972Y842374D01*
X620243Y841591D01*
X621494Y840777D01*
X622725Y839932D01*
X623935Y839058D01*
X625123Y838154D01*
X626289Y837221D01*
X627431Y836259D01*
X628550Y835271D01*
X629643Y834255D01*
X630712Y833212D01*
X631755Y832143D01*
X632771Y831050D01*
X633759Y829931D01*
X634721Y828789D01*
X635654Y827623D01*
X636558Y826435D01*
X637432Y825225D01*
X638277Y823994D01*
X639091Y822743D01*
X639874Y821472D01*
X640626Y820182D01*
X641346Y818874D01*
X642033Y817549D01*
X642688Y816207D01*
X643310Y814850D01*
X643898Y813478D01*
X644452Y812092D01*
X644972Y810692D01*
X645458Y809281D01*
X645909Y807857D01*
X646325Y806424D01*
X646705Y804980D01*
X647050Y803527D01*
X647359Y802067D01*
X647632Y800599D01*
X647870Y799125D01*
X648071Y797646D01*
X648235Y796162D01*
X648363Y794675D01*
X648455Y793185D01*
X648510Y791693D01*
X648528Y790200D01*
X648510Y788707D01*
X648455Y787215D01*
X648363Y785725D01*
X648235Y784238D01*
X648071Y782754D01*
X647870Y781275D01*
X647632Y779801D01*
X647359Y778333D01*
X647050Y776873D01*
X646705Y775420D01*
X646325Y773976D01*
X645909Y772543D01*
X645458Y771119D01*
X644972Y769708D01*
X644452Y768308D01*
X643898Y766922D01*
X643310Y765550D01*
X642688Y764193D01*
X642033Y762851D01*
X641346Y761526D01*
X640626Y760218D01*
X639874Y758928D01*
X639091Y757657D01*
X638277Y756406D01*
X637432Y755175D01*
X636558Y753965D01*
X635654Y752777D01*
X634721Y751611D01*
X633759Y750469D01*
X632771Y749350D01*
X631755Y748257D01*
X630712Y747188D01*
X629643Y746145D01*
X628550Y745129D01*
X627431Y744141D01*
X626289Y743179D01*
X625123Y742246D01*
X623935Y741342D01*
X622725Y740468D01*
X621494Y739623D01*
X620243Y738809D01*
X618972Y738026D01*
X617682Y737274D01*
X616374Y736554D01*
X615049Y735867D01*
X613707Y735212D01*
X612350Y734590D01*
X610978Y734002D01*
X609592Y733448D01*
X608192Y732928D01*
X606781Y732442D01*
X605357Y731991D01*
X603924Y731575D01*
X602480Y731195D01*
X601027Y730850D01*
X599567Y730541D01*
X598099Y730268D01*
X596625Y730030D01*
X595146Y729829D01*
X593662Y729665D01*
X592175Y729537D01*
X590685Y729445D01*
X589193Y729390D01*
X587700Y729372D01*
X586207Y729390D01*
X584715Y729445D01*
X583225Y729537D01*
X581738Y729665D01*
X580254Y729829D01*
X578775Y730030D01*
X577301Y730268D01*
X575833Y730541D01*
X574373Y730850D01*
X572920Y731195D01*
X571476Y731575D01*
X570043Y731991D01*
X568619Y732442D01*
X567208Y732928D01*
X565808Y733448D01*
X564422Y734002D01*
X563050Y734590D01*
X561693Y735212D01*
X560351Y735867D01*
X559026Y736554D01*
X557718Y737274D01*
X556428Y738026D01*
X555157Y738809D01*
X553906Y739623D01*
X552675Y740468D01*
X551465Y741342D01*
X550277Y742246D01*
X549111Y743179D01*
X547969Y744141D01*
X546850Y745129D01*
X545757Y746145D01*
X544688Y747188D01*
X543645Y748257D01*
X542629Y749350D01*
X541641Y750469D01*
X540679Y751611D01*
X539746Y752777D01*
X538842Y753965D01*
X537968Y755175D01*
X537123Y756406D01*
X536309Y757657D01*
X535526Y758928D01*
X534774Y760218D01*
X534054Y761526D01*
X533367Y762851D01*
X532712Y764193D01*
X532090Y765550D01*
X531502Y766922D01*
X530948Y768308D01*
X530428Y769708D01*
X529942Y771119D01*
X529491Y772543D01*
X529075Y773976D01*
X528695Y775420D01*
X528350Y776873D01*
X528041Y778333D01*
X527768Y779801D01*
X527530Y781275D01*
X527329Y782754D01*
X527165Y784238D01*
X527037Y785725D01*
X526945Y787215D01*
X526890Y788707D01*
X526872Y790200D01*
X547700Y790200D02*
X547712Y791182D01*
X547748Y792163D01*
X547808Y793143D01*
X547893Y794121D01*
X548001Y795096D01*
X548133Y796069D01*
X548289Y797038D01*
X548469Y798004D01*
X548672Y798964D01*
X548899Y799919D01*
X549149Y800869D01*
X549422Y801811D01*
X549719Y802747D01*
X550038Y803676D01*
X550380Y804596D01*
X550745Y805507D01*
X551132Y806410D01*
X551540Y807302D01*
X551971Y808184D01*
X552423Y809056D01*
X552897Y809916D01*
X553391Y810764D01*
X553906Y811600D01*
X554441Y812423D01*
X554997Y813232D01*
X555572Y814028D01*
X556166Y814809D01*
X556780Y815576D01*
X557412Y816327D01*
X558062Y817062D01*
X558730Y817782D01*
X559416Y818484D01*
X560118Y819170D01*
X560838Y819838D01*
X561573Y820488D01*
X562324Y821120D01*
X563091Y821734D01*
X563872Y822328D01*
X564668Y822903D01*
X565477Y823459D01*
X566300Y823994D01*
X567136Y824509D01*
X567984Y825003D01*
X568844Y825477D01*
X569716Y825929D01*
X570598Y826360D01*
X571490Y826768D01*
X572393Y827155D01*
X573304Y827520D01*
X574224Y827862D01*
X575153Y828181D01*
X576089Y828478D01*
X577031Y828751D01*
X577981Y829001D01*
X578936Y829228D01*
X579896Y829431D01*
X580862Y829611D01*
X581831Y829767D01*
X582804Y829899D01*
X583779Y830007D01*
X584757Y830092D01*
X585737Y830152D01*
X586718Y830188D01*
X587700Y830200D01*
X588682Y830188D01*
X589663Y830152D01*
X590643Y830092D01*
X591621Y830007D01*
X592596Y829899D01*
X593569Y829767D01*
X594538Y829611D01*
X595504Y829431D01*
X596464Y829228D01*
X597419Y829001D01*
X598369Y828751D01*
X599311Y828478D01*
X600247Y828181D01*
X601176Y827862D01*
X602096Y827520D01*
X603007Y827155D01*
X603910Y826768D01*
X604802Y826360D01*
X605684Y825929D01*
X606556Y825477D01*
X607416Y825003D01*
X608264Y824509D01*
X609100Y823994D01*
X609923Y823459D01*
X610732Y822903D01*
X611528Y822328D01*
X612309Y821734D01*
X613076Y821120D01*
X613827Y820488D01*
X614562Y819838D01*
X615282Y819170D01*
X615984Y818484D01*
X616670Y817782D01*
X617338Y817062D01*
X617988Y816327D01*
X618620Y815576D01*
X619234Y814809D01*
X619828Y814028D01*
X620403Y813232D01*
X620959Y812423D01*
X621494Y811600D01*
X622009Y810764D01*
X622503Y809916D01*
X622977Y809056D01*
X623429Y808184D01*
X623860Y807302D01*
X624268Y806410D01*
X624655Y805507D01*
X625020Y804596D01*
X625362Y803676D01*
X625681Y802747D01*
X625978Y801811D01*
X626251Y800869D01*
X626501Y799919D01*
X626728Y798964D01*
X626931Y798004D01*
X627111Y797038D01*
X627267Y796069D01*
X627399Y795096D01*
X627507Y794121D01*
X627592Y793143D01*
X627652Y792163D01*
X627688Y791182D01*
X627700Y790200D01*
X627688Y789218D01*
X627652Y788237D01*
X627592Y787257D01*
X627507Y786279D01*
X627399Y785304D01*
X627267Y784331D01*
X627111Y783362D01*
X626931Y782396D01*
X626728Y781436D01*
X626501Y780481D01*
X626251Y779531D01*
X625978Y778589D01*
X625681Y777653D01*
X625362Y776724D01*
X625020Y775804D01*
X624655Y774893D01*
X624268Y773990D01*
X623860Y773098D01*
X623429Y772216D01*
X622977Y771344D01*
X622503Y770484D01*
X622009Y769636D01*
X621494Y768800D01*
X620959Y767977D01*
X620403Y767168D01*
X619828Y766372D01*
X619234Y765591D01*
X618620Y764824D01*
X617988Y764073D01*
X617338Y763338D01*
X616670Y762618D01*
X615984Y761916D01*
X615282Y761230D01*
X614562Y760562D01*
X613827Y759912D01*
X613076Y759280D01*
X612309Y758666D01*
X611528Y758072D01*
X610732Y757497D01*
X609923Y756941D01*
X609100Y756406D01*
X608264Y755891D01*
X607416Y755397D01*
X606556Y754923D01*
X605684Y754471D01*
X604802Y754040D01*
X603910Y753632D01*
X603007Y753245D01*
X602096Y752880D01*
X601176Y752538D01*
X600247Y752219D01*
X599311Y751922D01*
X598369Y751649D01*
X597419Y751399D01*
X596464Y751172D01*
X595504Y750969D01*
X594538Y750789D01*
X593569Y750633D01*
X592596Y750501D01*
X591621Y750393D01*
X590643Y750308D01*
X589663Y750248D01*
X588682Y750212D01*
X587700Y750200D01*
X586718Y750212D01*
X585737Y750248D01*
X584757Y750308D01*
X583779Y750393D01*
X582804Y750501D01*
X581831Y750633D01*
X580862Y750789D01*
X579896Y750969D01*
X578936Y751172D01*
X577981Y751399D01*
X577031Y751649D01*
X576089Y751922D01*
X575153Y752219D01*
X574224Y752538D01*
X573304Y752880D01*
X572393Y753245D01*
X571490Y753632D01*
X570598Y754040D01*
X569716Y754471D01*
X568844Y754923D01*
X567984Y755397D01*
X567136Y755891D01*
X566300Y756406D01*
X565477Y756941D01*
X564668Y757497D01*
X563872Y758072D01*
X563091Y758666D01*
X562324Y759280D01*
X561573Y759912D01*
X560838Y760562D01*
X560118Y761230D01*
X559416Y761916D01*
X558730Y762618D01*
X558062Y763338D01*
X557412Y764073D01*
X556780Y764824D01*
X556166Y765591D01*
X555572Y766372D01*
X554997Y767168D01*
X554441Y767977D01*
X553906Y768800D01*
X553391Y769636D01*
X552897Y770484D01*
X552423Y771344D01*
X551971Y772216D01*
X551540Y773098D01*
X551132Y773990D01*
X550745Y774893D01*
X550380Y775804D01*
X550038Y776724D01*
X549719Y777653D01*
X549422Y778589D01*
X549149Y779531D01*
X548899Y780481D01*
X548672Y781436D01*
X548469Y782396D01*
X548289Y783362D01*
X548133Y784331D01*
X548001Y785304D01*
X547893Y786279D01*
X547808Y787257D01*
X547748Y788237D01*
X547712Y789218D01*
X547700Y790200D01*
X946100Y449100D02*
X946100Y309400D01*
X730200Y309400D01*
X730200Y449100D01*
X946100Y449100D01*
X852200Y380900D02*
X852211Y381835D01*
X852246Y382769D01*
X852303Y383703D01*
X852383Y384634D01*
X852487Y385564D01*
X852612Y386490D01*
X852761Y387414D01*
X852932Y388333D01*
X853126Y389248D01*
X853342Y390158D01*
X853580Y391062D01*
X853841Y391960D01*
X854123Y392851D01*
X854427Y393736D01*
X854753Y394612D01*
X855100Y395480D01*
X855469Y396340D01*
X855858Y397190D01*
X856268Y398030D01*
X856699Y398860D01*
X857150Y399679D01*
X857621Y400487D01*
X858111Y401283D01*
X858621Y402067D01*
X859150Y402838D01*
X859698Y403596D01*
X860264Y404340D01*
X860848Y405070D01*
X861450Y405786D01*
X862070Y406486D01*
X862706Y407171D01*
X863359Y407841D01*
X864029Y408494D01*
X864714Y409130D01*
X865414Y409750D01*
X866130Y410352D01*
X866860Y410936D01*
X867604Y411502D01*
X868362Y412050D01*
X869133Y412579D01*
X869917Y413089D01*
X870713Y413579D01*
X871521Y414050D01*
X872340Y414501D01*
X873170Y414932D01*
X874010Y415342D01*
X874860Y415731D01*
X875720Y416100D01*
X876588Y416447D01*
X877464Y416773D01*
X878349Y417077D01*
X879240Y417359D01*
X880138Y417620D01*
X881042Y417858D01*
X881952Y418074D01*
X882867Y418268D01*
X883786Y418439D01*
X884710Y418588D01*
X885636Y418713D01*
X886566Y418817D01*
X887497Y418897D01*
X888431Y418954D01*
X889365Y418989D01*
X890300Y419000D01*
X891235Y418989D01*
X892169Y418954D01*
X893103Y418897D01*
X894034Y418817D01*
X894964Y418713D01*
X895890Y418588D01*
X896814Y418439D01*
X897733Y418268D01*
X898648Y418074D01*
X899558Y417858D01*
X900462Y417620D01*
X901360Y417359D01*
X902251Y417077D01*
X903136Y416773D01*
X904012Y416447D01*
X904880Y416100D01*
X905740Y415731D01*
X906590Y415342D01*
X907430Y414932D01*
X908260Y414501D01*
X909079Y414050D01*
X909887Y413579D01*
X910683Y413089D01*
X911467Y412579D01*
X912238Y412050D01*
X912996Y411502D01*
X913740Y410936D01*
X914470Y410352D01*
X915186Y409750D01*
X915886Y409130D01*
X916571Y408494D01*
X917241Y407841D01*
X917894Y407171D01*
X918530Y406486D01*
X919150Y405786D01*
X919752Y405070D01*
X920336Y404340D01*
X920902Y403596D01*
X921450Y402838D01*
X921979Y402067D01*
X922489Y401283D01*
X922979Y400487D01*
X923450Y399679D01*
X923901Y398860D01*
X924332Y398030D01*
X924742Y397190D01*
X925131Y396340D01*
X925500Y395480D01*
X925847Y394612D01*
X926173Y393736D01*
X926477Y392851D01*
X926759Y391960D01*
X927020Y391062D01*
X927258Y390158D01*
X927474Y389248D01*
X927668Y388333D01*
X927839Y387414D01*
X927988Y386490D01*
X928113Y385564D01*
X928217Y384634D01*
X928297Y383703D01*
X928354Y382769D01*
X928389Y381835D01*
X928400Y380900D01*
X928389Y379965D01*
X928354Y379031D01*
X928297Y378097D01*
X928217Y377166D01*
X928113Y376236D01*
X927988Y375310D01*
X927839Y374386D01*
X927668Y373467D01*
X927474Y372552D01*
X927258Y371642D01*
X927020Y370738D01*
X926759Y369840D01*
X926477Y368949D01*
X926173Y368064D01*
X925847Y367188D01*
X925500Y366320D01*
X925131Y365460D01*
X924742Y364610D01*
X924332Y363770D01*
X923901Y362940D01*
X923450Y362121D01*
X922979Y361313D01*
X922489Y360517D01*
X921979Y359733D01*
X921450Y358962D01*
X920902Y358204D01*
X920336Y357460D01*
X919752Y356730D01*
X919150Y356014D01*
X918530Y355314D01*
X917894Y354629D01*
X917241Y353959D01*
X916571Y353306D01*
X915886Y352670D01*
X915186Y352050D01*
X914470Y351448D01*
X913740Y350864D01*
X912996Y350298D01*
X912238Y349750D01*
X911467Y349221D01*
X910683Y348711D01*
X909887Y348221D01*
X909079Y347750D01*
X908260Y347299D01*
X907430Y346868D01*
X906590Y346458D01*
X905740Y346069D01*
X904880Y345700D01*
X904012Y345353D01*
X903136Y345027D01*
X902251Y344723D01*
X901360Y344441D01*
X900462Y344180D01*
X899558Y343942D01*
X898648Y343726D01*
X897733Y343532D01*
X896814Y343361D01*
X895890Y343212D01*
X894964Y343087D01*
X894034Y342983D01*
X893103Y342903D01*
X892169Y342846D01*
X891235Y342811D01*
X890300Y342800D01*
X889365Y342811D01*
X888431Y342846D01*
X887497Y342903D01*
X886566Y342983D01*
X885636Y343087D01*
X884710Y343212D01*
X883786Y343361D01*
X882867Y343532D01*
X881952Y343726D01*
X881042Y343942D01*
X880138Y344180D01*
X879240Y344441D01*
X878349Y344723D01*
X877464Y345027D01*
X876588Y345353D01*
X875720Y345700D01*
X874860Y346069D01*
X874010Y346458D01*
X873170Y346868D01*
X872340Y347299D01*
X871521Y347750D01*
X870713Y348221D01*
X869917Y348711D01*
X869133Y349221D01*
X868362Y349750D01*
X867604Y350298D01*
X866860Y350864D01*
X866130Y351448D01*
X865414Y352050D01*
X864714Y352670D01*
X864029Y353306D01*
X863359Y353959D01*
X862706Y354629D01*
X862070Y355314D01*
X861450Y356014D01*
X860848Y356730D01*
X860264Y357460D01*
X859698Y358204D01*
X859150Y358962D01*
X858621Y359733D01*
X858111Y360517D01*
X857621Y361313D01*
X857150Y362121D01*
X856699Y362940D01*
X856268Y363770D01*
X855858Y364610D01*
X855469Y365460D01*
X855100Y366320D01*
X854753Y367188D01*
X854427Y368064D01*
X854123Y368949D01*
X853841Y369840D01*
X853580Y370738D01*
X853342Y371642D01*
X853126Y372552D01*
X852932Y373467D01*
X852761Y374386D01*
X852612Y375310D01*
X852487Y376236D01*
X852383Y377166D01*
X852303Y378097D01*
X852246Y379031D01*
X852211Y379965D01*
X852200Y380900D01*
X440000Y179600D02*
X440018Y181072D01*
X440072Y182544D01*
X440163Y184014D01*
X440289Y185481D01*
X440451Y186945D01*
X440649Y188404D01*
X440883Y189858D01*
X441153Y191305D01*
X441458Y192746D01*
X441798Y194179D01*
X442173Y195603D01*
X442584Y197017D01*
X443028Y198421D01*
X443507Y199813D01*
X444020Y201194D01*
X444567Y202561D01*
X445147Y203914D01*
X445761Y205253D01*
X446407Y206577D01*
X447085Y207884D01*
X447795Y209174D01*
X448536Y210446D01*
X449309Y211700D01*
X450112Y212934D01*
X450945Y214148D01*
X451808Y215342D01*
X452699Y216514D01*
X453619Y217664D01*
X454567Y218790D01*
X455543Y219894D01*
X456545Y220972D01*
X457574Y222026D01*
X458628Y223055D01*
X459706Y224057D01*
X460810Y225033D01*
X461936Y225981D01*
X463086Y226901D01*
X464258Y227792D01*
X465452Y228655D01*
X466666Y229488D01*
X467900Y230291D01*
X469154Y231064D01*
X470426Y231805D01*
X471716Y232515D01*
X473023Y233193D01*
X474347Y233839D01*
X475686Y234453D01*
X477039Y235033D01*
X478406Y235580D01*
X479787Y236093D01*
X481179Y236572D01*
X482583Y237016D01*
X483997Y237427D01*
X485421Y237802D01*
X486854Y238142D01*
X488295Y238447D01*
X489742Y238717D01*
X491196Y238951D01*
X492655Y239149D01*
X494119Y239311D01*
X495586Y239437D01*
X497056Y239528D01*
X498528Y239582D01*
X500000Y239600D01*
X501472Y239582D01*
X502944Y239528D01*
X504414Y239437D01*
X505881Y239311D01*
X507345Y239149D01*
X508804Y238951D01*
X510258Y238717D01*
X511705Y238447D01*
X513146Y238142D01*
X514579Y237802D01*
X516003Y237427D01*
X517417Y237016D01*
X518821Y236572D01*
X520213Y236093D01*
X521594Y235580D01*
X522961Y235033D01*
X524314Y234453D01*
X525653Y233839D01*
X526977Y233193D01*
X528284Y232515D01*
X529574Y231805D01*
X530846Y231064D01*
X532100Y230291D01*
X533334Y229488D01*
X534548Y228655D01*
X535742Y227792D01*
X536914Y226901D01*
X538064Y225981D01*
X539190Y225033D01*
X540294Y224057D01*
X541372Y223055D01*
X542426Y222026D01*
X543455Y220972D01*
X544457Y219894D01*
X545433Y218790D01*
X546381Y217664D01*
X547301Y216514D01*
X548192Y215342D01*
X549055Y214148D01*
X549888Y212934D01*
X550691Y211700D01*
X551464Y210446D01*
X552205Y209174D01*
X552915Y207884D01*
X553593Y206577D01*
X554239Y205253D01*
X554853Y203914D01*
X555433Y202561D01*
X555980Y201194D01*
X556493Y199813D01*
X556972Y198421D01*
X557416Y197017D01*
X557827Y195603D01*
X558202Y194179D01*
X558542Y192746D01*
X558847Y191305D01*
X559117Y189858D01*
X559351Y188404D01*
X559549Y186945D01*
X559711Y185481D01*
X559837Y184014D01*
X559928Y182544D01*
X559982Y181072D01*
X560000Y179600D01*
X559982Y178128D01*
X559928Y176656D01*
X559837Y175186D01*
X559711Y173719D01*
X559549Y172255D01*
X559351Y170796D01*
X559117Y169342D01*
X558847Y167895D01*
X558542Y166454D01*
X558202Y165021D01*
X557827Y163597D01*
X557416Y162183D01*
X556972Y160779D01*
X556493Y159387D01*
X555980Y158006D01*
X555433Y156639D01*
X554853Y155286D01*
X554239Y153947D01*
X553593Y152623D01*
X552915Y151316D01*
X552205Y150026D01*
X551464Y148754D01*
X550691Y147500D01*
X549888Y146266D01*
X549055Y145052D01*
X548192Y143858D01*
X547301Y142686D01*
X546381Y141536D01*
X545433Y140410D01*
X544457Y139306D01*
X543455Y138228D01*
X542426Y137174D01*
X541372Y136145D01*
X540294Y135143D01*
X539190Y134167D01*
X538064Y133219D01*
X536914Y132299D01*
X535742Y131408D01*
X534548Y130545D01*
X533334Y129712D01*
X532100Y128909D01*
X530846Y128136D01*
X529574Y127395D01*
X528284Y126685D01*
X526977Y126007D01*
X525653Y125361D01*
X524314Y124747D01*
X522961Y124167D01*
X521594Y123620D01*
X520213Y123107D01*
X518821Y122628D01*
X517417Y122184D01*
X516003Y121773D01*
X514579Y121398D01*
X513146Y121058D01*
X511705Y120753D01*
X510258Y120483D01*
X508804Y120249D01*
X507345Y120051D01*
X505881Y119889D01*
X504414Y119763D01*
X502944Y119672D01*
X501472Y119618D01*
X500000Y119600D01*
X498528Y119618D01*
X497056Y119672D01*
X495586Y119763D01*
X494119Y119889D01*
X492655Y120051D01*
X491196Y120249D01*
X489742Y120483D01*
X488295Y120753D01*
X486854Y121058D01*
X485421Y121398D01*
X483997Y121773D01*
X482583Y122184D01*
X481179Y122628D01*
X479787Y123107D01*
X478406Y123620D01*
X477039Y124167D01*
X475686Y124747D01*
X474347Y125361D01*
X473023Y126007D01*
X471716Y126685D01*
X470426Y127395D01*
X469154Y128136D01*
X467900Y128909D01*
X466666Y129712D01*
X465452Y130545D01*
X464258Y131408D01*
X463086Y132299D01*
X461936Y133219D01*
X460810Y134167D01*
X459706Y135143D01*
X458628Y136145D01*
X457574Y137174D01*
X456545Y138228D01*
X455543Y139306D01*
X454567Y140410D01*
X453619Y141536D01*
X452699Y142686D01*
X451808Y143858D01*
X450945Y145052D01*
X450112Y146266D01*
X449309Y147500D01*
X448536Y148754D01*
X447795Y150026D01*
X447085Y151316D01*
X446407Y152623D01*
X445761Y153947D01*
X445147Y155286D01*
X444567Y156639D01*
X444020Y158006D01*
X443507Y159387D01*
X443028Y160779D01*
X442584Y162183D01*
X442173Y163597D01*
X441798Y165021D01*
X441458Y166454D01*
X441153Y167895D01*
X440883Y169342D01*
X440649Y170796D01*
X440451Y172255D01*
X440289Y173719D01*
X440163Y175186D01*
X440072Y176656D01*
X440018Y178128D01*
X440000Y179600D01*
X861300Y478800D02*
X861300Y578800D01*
X731300Y578800D01*
X731300Y478800D01*
X861300Y478800D01*
X314000Y605800D02*
X314000Y613800D01*
X314000Y605800D02*
X314000Y560800D01*
X314000Y553800D01*
X374000Y553800D01*
X374000Y560800D01*
X374000Y605800D01*
X374000Y613800D01*
X314000Y613800D01*
X374000Y605800D02*
X392000Y605800D01*
X391000Y560800D02*
X374000Y560800D01*
X314000Y605800D02*
X295000Y605800D01*
X295000Y560800D02*
X314000Y560800D01*
X630700Y388800D02*
X630700Y380800D01*
X630700Y335800D01*
X630700Y328800D01*
X690700Y328800D01*
X690700Y335800D01*
X690700Y380800D01*
X690700Y388800D01*
X630700Y388800D01*
X690700Y380800D02*
X708700Y380800D01*
X707700Y335800D02*
X690700Y335800D01*
X630700Y380800D02*
X611700Y380800D01*
X611700Y335800D02*
X630700Y335800D01*
X329000Y213800D02*
X329000Y205800D01*
X329000Y160800D01*
X329000Y153800D01*
X389000Y153800D01*
X389000Y160800D01*
X389000Y205800D01*
X389000Y213800D01*
X329000Y213800D01*
X389000Y205800D02*
X407000Y205800D01*
X406000Y160800D02*
X389000Y160800D01*
X329000Y205800D02*
X310000Y205800D01*
X310000Y160800D02*
X329000Y160800D01*
D18*
X399000Y552500D02*
X399002Y552563D01*
X399008Y552625D01*
X399018Y552687D01*
X399031Y552749D01*
X399049Y552809D01*
X399070Y552868D01*
X399095Y552926D01*
X399124Y552982D01*
X399156Y553036D01*
X399191Y553088D01*
X399229Y553137D01*
X399271Y553185D01*
X399315Y553229D01*
X399363Y553271D01*
X399412Y553309D01*
X399464Y553344D01*
X399518Y553376D01*
X399574Y553405D01*
X399632Y553430D01*
X399691Y553451D01*
X399751Y553469D01*
X399813Y553482D01*
X399875Y553492D01*
X399937Y553498D01*
X400000Y553500D01*
X400063Y553498D01*
X400125Y553492D01*
X400187Y553482D01*
X400249Y553469D01*
X400309Y553451D01*
X400368Y553430D01*
X400426Y553405D01*
X400482Y553376D01*
X400536Y553344D01*
X400588Y553309D01*
X400637Y553271D01*
X400685Y553229D01*
X400729Y553185D01*
X400771Y553137D01*
X400809Y553088D01*
X400844Y553036D01*
X400876Y552982D01*
X400905Y552926D01*
X400930Y552868D01*
X400951Y552809D01*
X400969Y552749D01*
X400982Y552687D01*
X400992Y552625D01*
X400998Y552563D01*
X401000Y552500D01*
X400998Y552437D01*
X400992Y552375D01*
X400982Y552313D01*
X400969Y552251D01*
X400951Y552191D01*
X400930Y552132D01*
X400905Y552074D01*
X400876Y552018D01*
X400844Y551964D01*
X400809Y551912D01*
X400771Y551863D01*
X400729Y551815D01*
X400685Y551771D01*
X400637Y551729D01*
X400588Y551691D01*
X400536Y551656D01*
X400482Y551624D01*
X400426Y551595D01*
X400368Y551570D01*
X400309Y551549D01*
X400249Y551531D01*
X400187Y551518D01*
X400125Y551508D01*
X400063Y551502D01*
X400000Y551500D01*
X399937Y551502D01*
X399875Y551508D01*
X399813Y551518D01*
X399751Y551531D01*
X399691Y551549D01*
X399632Y551570D01*
X399574Y551595D01*
X399518Y551624D01*
X399464Y551656D01*
X399412Y551691D01*
X399363Y551729D01*
X399315Y551771D01*
X399271Y551815D01*
X399229Y551863D01*
X399191Y551912D01*
X399156Y551964D01*
X399124Y552018D01*
X399095Y552074D01*
X399070Y552132D01*
X399049Y552191D01*
X399031Y552251D01*
X399018Y552313D01*
X399008Y552375D01*
X399002Y552437D01*
X399000Y552500D01*
D11*
X410000Y379000D02*
X410000Y372500D01*
X434500Y372500D01*
X565500Y372500D02*
X590000Y372500D01*
X590000Y379000D01*
X410000Y562500D02*
X410000Y627500D01*
X590000Y627500D01*
X590000Y562500D01*
D10*
X405508Y636254D02*
X405508Y644692D01*
X405508Y636254D02*
X405510Y636141D01*
X405516Y636028D01*
X405526Y635915D01*
X405540Y635802D01*
X405557Y635690D01*
X405579Y635579D01*
X405604Y635469D01*
X405634Y635359D01*
X405667Y635251D01*
X405704Y635144D01*
X405744Y635038D01*
X405789Y634934D01*
X405837Y634831D01*
X405888Y634730D01*
X405943Y634631D01*
X406001Y634534D01*
X406063Y634439D01*
X406128Y634346D01*
X406196Y634256D01*
X406267Y634168D01*
X406342Y634082D01*
X406419Y633999D01*
X406499Y633919D01*
X406582Y633842D01*
X406668Y633767D01*
X406756Y633696D01*
X406846Y633628D01*
X406939Y633563D01*
X407034Y633501D01*
X407131Y633443D01*
X407230Y633388D01*
X407331Y633337D01*
X407434Y633289D01*
X407538Y633244D01*
X407644Y633204D01*
X407751Y633167D01*
X407859Y633134D01*
X407969Y633104D01*
X408079Y633079D01*
X408190Y633057D01*
X408302Y633040D01*
X408415Y633026D01*
X408528Y633016D01*
X408641Y633010D01*
X408754Y633008D01*
X408867Y633010D01*
X408980Y633016D01*
X409093Y633026D01*
X409206Y633040D01*
X409318Y633057D01*
X409429Y633079D01*
X409539Y633104D01*
X409649Y633134D01*
X409757Y633167D01*
X409864Y633204D01*
X409970Y633244D01*
X410074Y633289D01*
X410177Y633337D01*
X410278Y633388D01*
X410377Y633443D01*
X410474Y633501D01*
X410569Y633563D01*
X410662Y633628D01*
X410752Y633696D01*
X410840Y633767D01*
X410926Y633842D01*
X411009Y633919D01*
X411089Y633999D01*
X411166Y634082D01*
X411241Y634168D01*
X411312Y634256D01*
X411380Y634346D01*
X411445Y634439D01*
X411507Y634534D01*
X411565Y634631D01*
X411620Y634730D01*
X411671Y634831D01*
X411719Y634934D01*
X411764Y635038D01*
X411804Y635144D01*
X411841Y635251D01*
X411874Y635359D01*
X411904Y635469D01*
X411929Y635579D01*
X411951Y635690D01*
X411968Y635802D01*
X411982Y635915D01*
X411992Y636028D01*
X411998Y636141D01*
X412000Y636254D01*
X411999Y636254D02*
X411999Y644692D01*
X417319Y642096D02*
X420565Y644692D01*
X420565Y633008D01*
X423810Y633008D02*
X417319Y633008D01*
D11*
X148725Y683775D02*
X113675Y683775D01*
X113675Y748825D01*
X148725Y748825D01*
X148725Y683775D01*
D18*
X180200Y693400D02*
X180202Y693463D01*
X180208Y693525D01*
X180218Y693587D01*
X180231Y693649D01*
X180249Y693709D01*
X180270Y693768D01*
X180295Y693826D01*
X180324Y693882D01*
X180356Y693936D01*
X180391Y693988D01*
X180429Y694037D01*
X180471Y694085D01*
X180515Y694129D01*
X180563Y694171D01*
X180612Y694209D01*
X180664Y694244D01*
X180718Y694276D01*
X180774Y694305D01*
X180832Y694330D01*
X180891Y694351D01*
X180951Y694369D01*
X181013Y694382D01*
X181075Y694392D01*
X181137Y694398D01*
X181200Y694400D01*
X181263Y694398D01*
X181325Y694392D01*
X181387Y694382D01*
X181449Y694369D01*
X181509Y694351D01*
X181568Y694330D01*
X181626Y694305D01*
X181682Y694276D01*
X181736Y694244D01*
X181788Y694209D01*
X181837Y694171D01*
X181885Y694129D01*
X181929Y694085D01*
X181971Y694037D01*
X182009Y693988D01*
X182044Y693936D01*
X182076Y693882D01*
X182105Y693826D01*
X182130Y693768D01*
X182151Y693709D01*
X182169Y693649D01*
X182182Y693587D01*
X182192Y693525D01*
X182198Y693463D01*
X182200Y693400D01*
X182198Y693337D01*
X182192Y693275D01*
X182182Y693213D01*
X182169Y693151D01*
X182151Y693091D01*
X182130Y693032D01*
X182105Y692974D01*
X182076Y692918D01*
X182044Y692864D01*
X182009Y692812D01*
X181971Y692763D01*
X181929Y692715D01*
X181885Y692671D01*
X181837Y692629D01*
X181788Y692591D01*
X181736Y692556D01*
X181682Y692524D01*
X181626Y692495D01*
X181568Y692470D01*
X181509Y692449D01*
X181449Y692431D01*
X181387Y692418D01*
X181325Y692408D01*
X181263Y692402D01*
X181200Y692400D01*
X181137Y692402D01*
X181075Y692408D01*
X181013Y692418D01*
X180951Y692431D01*
X180891Y692449D01*
X180832Y692470D01*
X180774Y692495D01*
X180718Y692524D01*
X180664Y692556D01*
X180612Y692591D01*
X180563Y692629D01*
X180515Y692671D01*
X180471Y692715D01*
X180429Y692763D01*
X180391Y692812D01*
X180356Y692864D01*
X180324Y692918D01*
X180295Y692974D01*
X180270Y693032D01*
X180249Y693091D01*
X180231Y693151D01*
X180218Y693213D01*
X180208Y693275D01*
X180202Y693337D01*
X180200Y693400D01*
D10*
X147415Y663292D02*
X147415Y654854D01*
X147414Y654854D02*
X147416Y654741D01*
X147422Y654628D01*
X147432Y654515D01*
X147446Y654402D01*
X147463Y654290D01*
X147485Y654179D01*
X147510Y654069D01*
X147540Y653959D01*
X147573Y653851D01*
X147610Y653744D01*
X147650Y653638D01*
X147695Y653534D01*
X147743Y653431D01*
X147794Y653330D01*
X147849Y653231D01*
X147907Y653134D01*
X147969Y653039D01*
X148034Y652946D01*
X148102Y652856D01*
X148173Y652768D01*
X148248Y652682D01*
X148325Y652599D01*
X148405Y652519D01*
X148488Y652442D01*
X148574Y652367D01*
X148662Y652296D01*
X148752Y652228D01*
X148845Y652163D01*
X148940Y652101D01*
X149037Y652043D01*
X149136Y651988D01*
X149237Y651937D01*
X149340Y651889D01*
X149444Y651844D01*
X149550Y651804D01*
X149657Y651767D01*
X149765Y651734D01*
X149875Y651704D01*
X149985Y651679D01*
X150096Y651657D01*
X150208Y651640D01*
X150321Y651626D01*
X150434Y651616D01*
X150547Y651610D01*
X150660Y651608D01*
X150773Y651610D01*
X150886Y651616D01*
X150999Y651626D01*
X151112Y651640D01*
X151224Y651657D01*
X151335Y651679D01*
X151445Y651704D01*
X151555Y651734D01*
X151663Y651767D01*
X151770Y651804D01*
X151876Y651844D01*
X151980Y651889D01*
X152083Y651937D01*
X152184Y651988D01*
X152283Y652043D01*
X152380Y652101D01*
X152475Y652163D01*
X152568Y652228D01*
X152658Y652296D01*
X152746Y652367D01*
X152832Y652442D01*
X152915Y652519D01*
X152995Y652599D01*
X153072Y652682D01*
X153147Y652768D01*
X153218Y652856D01*
X153286Y652946D01*
X153351Y653039D01*
X153413Y653134D01*
X153471Y653231D01*
X153526Y653330D01*
X153577Y653431D01*
X153625Y653534D01*
X153670Y653638D01*
X153710Y653744D01*
X153747Y653851D01*
X153780Y653959D01*
X153810Y654069D01*
X153835Y654179D01*
X153857Y654290D01*
X153874Y654402D01*
X153888Y654515D01*
X153898Y654628D01*
X153904Y654741D01*
X153906Y654854D01*
X153906Y663292D01*
X162796Y663292D02*
X162903Y663290D01*
X163009Y663284D01*
X163115Y663274D01*
X163221Y663261D01*
X163327Y663243D01*
X163431Y663222D01*
X163535Y663197D01*
X163638Y663168D01*
X163739Y663136D01*
X163839Y663099D01*
X163938Y663059D01*
X164036Y663016D01*
X164132Y662969D01*
X164226Y662918D01*
X164318Y662864D01*
X164408Y662807D01*
X164496Y662747D01*
X164581Y662683D01*
X164664Y662616D01*
X164745Y662546D01*
X164823Y662474D01*
X164899Y662398D01*
X164971Y662320D01*
X165041Y662239D01*
X165108Y662156D01*
X165172Y662071D01*
X165232Y661983D01*
X165289Y661893D01*
X165343Y661801D01*
X165394Y661707D01*
X165441Y661611D01*
X165484Y661513D01*
X165524Y661414D01*
X165561Y661314D01*
X165593Y661213D01*
X165622Y661110D01*
X165647Y661006D01*
X165668Y660902D01*
X165686Y660796D01*
X165699Y660690D01*
X165709Y660584D01*
X165715Y660478D01*
X165717Y660371D01*
X162796Y663292D02*
X162675Y663290D01*
X162554Y663284D01*
X162434Y663274D01*
X162313Y663261D01*
X162194Y663243D01*
X162074Y663222D01*
X161956Y663197D01*
X161839Y663168D01*
X161722Y663135D01*
X161607Y663099D01*
X161493Y663058D01*
X161380Y663015D01*
X161268Y662967D01*
X161159Y662916D01*
X161051Y662861D01*
X160944Y662803D01*
X160840Y662742D01*
X160738Y662677D01*
X160638Y662609D01*
X160540Y662538D01*
X160444Y662464D01*
X160351Y662387D01*
X160261Y662306D01*
X160173Y662223D01*
X160088Y662137D01*
X160005Y662048D01*
X159926Y661957D01*
X159849Y661863D01*
X159776Y661767D01*
X159706Y661669D01*
X159639Y661568D01*
X159575Y661465D01*
X159515Y661360D01*
X159458Y661253D01*
X159404Y661145D01*
X159354Y661035D01*
X159308Y660923D01*
X159265Y660810D01*
X159226Y660695D01*
X164744Y658099D02*
X164823Y658176D01*
X164899Y658257D01*
X164972Y658340D01*
X165042Y658425D01*
X165109Y658513D01*
X165173Y658603D01*
X165233Y658695D01*
X165290Y658790D01*
X165344Y658886D01*
X165395Y658984D01*
X165442Y659084D01*
X165486Y659186D01*
X165526Y659289D01*
X165562Y659393D01*
X165594Y659499D01*
X165623Y659605D01*
X165648Y659713D01*
X165670Y659821D01*
X165687Y659931D01*
X165701Y660040D01*
X165710Y660150D01*
X165716Y660261D01*
X165718Y660371D01*
X164743Y658099D02*
X159226Y651608D01*
X165717Y651608D01*
D11*
X837300Y676700D02*
X839840Y674160D01*
X837300Y671620D01*
X860160Y674160D02*
X862700Y676700D01*
X860160Y674160D02*
X862700Y671620D01*
X862700Y651300D01*
X860160Y648760D01*
X862700Y697020D02*
X860160Y699560D01*
X862700Y697020D02*
X862700Y676700D01*
X839840Y699560D02*
X837300Y697020D01*
X837300Y676700D01*
X837300Y671620D02*
X837300Y651300D01*
X839840Y648760D01*
X860160Y648760D01*
X859540Y674160D02*
X840460Y674160D01*
X839840Y725040D02*
X837300Y727580D01*
X839840Y725040D02*
X837300Y722500D01*
X860160Y725040D02*
X862700Y727580D01*
X860160Y725040D02*
X862700Y722500D01*
X862700Y702180D01*
X860160Y699640D01*
X862700Y747900D02*
X860160Y750440D01*
X862700Y747900D02*
X862700Y727580D01*
X839840Y750440D02*
X837300Y747900D01*
X837300Y727580D01*
X837300Y722500D02*
X837300Y702180D01*
X839840Y699640D01*
X860160Y699640D01*
X859540Y725040D02*
X840460Y725040D01*
X862700Y773220D02*
X860160Y775760D01*
X862700Y773220D02*
X862700Y752900D01*
X860160Y750360D01*
X837300Y752900D02*
X837300Y773220D01*
X837300Y752900D02*
X839840Y750360D01*
X860160Y750360D01*
X837300Y773300D02*
X839840Y775840D01*
X840460Y775840D02*
X859540Y775840D01*
X837300Y798620D02*
X839840Y801160D01*
X860160Y801160D02*
X862700Y798620D01*
X862700Y778300D01*
X860160Y775760D01*
X837300Y778300D02*
X837300Y798620D01*
X837300Y778300D02*
X839840Y775760D01*
X840460Y801160D02*
X859540Y801160D01*
D10*
X831976Y700823D02*
X822888Y700823D01*
X831976Y700822D02*
X832075Y700820D01*
X832175Y700814D01*
X832274Y700805D01*
X832372Y700792D01*
X832470Y700775D01*
X832568Y700754D01*
X832664Y700729D01*
X832759Y700701D01*
X832853Y700669D01*
X832946Y700634D01*
X833038Y700595D01*
X833128Y700552D01*
X833216Y700507D01*
X833303Y700457D01*
X833387Y700405D01*
X833470Y700349D01*
X833550Y700291D01*
X833628Y700229D01*
X833703Y700164D01*
X833776Y700096D01*
X833846Y700026D01*
X833914Y699953D01*
X833979Y699878D01*
X834041Y699800D01*
X834099Y699720D01*
X834155Y699637D01*
X834207Y699553D01*
X834257Y699466D01*
X834302Y699378D01*
X834345Y699288D01*
X834384Y699196D01*
X834419Y699103D01*
X834451Y699009D01*
X834479Y698914D01*
X834504Y698818D01*
X834525Y698720D01*
X834542Y698622D01*
X834555Y698524D01*
X834564Y698425D01*
X834570Y698325D01*
X834572Y698226D01*
X834572Y696928D01*
X831326Y706477D02*
X822888Y706477D01*
X831326Y706477D02*
X831439Y706479D01*
X831552Y706485D01*
X831665Y706495D01*
X831778Y706509D01*
X831890Y706526D01*
X832001Y706548D01*
X832111Y706573D01*
X832221Y706603D01*
X832329Y706636D01*
X832436Y706673D01*
X832542Y706713D01*
X832646Y706758D01*
X832749Y706806D01*
X832850Y706857D01*
X832949Y706912D01*
X833046Y706970D01*
X833141Y707032D01*
X833234Y707097D01*
X833324Y707165D01*
X833412Y707236D01*
X833498Y707311D01*
X833581Y707388D01*
X833661Y707468D01*
X833738Y707551D01*
X833813Y707637D01*
X833884Y707725D01*
X833952Y707815D01*
X834017Y707908D01*
X834079Y708003D01*
X834137Y708100D01*
X834192Y708199D01*
X834243Y708300D01*
X834291Y708403D01*
X834336Y708507D01*
X834376Y708613D01*
X834413Y708720D01*
X834446Y708828D01*
X834476Y708938D01*
X834501Y709048D01*
X834523Y709159D01*
X834540Y709271D01*
X834554Y709384D01*
X834564Y709497D01*
X834570Y709610D01*
X834572Y709723D01*
X834570Y709836D01*
X834564Y709949D01*
X834554Y710062D01*
X834540Y710175D01*
X834523Y710287D01*
X834501Y710398D01*
X834476Y710508D01*
X834446Y710618D01*
X834413Y710726D01*
X834376Y710833D01*
X834336Y710939D01*
X834291Y711043D01*
X834243Y711146D01*
X834192Y711247D01*
X834137Y711346D01*
X834079Y711443D01*
X834017Y711538D01*
X833952Y711631D01*
X833884Y711721D01*
X833813Y711809D01*
X833738Y711895D01*
X833661Y711978D01*
X833581Y712058D01*
X833498Y712135D01*
X833412Y712210D01*
X833324Y712281D01*
X833234Y712349D01*
X833141Y712414D01*
X833046Y712476D01*
X832949Y712534D01*
X832850Y712589D01*
X832749Y712640D01*
X832646Y712688D01*
X832542Y712733D01*
X832436Y712773D01*
X832329Y712810D01*
X832221Y712843D01*
X832111Y712873D01*
X832001Y712898D01*
X831890Y712920D01*
X831778Y712937D01*
X831665Y712951D01*
X831552Y712961D01*
X831439Y712967D01*
X831326Y712969D01*
X831326Y712968D02*
X822888Y712968D01*
X822888Y718782D02*
X834572Y718782D01*
X829379Y722677D02*
X822888Y718782D01*
X829379Y722677D02*
X822888Y726571D01*
X834572Y726571D01*
X825484Y732004D02*
X822888Y735250D01*
X834572Y735250D01*
X834572Y738495D02*
X834572Y732004D01*
D18*
X337000Y544500D02*
X333000Y544500D01*
X337000Y544500D02*
X337000Y515500D01*
X333000Y515500D01*
X333000Y544500D01*
X329500Y545000D02*
X318500Y545000D01*
D10*
X401183Y537596D02*
X401183Y532404D01*
X401182Y537596D02*
X401184Y537709D01*
X401190Y537822D01*
X401200Y537935D01*
X401214Y538048D01*
X401231Y538160D01*
X401253Y538271D01*
X401278Y538381D01*
X401308Y538491D01*
X401341Y538599D01*
X401378Y538706D01*
X401418Y538812D01*
X401463Y538916D01*
X401511Y539019D01*
X401562Y539120D01*
X401617Y539219D01*
X401675Y539316D01*
X401737Y539411D01*
X401802Y539504D01*
X401870Y539594D01*
X401941Y539682D01*
X402016Y539768D01*
X402093Y539851D01*
X402173Y539931D01*
X402256Y540008D01*
X402342Y540083D01*
X402430Y540154D01*
X402520Y540222D01*
X402613Y540287D01*
X402708Y540349D01*
X402805Y540407D01*
X402904Y540462D01*
X403005Y540513D01*
X403108Y540561D01*
X403212Y540606D01*
X403318Y540646D01*
X403425Y540683D01*
X403533Y540716D01*
X403643Y540746D01*
X403753Y540771D01*
X403864Y540793D01*
X403976Y540810D01*
X404089Y540824D01*
X404202Y540834D01*
X404315Y540840D01*
X404428Y540842D01*
X404541Y540840D01*
X404654Y540834D01*
X404767Y540824D01*
X404880Y540810D01*
X404992Y540793D01*
X405103Y540771D01*
X405213Y540746D01*
X405323Y540716D01*
X405431Y540683D01*
X405538Y540646D01*
X405644Y540606D01*
X405748Y540561D01*
X405851Y540513D01*
X405952Y540462D01*
X406051Y540407D01*
X406148Y540349D01*
X406243Y540287D01*
X406336Y540222D01*
X406426Y540154D01*
X406514Y540083D01*
X406600Y540008D01*
X406683Y539931D01*
X406763Y539851D01*
X406840Y539768D01*
X406915Y539682D01*
X406986Y539594D01*
X407054Y539504D01*
X407119Y539411D01*
X407181Y539316D01*
X407239Y539219D01*
X407294Y539120D01*
X407345Y539019D01*
X407393Y538916D01*
X407438Y538812D01*
X407478Y538706D01*
X407515Y538599D01*
X407548Y538491D01*
X407578Y538381D01*
X407603Y538271D01*
X407625Y538160D01*
X407642Y538048D01*
X407656Y537935D01*
X407666Y537822D01*
X407672Y537709D01*
X407674Y537596D01*
X407674Y532404D01*
X407672Y532291D01*
X407666Y532178D01*
X407656Y532065D01*
X407642Y531952D01*
X407625Y531840D01*
X407603Y531729D01*
X407578Y531619D01*
X407548Y531509D01*
X407515Y531401D01*
X407478Y531294D01*
X407438Y531188D01*
X407393Y531084D01*
X407345Y530981D01*
X407294Y530880D01*
X407239Y530781D01*
X407181Y530684D01*
X407119Y530589D01*
X407054Y530496D01*
X406986Y530406D01*
X406915Y530318D01*
X406840Y530232D01*
X406763Y530149D01*
X406683Y530069D01*
X406600Y529992D01*
X406514Y529917D01*
X406426Y529846D01*
X406336Y529778D01*
X406243Y529713D01*
X406148Y529651D01*
X406051Y529593D01*
X405952Y529538D01*
X405851Y529487D01*
X405748Y529439D01*
X405644Y529394D01*
X405538Y529354D01*
X405431Y529317D01*
X405323Y529284D01*
X405213Y529254D01*
X405103Y529229D01*
X404992Y529207D01*
X404880Y529190D01*
X404767Y529176D01*
X404654Y529166D01*
X404541Y529160D01*
X404428Y529158D01*
X404315Y529160D01*
X404202Y529166D01*
X404089Y529176D01*
X403976Y529190D01*
X403864Y529207D01*
X403753Y529229D01*
X403643Y529254D01*
X403533Y529284D01*
X403425Y529317D01*
X403318Y529354D01*
X403212Y529394D01*
X403108Y529439D01*
X403005Y529487D01*
X402904Y529538D01*
X402805Y529593D01*
X402708Y529651D01*
X402613Y529713D01*
X402520Y529778D01*
X402430Y529846D01*
X402342Y529917D01*
X402256Y529992D01*
X402173Y530069D01*
X402093Y530149D01*
X402016Y530232D01*
X401941Y530318D01*
X401870Y530406D01*
X401802Y530496D01*
X401737Y530589D01*
X401675Y530684D01*
X401617Y530781D01*
X401562Y530880D01*
X401511Y530981D01*
X401463Y531084D01*
X401418Y531188D01*
X401378Y531294D01*
X401341Y531401D01*
X401308Y531509D01*
X401278Y531619D01*
X401253Y531729D01*
X401231Y531840D01*
X401214Y531952D01*
X401200Y532065D01*
X401190Y532178D01*
X401184Y532291D01*
X401182Y532404D01*
X406375Y531754D02*
X408972Y529158D01*
X412326Y529158D02*
X415572Y529158D01*
X415685Y529160D01*
X415798Y529166D01*
X415911Y529176D01*
X416024Y529190D01*
X416136Y529207D01*
X416247Y529229D01*
X416357Y529254D01*
X416467Y529284D01*
X416575Y529317D01*
X416682Y529354D01*
X416788Y529394D01*
X416892Y529439D01*
X416995Y529487D01*
X417096Y529538D01*
X417195Y529593D01*
X417292Y529651D01*
X417387Y529713D01*
X417480Y529778D01*
X417570Y529846D01*
X417658Y529917D01*
X417744Y529992D01*
X417827Y530069D01*
X417907Y530149D01*
X417984Y530232D01*
X418059Y530318D01*
X418130Y530406D01*
X418198Y530496D01*
X418263Y530589D01*
X418325Y530684D01*
X418383Y530781D01*
X418438Y530880D01*
X418489Y530981D01*
X418537Y531084D01*
X418582Y531188D01*
X418622Y531294D01*
X418659Y531401D01*
X418692Y531509D01*
X418722Y531619D01*
X418747Y531729D01*
X418769Y531840D01*
X418786Y531952D01*
X418800Y532065D01*
X418810Y532178D01*
X418816Y532291D01*
X418818Y532404D01*
X418816Y532517D01*
X418810Y532630D01*
X418800Y532743D01*
X418786Y532856D01*
X418769Y532968D01*
X418747Y533079D01*
X418722Y533189D01*
X418692Y533299D01*
X418659Y533407D01*
X418622Y533514D01*
X418582Y533620D01*
X418537Y533724D01*
X418489Y533827D01*
X418438Y533928D01*
X418383Y534027D01*
X418325Y534124D01*
X418263Y534219D01*
X418198Y534312D01*
X418130Y534402D01*
X418059Y534490D01*
X417984Y534576D01*
X417907Y534659D01*
X417827Y534739D01*
X417744Y534816D01*
X417658Y534891D01*
X417570Y534962D01*
X417480Y535030D01*
X417387Y535095D01*
X417292Y535157D01*
X417195Y535215D01*
X417096Y535270D01*
X416995Y535321D01*
X416892Y535369D01*
X416788Y535414D01*
X416682Y535454D01*
X416575Y535491D01*
X416467Y535524D01*
X416357Y535554D01*
X416247Y535579D01*
X416136Y535601D01*
X416024Y535618D01*
X415911Y535632D01*
X415798Y535642D01*
X415685Y535648D01*
X415572Y535650D01*
X416221Y540842D02*
X412326Y540842D01*
X416221Y540842D02*
X416322Y540840D01*
X416422Y540834D01*
X416522Y540824D01*
X416622Y540811D01*
X416721Y540793D01*
X416820Y540772D01*
X416917Y540747D01*
X417014Y540718D01*
X417109Y540685D01*
X417203Y540649D01*
X417295Y540609D01*
X417386Y540566D01*
X417475Y540519D01*
X417562Y540469D01*
X417648Y540415D01*
X417731Y540358D01*
X417811Y540298D01*
X417890Y540235D01*
X417966Y540168D01*
X418039Y540099D01*
X418109Y540027D01*
X418177Y539953D01*
X418242Y539876D01*
X418303Y539796D01*
X418362Y539714D01*
X418417Y539630D01*
X418469Y539544D01*
X418518Y539456D01*
X418563Y539366D01*
X418605Y539274D01*
X418643Y539181D01*
X418677Y539086D01*
X418708Y538991D01*
X418735Y538894D01*
X418758Y538796D01*
X418778Y538697D01*
X418793Y538597D01*
X418805Y538497D01*
X418813Y538397D01*
X418817Y538296D01*
X418817Y538196D01*
X418813Y538095D01*
X418805Y537995D01*
X418793Y537895D01*
X418778Y537795D01*
X418758Y537696D01*
X418735Y537598D01*
X418708Y537501D01*
X418677Y537406D01*
X418643Y537311D01*
X418605Y537218D01*
X418563Y537126D01*
X418518Y537036D01*
X418469Y536948D01*
X418417Y536862D01*
X418362Y536778D01*
X418303Y536696D01*
X418242Y536616D01*
X418177Y536539D01*
X418109Y536465D01*
X418039Y536393D01*
X417966Y536324D01*
X417890Y536257D01*
X417811Y536194D01*
X417731Y536134D01*
X417648Y536077D01*
X417562Y536023D01*
X417475Y535973D01*
X417386Y535926D01*
X417295Y535883D01*
X417203Y535843D01*
X417109Y535807D01*
X417014Y535774D01*
X416917Y535745D01*
X416820Y535720D01*
X416721Y535699D01*
X416622Y535681D01*
X416522Y535668D01*
X416422Y535658D01*
X416322Y535652D01*
X416221Y535650D01*
X416221Y535649D02*
X413625Y535649D01*
D18*
X638000Y290500D02*
X642000Y290500D01*
X638000Y290500D02*
X638000Y319500D01*
X642000Y319500D01*
X642000Y290500D01*
X645500Y290000D02*
X656500Y290000D01*
D10*
X566183Y297404D02*
X566183Y302596D01*
X566182Y302596D02*
X566184Y302709D01*
X566190Y302822D01*
X566200Y302935D01*
X566214Y303048D01*
X566231Y303160D01*
X566253Y303271D01*
X566278Y303381D01*
X566308Y303491D01*
X566341Y303599D01*
X566378Y303706D01*
X566418Y303812D01*
X566463Y303916D01*
X566511Y304019D01*
X566562Y304120D01*
X566617Y304219D01*
X566675Y304316D01*
X566737Y304411D01*
X566802Y304504D01*
X566870Y304594D01*
X566941Y304682D01*
X567016Y304768D01*
X567093Y304851D01*
X567173Y304931D01*
X567256Y305008D01*
X567342Y305083D01*
X567430Y305154D01*
X567520Y305222D01*
X567613Y305287D01*
X567708Y305349D01*
X567805Y305407D01*
X567904Y305462D01*
X568005Y305513D01*
X568108Y305561D01*
X568212Y305606D01*
X568318Y305646D01*
X568425Y305683D01*
X568533Y305716D01*
X568643Y305746D01*
X568753Y305771D01*
X568864Y305793D01*
X568976Y305810D01*
X569089Y305824D01*
X569202Y305834D01*
X569315Y305840D01*
X569428Y305842D01*
X569541Y305840D01*
X569654Y305834D01*
X569767Y305824D01*
X569880Y305810D01*
X569992Y305793D01*
X570103Y305771D01*
X570213Y305746D01*
X570323Y305716D01*
X570431Y305683D01*
X570538Y305646D01*
X570644Y305606D01*
X570748Y305561D01*
X570851Y305513D01*
X570952Y305462D01*
X571051Y305407D01*
X571148Y305349D01*
X571243Y305287D01*
X571336Y305222D01*
X571426Y305154D01*
X571514Y305083D01*
X571600Y305008D01*
X571683Y304931D01*
X571763Y304851D01*
X571840Y304768D01*
X571915Y304682D01*
X571986Y304594D01*
X572054Y304504D01*
X572119Y304411D01*
X572181Y304316D01*
X572239Y304219D01*
X572294Y304120D01*
X572345Y304019D01*
X572393Y303916D01*
X572438Y303812D01*
X572478Y303706D01*
X572515Y303599D01*
X572548Y303491D01*
X572578Y303381D01*
X572603Y303271D01*
X572625Y303160D01*
X572642Y303048D01*
X572656Y302935D01*
X572666Y302822D01*
X572672Y302709D01*
X572674Y302596D01*
X572674Y297404D01*
X572672Y297291D01*
X572666Y297178D01*
X572656Y297065D01*
X572642Y296952D01*
X572625Y296840D01*
X572603Y296729D01*
X572578Y296619D01*
X572548Y296509D01*
X572515Y296401D01*
X572478Y296294D01*
X572438Y296188D01*
X572393Y296084D01*
X572345Y295981D01*
X572294Y295880D01*
X572239Y295781D01*
X572181Y295684D01*
X572119Y295589D01*
X572054Y295496D01*
X571986Y295406D01*
X571915Y295318D01*
X571840Y295232D01*
X571763Y295149D01*
X571683Y295069D01*
X571600Y294992D01*
X571514Y294917D01*
X571426Y294846D01*
X571336Y294778D01*
X571243Y294713D01*
X571148Y294651D01*
X571051Y294593D01*
X570952Y294538D01*
X570851Y294487D01*
X570748Y294439D01*
X570644Y294394D01*
X570538Y294354D01*
X570431Y294317D01*
X570323Y294284D01*
X570213Y294254D01*
X570103Y294229D01*
X569992Y294207D01*
X569880Y294190D01*
X569767Y294176D01*
X569654Y294166D01*
X569541Y294160D01*
X569428Y294158D01*
X569315Y294160D01*
X569202Y294166D01*
X569089Y294176D01*
X568976Y294190D01*
X568864Y294207D01*
X568753Y294229D01*
X568643Y294254D01*
X568533Y294284D01*
X568425Y294317D01*
X568318Y294354D01*
X568212Y294394D01*
X568108Y294439D01*
X568005Y294487D01*
X567904Y294538D01*
X567805Y294593D01*
X567708Y294651D01*
X567613Y294713D01*
X567520Y294778D01*
X567430Y294846D01*
X567342Y294917D01*
X567256Y294992D01*
X567173Y295069D01*
X567093Y295149D01*
X567016Y295232D01*
X566941Y295318D01*
X566870Y295406D01*
X566802Y295496D01*
X566737Y295589D01*
X566675Y295684D01*
X566617Y295781D01*
X566562Y295880D01*
X566511Y295981D01*
X566463Y296084D01*
X566418Y296188D01*
X566378Y296294D01*
X566341Y296401D01*
X566308Y296509D01*
X566278Y296619D01*
X566253Y296729D01*
X566231Y296840D01*
X566214Y296952D01*
X566200Y297065D01*
X566190Y297178D01*
X566184Y297291D01*
X566182Y297404D01*
X571375Y296754D02*
X573972Y294158D01*
X577326Y296754D02*
X579923Y305842D01*
X577326Y296754D02*
X583817Y296754D01*
X581870Y299351D02*
X581870Y294158D01*
X286792Y524158D02*
X275108Y524158D01*
X275108Y527404D01*
X275110Y527517D01*
X275116Y527630D01*
X275126Y527743D01*
X275140Y527856D01*
X275157Y527968D01*
X275179Y528079D01*
X275204Y528189D01*
X275234Y528299D01*
X275267Y528407D01*
X275304Y528514D01*
X275344Y528620D01*
X275389Y528724D01*
X275437Y528827D01*
X275488Y528928D01*
X275543Y529027D01*
X275601Y529124D01*
X275663Y529219D01*
X275728Y529312D01*
X275796Y529402D01*
X275867Y529490D01*
X275942Y529576D01*
X276019Y529659D01*
X276099Y529739D01*
X276182Y529816D01*
X276268Y529891D01*
X276356Y529962D01*
X276446Y530030D01*
X276539Y530095D01*
X276634Y530157D01*
X276731Y530215D01*
X276830Y530270D01*
X276931Y530321D01*
X277034Y530369D01*
X277138Y530414D01*
X277244Y530454D01*
X277351Y530491D01*
X277459Y530524D01*
X277569Y530554D01*
X277679Y530579D01*
X277790Y530601D01*
X277902Y530618D01*
X278015Y530632D01*
X278128Y530642D01*
X278241Y530648D01*
X278354Y530650D01*
X278467Y530648D01*
X278580Y530642D01*
X278693Y530632D01*
X278806Y530618D01*
X278918Y530601D01*
X279029Y530579D01*
X279139Y530554D01*
X279249Y530524D01*
X279357Y530491D01*
X279464Y530454D01*
X279570Y530414D01*
X279674Y530369D01*
X279777Y530321D01*
X279878Y530270D01*
X279977Y530215D01*
X280074Y530157D01*
X280169Y530095D01*
X280262Y530030D01*
X280352Y529962D01*
X280440Y529891D01*
X280526Y529816D01*
X280609Y529739D01*
X280689Y529659D01*
X280766Y529576D01*
X280841Y529490D01*
X280912Y529402D01*
X280980Y529312D01*
X281045Y529219D01*
X281107Y529124D01*
X281165Y529027D01*
X281220Y528928D01*
X281271Y528827D01*
X281319Y528724D01*
X281364Y528620D01*
X281404Y528514D01*
X281441Y528407D01*
X281474Y528299D01*
X281504Y528189D01*
X281529Y528079D01*
X281551Y527968D01*
X281568Y527856D01*
X281582Y527743D01*
X281592Y527630D01*
X281598Y527517D01*
X281600Y527404D01*
X281599Y527404D02*
X281599Y524158D01*
X281599Y528053D02*
X286792Y530649D01*
X277704Y535514D02*
X275108Y538760D01*
X286792Y538760D01*
X286792Y542005D02*
X286792Y535514D01*
X280301Y546944D02*
X280301Y550839D01*
X280303Y550938D01*
X280309Y551038D01*
X280318Y551137D01*
X280331Y551235D01*
X280348Y551333D01*
X280369Y551431D01*
X280394Y551527D01*
X280422Y551622D01*
X280454Y551716D01*
X280489Y551809D01*
X280528Y551901D01*
X280571Y551991D01*
X280616Y552079D01*
X280666Y552166D01*
X280718Y552250D01*
X280774Y552333D01*
X280832Y552413D01*
X280894Y552491D01*
X280959Y552566D01*
X281027Y552639D01*
X281097Y552709D01*
X281170Y552777D01*
X281245Y552842D01*
X281323Y552904D01*
X281403Y552962D01*
X281486Y553018D01*
X281570Y553070D01*
X281657Y553120D01*
X281745Y553165D01*
X281835Y553208D01*
X281927Y553247D01*
X282020Y553282D01*
X282114Y553314D01*
X282209Y553342D01*
X282305Y553367D01*
X282403Y553388D01*
X282501Y553405D01*
X282599Y553418D01*
X282698Y553427D01*
X282798Y553433D01*
X282897Y553435D01*
X283546Y553435D01*
X283546Y553436D02*
X283659Y553434D01*
X283772Y553428D01*
X283885Y553418D01*
X283998Y553404D01*
X284110Y553387D01*
X284221Y553365D01*
X284331Y553340D01*
X284441Y553310D01*
X284549Y553277D01*
X284656Y553240D01*
X284762Y553200D01*
X284866Y553155D01*
X284969Y553107D01*
X285070Y553056D01*
X285169Y553001D01*
X285266Y552943D01*
X285361Y552881D01*
X285454Y552816D01*
X285544Y552748D01*
X285632Y552677D01*
X285718Y552602D01*
X285801Y552525D01*
X285881Y552445D01*
X285958Y552362D01*
X286033Y552276D01*
X286104Y552188D01*
X286172Y552098D01*
X286237Y552005D01*
X286299Y551910D01*
X286357Y551813D01*
X286412Y551714D01*
X286463Y551613D01*
X286511Y551510D01*
X286556Y551406D01*
X286596Y551300D01*
X286633Y551193D01*
X286666Y551085D01*
X286696Y550975D01*
X286721Y550865D01*
X286743Y550754D01*
X286760Y550642D01*
X286774Y550529D01*
X286784Y550416D01*
X286790Y550303D01*
X286792Y550190D01*
X286790Y550077D01*
X286784Y549964D01*
X286774Y549851D01*
X286760Y549738D01*
X286743Y549626D01*
X286721Y549515D01*
X286696Y549405D01*
X286666Y549295D01*
X286633Y549187D01*
X286596Y549080D01*
X286556Y548974D01*
X286511Y548870D01*
X286463Y548767D01*
X286412Y548666D01*
X286357Y548567D01*
X286299Y548470D01*
X286237Y548375D01*
X286172Y548282D01*
X286104Y548192D01*
X286033Y548104D01*
X285958Y548018D01*
X285881Y547935D01*
X285801Y547855D01*
X285718Y547778D01*
X285632Y547703D01*
X285544Y547632D01*
X285454Y547564D01*
X285361Y547499D01*
X285266Y547437D01*
X285169Y547379D01*
X285070Y547324D01*
X284969Y547273D01*
X284866Y547225D01*
X284762Y547180D01*
X284656Y547140D01*
X284549Y547103D01*
X284441Y547070D01*
X284331Y547040D01*
X284221Y547015D01*
X284110Y546993D01*
X283998Y546976D01*
X283885Y546962D01*
X283772Y546952D01*
X283659Y546946D01*
X283546Y546944D01*
X280301Y546944D01*
X280158Y546946D01*
X280015Y546952D01*
X279872Y546962D01*
X279730Y546976D01*
X279588Y546993D01*
X279446Y547015D01*
X279305Y547040D01*
X279165Y547070D01*
X279026Y547103D01*
X278888Y547140D01*
X278751Y547181D01*
X278615Y547225D01*
X278480Y547274D01*
X278347Y547326D01*
X278215Y547381D01*
X278085Y547441D01*
X277956Y547504D01*
X277829Y547570D01*
X277705Y547640D01*
X277582Y547713D01*
X277461Y547790D01*
X277342Y547869D01*
X277226Y547953D01*
X277111Y548039D01*
X277000Y548128D01*
X276891Y548221D01*
X276784Y548316D01*
X276680Y548415D01*
X276579Y548516D01*
X276480Y548620D01*
X276385Y548726D01*
X276292Y548836D01*
X276203Y548947D01*
X276117Y549061D01*
X276034Y549178D01*
X275954Y549297D01*
X275877Y549418D01*
X275804Y549540D01*
X275734Y549665D01*
X275668Y549792D01*
X275605Y549921D01*
X275545Y550051D01*
X275490Y550183D01*
X275438Y550316D01*
X275389Y550451D01*
X275345Y550587D01*
X275304Y550724D01*
X275267Y550862D01*
X275234Y551001D01*
X275204Y551141D01*
X275179Y551282D01*
X275157Y551424D01*
X275140Y551566D01*
X275126Y551708D01*
X275116Y551851D01*
X275110Y551994D01*
X275108Y552137D01*
X650108Y259158D02*
X661792Y259158D01*
X650108Y259158D02*
X650108Y262404D01*
X650110Y262517D01*
X650116Y262630D01*
X650126Y262743D01*
X650140Y262856D01*
X650157Y262968D01*
X650179Y263079D01*
X650204Y263189D01*
X650234Y263299D01*
X650267Y263407D01*
X650304Y263514D01*
X650344Y263620D01*
X650389Y263724D01*
X650437Y263827D01*
X650488Y263928D01*
X650543Y264027D01*
X650601Y264124D01*
X650663Y264219D01*
X650728Y264312D01*
X650796Y264402D01*
X650867Y264490D01*
X650942Y264576D01*
X651019Y264659D01*
X651099Y264739D01*
X651182Y264816D01*
X651268Y264891D01*
X651356Y264962D01*
X651446Y265030D01*
X651539Y265095D01*
X651634Y265157D01*
X651731Y265215D01*
X651830Y265270D01*
X651931Y265321D01*
X652034Y265369D01*
X652138Y265414D01*
X652244Y265454D01*
X652351Y265491D01*
X652459Y265524D01*
X652569Y265554D01*
X652679Y265579D01*
X652790Y265601D01*
X652902Y265618D01*
X653015Y265632D01*
X653128Y265642D01*
X653241Y265648D01*
X653354Y265650D01*
X653467Y265648D01*
X653580Y265642D01*
X653693Y265632D01*
X653806Y265618D01*
X653918Y265601D01*
X654029Y265579D01*
X654139Y265554D01*
X654249Y265524D01*
X654357Y265491D01*
X654464Y265454D01*
X654570Y265414D01*
X654674Y265369D01*
X654777Y265321D01*
X654878Y265270D01*
X654977Y265215D01*
X655074Y265157D01*
X655169Y265095D01*
X655262Y265030D01*
X655352Y264962D01*
X655440Y264891D01*
X655526Y264816D01*
X655609Y264739D01*
X655689Y264659D01*
X655766Y264576D01*
X655841Y264490D01*
X655912Y264402D01*
X655980Y264312D01*
X656045Y264219D01*
X656107Y264124D01*
X656165Y264027D01*
X656220Y263928D01*
X656271Y263827D01*
X656319Y263724D01*
X656364Y263620D01*
X656404Y263514D01*
X656441Y263407D01*
X656474Y263299D01*
X656504Y263189D01*
X656529Y263079D01*
X656551Y262968D01*
X656568Y262856D01*
X656582Y262743D01*
X656592Y262630D01*
X656598Y262517D01*
X656600Y262404D01*
X656599Y262404D02*
X656599Y259158D01*
X656599Y263053D02*
X661792Y265649D01*
X652704Y270514D02*
X650108Y273760D01*
X661792Y273760D01*
X661792Y277005D02*
X661792Y270514D01*
X651406Y281944D02*
X650108Y281944D01*
X650108Y288435D01*
X661792Y285190D01*
M02*
