M48
;GenerationSoftware,Autodesk,EAGLE,9.6.2*%
;CreationDate,2023-10-21T08:24:59Z*%
FMAT,2
ICI,OFF
METRIC,TZ,000.000
T9C0.200
T8C0.350
T7C0.500
T6C0.550
T5C0.813
T4C0.900
T3C1.000
T2C1.016
T1C3.500
%
G90
M71
T1
X75000Y25000
X25000Y25000
X75000Y75000
X25000Y75000
T2
X29990Y89040
X27520Y86570
X26495Y53340
X26495Y50800
X26495Y48260
T3
X74544Y37828
X37960Y82560
X37960Y80020
X37960Y77480
X37960Y74940
X74544Y35288
X74544Y40368
X74400Y49150
X74400Y51690
X74400Y54230
X74400Y56770
T4
X46200Y17960
X53800Y17960
T5
X85000Y78850
X85000Y66150
X85000Y68690
X85000Y71230
X85000Y73770
X85000Y76310
T6
X27000Y43000
T7
X42500Y93500
T8
X38500Y50000
X36000Y52000
X66000Y51500
X67500Y54500
X61500Y50000
X29500Y50500
X73000Y30000
X66000Y25500
X31000Y50500
X69250Y53750
X31100Y25200
X58500Y30000
T9
X49917Y47760
X47165Y46842
X49000Y46842
X50835Y46842
X48082Y45925
X48082Y47760
X49917Y49595
X47165Y48677
X49000Y48677
X50835Y48677
X48082Y49595
X49917Y45925
M30